<svg width="85" height="84" viewBox="0 0 85 84" fill="none" xmlns="http://www.w3.org/2000/svg">
<path d="M42.1936 0C20.6153 1.52941e-06 21.9628 9.29596 21.9628 9.29596L21.9869 18.9265H42.5785V21.818H13.8079C13.8079 21.818 0 20.2624 0 41.8916C-1.53956e-06 63.5207 12.0519 62.7537 12.0519 62.7537H19.2445V52.7169C19.2445 52.7169 18.8568 40.7445 31.1039 40.7445C43.3511 40.7445 51.5272 40.7445 51.5272 40.7445C51.5272 40.7445 63.0017 40.9288 63.0017 29.728C63.0017 18.5271 63.0017 11.2077 63.0017 11.2077C63.0017 11.2077 64.7439 0 42.1936 0ZM30.8393 6.47611C32.888 6.47611 34.5439 8.12104 34.5439 10.1563C34.5439 12.1915 32.888 13.8364 30.8393 13.8364C28.7906 13.8364 27.1348 12.1915 27.1348 10.1563C27.1348 8.12104 28.7906 6.47611 30.8393 6.47611Z" fill="url(#paint0_linear_532_10308)"/>
<path d="M42.8064 84.0002C64.3847 84.0002 63.0372 74.7043 63.0372 74.7043L63.0131 65.0738H42.4215V62.1822H71.192C71.192 62.1822 85 63.7378 85 42.1087C85 20.4795 72.9481 21.2465 72.9481 21.2465H65.7555V31.2833C65.7555 31.2833 66.1432 43.2557 53.896 43.2557C41.6489 43.2557 33.4728 43.2557 33.4728 43.2557C33.4728 43.2557 21.9982 43.0715 21.9982 54.2723C21.9982 65.4731 21.9982 72.7925 21.9982 72.7925C21.9982 72.7925 20.2561 84.0002 42.8064 84.0002ZM54.1606 77.5241C52.1119 77.5241 50.4561 75.8792 50.4561 73.844C50.4561 71.8088 52.1119 70.1638 54.1606 70.1638C56.2094 70.1638 57.8652 71.8088 57.8652 73.844C57.8652 75.8792 56.2094 77.5241 54.1606 77.5241Z" fill="url(#paint1_linear_532_10308)"/>
<defs>
<linearGradient id="paint0_linear_532_10308" x1="8.16866" y1="7.34235" x2="49.9198" y2="49.5111" gradientUnits="userSpaceOnUse">
<stop stop-color="#387EB8"/>
<stop offset="1" stop-color="#366994"/>
</linearGradient>
<linearGradient id="paint1_linear_532_10308" x1="34.0237" y1="33.9928" x2="78.8783" y2="77.2509" gradientUnits="userSpaceOnUse">
<stop stop-color="#FFE052"/>
<stop offset="1" stop-color="#FFC331"/>
</linearGradient>
</defs>
</svg>
