<svg width="149" height="64" viewBox="0 0 149 64" fill="none" xmlns="http://www.w3.org/2000/svg">
<path d="M148.486 55.2913C148.486 59.8053 144.803 63.4877 140.289 63.4877H8.1964C3.68244 63.4877 0 59.8053 0 55.2913V8.25109C0 3.73713 3.68244 0.0546875 8.1964 0.0546875H140.289C144.803 0.0546875 148.486 3.73713 148.486 8.25109V55.2913Z" fill="#003A2B"/>
<path d="M25.5395 9.91406H32.6668V42.4621C29.1032 43.1748 26.371 43.4124 23.5201 43.4124C14.9673 43.4124 10.4534 39.4924 10.4534 32.1275C10.4534 25.0002 15.2049 20.2487 22.5698 20.2487C23.7577 20.2487 24.5892 20.3674 25.6583 20.605V9.91406H25.5395ZM25.5395 26.3069C24.708 26.0693 23.9953 25.9505 23.1637 25.9505C19.6001 25.9505 17.5807 28.0887 17.5807 32.0087C17.5807 35.8099 19.6001 37.8293 23.1637 37.8293C23.9953 37.8293 24.5892 37.8294 25.5395 37.5918V26.3069ZM43.8329 20.8426V37.1166C43.8329 42.6997 43.4766 45.4318 42.1699 47.8076C40.982 50.0646 39.5565 51.49 36.468 53.0343L29.9347 49.9458C33.0232 48.5203 34.5674 47.2136 35.5177 45.1942C36.468 43.1748 36.8244 40.7991 36.8244 34.7409V20.8426H43.8329ZM36.8244 10.0329H43.8329V17.2789H36.8244V10.0329ZM48.1093 22.3869C51.1978 20.9614 54.1675 20.2487 57.3748 20.2487C60.9385 20.2487 63.3142 21.199 64.3833 23.0996C64.9773 24.1687 65.2149 25.4754 65.2149 28.4451V42.6997C62.0076 43.1748 58.0875 43.5312 55.1178 43.5312C49.1784 43.5312 46.5651 41.5118 46.5651 36.879C46.5651 31.8899 50.1287 29.6329 58.6815 28.9202V27.376C58.6815 26.0693 58.0875 25.5941 56.3057 25.5941C53.6924 25.5941 50.7227 26.3069 47.9905 27.7323V22.3869H48.1093ZM59.0379 33.553C54.4051 34.0281 52.8609 34.7409 52.8609 36.5227C52.8609 37.9481 53.6924 38.5421 55.593 38.5421C56.6621 38.5421 57.6124 38.4233 58.9191 38.1857V33.553H59.0379ZM68.6597 21.9117C72.8173 20.8426 76.2622 20.3675 79.707 20.3675C83.2707 20.3675 85.884 21.199 87.4283 22.7432C88.8538 24.2875 89.3289 25.9505 89.3289 29.3954V43.1748H82.3204V29.6329C82.3204 26.9008 81.3701 25.9505 78.8755 25.9505C77.9252 25.9505 77.0937 26.0693 75.6682 26.4257V43.1748H68.6597V21.9117ZM92.061 46.9761C94.5556 48.2827 97.0502 48.8767 99.5447 48.8767C104.177 48.8767 106.078 46.9761 106.078 42.5809V42.4621C104.653 43.1748 103.346 43.4124 101.564 43.4124C95.3871 43.4124 91.4671 39.3736 91.4671 32.959C91.4671 25.0002 97.2877 20.4862 107.504 20.4862C110.473 20.4862 113.324 20.8426 116.65 21.4365L114.274 26.5444C112.374 26.1881 114.156 26.5445 112.73 26.3069V27.0196L112.849 29.9893V33.7905C112.849 34.7408 112.849 35.6912 112.968 36.6415V38.5421C112.968 44.6003 112.493 47.4512 110.948 49.7082C108.81 53.1531 105.009 54.8161 99.5447 54.8161C96.8126 54.8161 94.4368 54.4597 91.9423 53.3906V46.9761H92.061ZM106.078 26.0693H105.365C103.94 26.0693 102.396 26.4257 101.327 27.0196C99.6635 27.9699 98.7132 29.7517 98.7132 32.1275C98.7132 35.6912 100.495 37.7106 103.584 37.7106C104.534 37.7106 105.365 37.473 106.197 37.2354V26.0693H106.078ZM127.698 20.2487C134.706 20.2487 138.982 24.6438 138.982 31.8899C138.982 39.2548 134.469 43.8876 127.341 43.8876C120.333 43.8876 115.938 39.4924 115.938 32.3651C116.056 24.8814 120.57 20.2487 127.698 20.2487ZM127.579 38.0669C130.311 38.0669 131.855 35.8099 131.855 31.8899C131.855 28.0887 130.311 25.7129 127.579 25.7129C124.847 25.7129 123.184 27.9699 123.184 31.8899C123.302 35.9287 124.847 38.0669 127.579 38.0669Z" fill="white"/>
</svg>
