<svg width="79" height="79" viewBox="0 0 79 79" fill="none" xmlns="http://www.w3.org/2000/svg">
<g clip-path="url(#clip0_532_10324)">
<path d="M17.5591 0H61.3177C63.447 0 65.5146 0.339453 67.5204 1.04922C70.4212 2.09844 73.0443 3.95 75.0193 6.35703C77.0251 8.76406 78.3521 11.7266 78.815 14.8125C79.0001 15.9543 79.031 17.0961 79.031 18.2379V60.9164C79.031 62.2742 78.9693 63.6629 78.6915 64.9898C78.0744 68.0449 76.624 70.9148 74.5255 73.2293C72.4579 75.5438 69.7423 77.2719 66.8107 78.1977C65.0208 78.7531 63.1693 79 61.2868 79C60.4536 79 17.4356 79 16.7876 78.9691C13.6399 78.8148 10.5231 77.7965 7.9001 76.0375C5.33877 74.3094 3.24033 71.9023 1.88251 69.125C0.709858 66.7488 0.123529 64.0949 0.123529 61.441V17.559C0.0618105 14.9359 0.617279 12.3438 1.75908 9.99844C3.08603 7.22109 5.15361 4.7832 7.71494 3.05508C10.338 1.26523 13.4239 0.216016 16.5716 0.0617188C16.8802 0 17.2196 0 17.5591 0Z" fill="url(#paint0_linear_532_10324)"/>
<path d="M66.6563 64.6195C66.3785 64.1875 66.0699 63.7555 65.7305 63.3543C64.959 62.4285 64.0641 61.6262 63.0766 60.9473C61.8422 60.1141 60.3918 59.5895 58.9105 59.5277C57.8613 59.466 56.8121 59.6512 55.8246 60.0215C54.8371 60.3609 53.8805 60.8547 52.9547 61.3484C51.8746 61.9039 50.7945 62.4594 49.6527 62.9223C48.2949 63.4777 46.8754 63.9098 45.425 64.2184C43.6043 64.5578 41.7527 64.6813 39.932 64.6504C36.6301 64.5887 33.3281 64.0949 30.1805 63.1691C27.4031 62.3359 24.7492 61.1941 22.2496 59.7438C20.0586 58.4785 18.0219 57.0281 16.1086 55.3926C14.5348 54.0348 13.0844 52.5844 11.7266 51.0414C10.8008 49.9613 9.90586 48.8195 9.07266 47.6469C8.7332 47.184 8.42461 46.6902 8.14688 46.1965L0 37.4016V17.4973C0 7.83828 7.80742 0 17.4664 0H33.0504L44.5918 11.7266C70.6371 29.4398 62.2125 48.9738 62.2125 48.9738C62.2125 48.9738 69.6188 57.3059 66.6563 64.6195Z" fill="url(#paint1_linear_532_10324)"/>
<path d="M44.6536 11.7266C70.6989 29.4398 62.2743 48.9738 62.2743 48.9738C62.2743 48.9738 69.6805 57.3367 66.6872 64.6504C66.6872 64.6504 63.6321 59.5277 58.5095 59.5277C53.572 59.5277 50.6712 64.6504 40.7345 64.6504C18.6083 64.6504 8.14697 46.1656 8.14697 46.1656C28.0821 59.2809 41.6911 49.9922 41.6911 49.9922C32.711 44.777 13.6091 19.8426 13.6091 19.8426C30.2423 34.007 37.4325 37.741 37.4325 37.741C33.1431 34.1922 21.1079 16.8492 21.1079 16.8492C30.736 26.6008 49.8688 40.2098 49.8688 40.2098C55.3001 25.1504 44.6536 11.7266 44.6536 11.7266Z" fill="white"/>
</g>
<defs>
<linearGradient id="paint0_linear_532_10324" x1="46.9962" y1="-2.819" x2="32.0704" y2="81.8286" gradientUnits="userSpaceOnUse">
<stop stop-color="#FAAE42"/>
<stop offset="1" stop-color="#EF3E31"/>
</linearGradient>
<linearGradient id="paint1_linear_532_10324" x1="40.3061" y1="1.27634" x2="29.3821" y2="63.2287" gradientUnits="userSpaceOnUse">
<stop stop-color="#E39F3A"/>
<stop offset="1" stop-color="#D33929"/>
</linearGradient>
<clipPath id="clip0_532_10324">
<rect width="79" height="79" fill="white"/>
</clipPath>
</defs>
</svg>
