<svg width="76" height="76" viewBox="0 0 76 76" fill="none" xmlns="http://www.w3.org/2000/svg">
<path d="M62.073 24.1816C63.5134 24.1816 64.8987 24.412 66.2044 24.8272V32.3455L66.0006 32.1586C65.7829 31.959 65.5218 31.7732 65.2246 31.598C64.9231 31.4207 64.5962 31.2657 64.2491 31.1309C63.9062 30.9992 63.5453 30.8877 63.1748 30.807C62.8086 30.7221 62.4392 30.6807 62.073 30.6807C61.1155 30.6807 60.2121 30.8612 59.3863 31.219C58.5551 31.5789 57.8227 32.0695 57.2091 32.6789C56.5987 33.2873 56.1073 34.0157 55.7474 34.8396C55.3854 35.6678 55.205 36.5692 55.205 37.5195C55.205 38.4687 55.3854 39.3701 55.7474 40.194C56.1073 41.019 56.5987 41.7485 57.2091 42.3579C57.8227 42.9652 58.5551 43.459 59.3863 43.8157C60.2121 44.1757 61.1155 44.3551 62.073 44.3551C63.0294 44.3551 63.9338 44.1767 64.7639 43.8285C65.5908 43.4802 66.3254 42.9907 66.9432 42.3823C67.5674 41.775 68.0599 41.0466 68.407 40.2206C68.7605 39.3967 68.9388 38.4867 68.9388 37.5195V26.0546C72.9036 28.3947 75.5637 32.6959 75.5637 37.6193C75.5637 45.0378 69.528 51.0537 62.073 51.0537C54.618 51.0537 48.5769 45.0378 48.5769 37.6193C48.5769 30.1997 54.618 24.1816 62.073 24.1816Z" fill="#E32328"/>
<path d="M64.9857 40.4226C64.6152 40.7889 64.1768 41.084 63.6747 41.3006C63.1747 41.5215 62.6366 41.633 62.0729 41.633C61.5082 41.633 60.9721 41.5215 60.47 41.3006C59.969 41.084 59.5306 40.7889 59.159 40.4226C58.7896 40.0541 58.4914 39.6146 58.2748 39.1155C58.054 38.6176 57.9404 38.0803 57.9404 37.5218C57.9404 36.9602 58.054 36.425 58.2748 35.9239C58.4914 35.4248 58.7896 34.9895 59.159 34.62C59.5306 34.2548 59.969 33.9586 60.47 33.7398C61.4731 33.3003 62.6716 33.3003 63.6747 33.7398C64.1768 33.9586 64.6152 34.2548 64.9857 34.62C65.3551 34.9895 65.6534 35.427 65.8689 35.9239C66.0907 36.4229 66.199 36.9602 66.199 37.5218C66.199 38.0814 66.0907 38.6176 65.8689 39.1155C65.6534 39.6146 65.3551 40.0541 64.9857 40.4226Z" fill="#E32328"/>
<path d="M66.2045 37.5207C66.2045 38.0781 66.0909 38.6153 65.869 39.1133C65.6535 39.6123 65.3553 40.0519 64.9858 40.4161C64.6154 40.7856 64.177 41.0818 63.6749 41.2984C63.1749 41.5193 62.6357 41.6297 62.0731 41.6297C61.5083 41.6297 60.9712 41.5193 60.4691 41.2984C59.9691 41.0818 59.5297 40.7856 59.1581 40.4161C58.7898 40.0519 58.4905 39.6123 58.275 39.1133C58.0542 38.6153 57.9417 38.0781 57.9417 37.5207C57.9417 36.959 58.0542 36.4207 58.275 35.9217C58.4905 35.4237 58.7898 34.9873 59.1581 34.6178C59.5297 34.2526 59.9691 33.9563 60.4691 33.7376C61.4733 33.298 62.6718 33.298 63.6749 33.7376C64.177 33.9563 64.6186 34.2526 64.9858 34.6178C65.3553 34.9873 65.6535 35.4248 65.869 35.9217C66.0909 36.4207 66.2045 36.959 66.2045 37.5207ZM68.94 37.5207V26.0547C68.0823 25.5483 67.1662 25.1352 66.2045 24.8252V32.3467L66.0007 32.1588C65.783 31.9624 65.5219 31.7691 65.2247 31.5992C64.9232 31.424 64.5963 31.2669 64.2534 31.131C63.9063 30.9983 63.5454 30.8889 63.1749 30.8072C62.8087 30.7233 62.4393 30.6808 62.0731 30.6808C61.1156 30.6808 60.2122 30.8624 59.3864 31.2202C58.5552 31.5791 57.8228 32.0696 57.2092 32.679C56.5988 33.2874 56.1074 34.0158 55.7475 34.8408C55.3855 35.6679 55.2051 36.5704 55.2051 37.5207C55.2051 38.4688 55.3855 39.3703 55.7475 40.1952C56.1074 41.0192 56.5988 41.7507 57.2092 42.357C57.8228 42.9654 58.5552 43.4602 59.3864 43.8158C60.2122 44.1758 61.1156 44.3552 62.0731 44.3552C63.0295 44.3552 63.9339 44.18 64.764 43.8286C65.5941 43.4793 66.3255 42.9951 66.9433 42.3846C67.5674 41.7751 68.06 41.0478 68.4071 40.2207C68.7648 39.3968 68.94 38.4869 68.94 37.5207Z" fill="white"/>
<path d="M37.7814 0C30.3317 0 24.2864 6.01487 24.2864 13.4355C24.2864 20.8562 30.3317 26.8721 37.7814 26.8721C45.2374 26.8721 51.2785 20.8562 51.2785 13.4355C51.2785 6.01487 45.2374 0 37.7814 0Z" fill="#E32328"/>
<path d="M41.5783 15.0356C41.3638 15.5346 41.0634 15.9753 40.6951 16.3405C40.3267 16.71 39.8851 17.0062 39.383 17.2271C38.882 17.4479 38.3449 17.5594 37.7812 17.5594C37.2218 17.5594 36.6794 17.4479 36.1805 17.2271C35.6826 17.0062 35.2389 16.71 34.8684 16.3405C34.5033 15.9721 34.2061 15.5346 33.9842 15.0356C33.7634 14.5344 33.6541 13.9972 33.6541 13.4334C33.6541 12.8728 33.7634 12.3313 33.9842 11.8333C34.2061 11.3322 34.5033 10.8947 34.8684 10.5263C35.2389 10.1579 35.6826 9.85952 36.1805 9.64079C36.6794 9.42101 37.2218 9.31165 37.7812 9.31165C38.3449 9.31165 38.882 9.42101 39.383 9.64079C39.8851 9.85952 40.3267 10.1579 40.6951 10.5263C41.0634 10.8947 41.3638 11.3322 41.5783 11.8333C42.0209 12.8356 42.0209 14.0333 41.5783 15.0356ZM42.6451 8.59496C42.0315 7.97595 41.3001 7.48117 40.4732 7.1223C39.6421 6.76342 38.7398 6.58398 37.7812 6.58398C36.828 6.58398 35.9225 6.76342 35.0956 7.1223C34.2644 7.48223 33.532 7.97701 32.9237 8.59496C32.3081 9.20972 31.8166 9.94127 31.4557 10.7726C31.1001 11.5966 30.9143 12.4948 30.9143 13.4461C30.9143 14.3975 31.1001 15.2989 31.4557 16.1228C31.8166 16.951 32.3081 17.6794 32.9237 18.2867C33.532 18.8951 34.2644 19.3846 35.0956 19.7445C35.9268 20.1023 36.828 20.2849 37.7812 20.2849C38.7398 20.2849 39.6421 20.1023 40.4732 19.7445C41.3001 19.3846 42.0315 18.8951 42.6451 18.2867C43.2554 17.6762 43.7469 16.951 44.1078 16.1228C44.4688 15.2957 44.6492 14.3975 44.6492 13.4461C44.6492 12.4948 44.4688 11.5966 44.1078 10.7726C43.7469 9.94446 43.2554 9.20972 42.6451 8.59496Z" fill="white"/>
<path d="M62.073 0C54.618 0 48.5769 6.01487 48.5769 13.4355C48.5769 20.8562 54.618 26.8721 62.073 26.8721C69.5237 26.8721 75.5637 20.8562 75.5637 13.4355C75.5637 6.01487 69.5237 0 62.073 0Z" fill="#E32328"/>
<path d="M65.869 15.0356C65.6482 15.5346 65.351 15.9753 64.9858 16.3405C64.6154 16.71 64.177 17.0062 63.6749 17.2271C63.1749 17.4479 62.6367 17.5594 62.0731 17.5594C61.5083 17.5594 60.9723 17.4479 60.4702 17.2271C59.9691 17.0062 59.5254 16.71 59.1592 16.3405C58.7898 15.9721 58.4915 15.5346 58.275 15.0356C58.0542 14.5344 57.9417 13.9972 57.9417 13.4334C57.9417 12.8728 58.0542 12.3313 58.275 11.8333C58.4915 11.3322 58.7898 10.8947 59.1592 10.5263C59.5254 10.1579 59.9691 9.85952 60.4702 9.64079C60.9723 9.42101 61.5083 9.31165 62.0731 9.31165C62.6367 9.31165 63.1749 9.42101 63.6749 9.64079C64.177 9.85952 64.6154 10.1579 64.9858 10.5263C65.351 10.8947 65.6482 11.3322 65.869 11.8333C66.3127 12.8356 66.3127 14.0333 65.869 15.0356ZM66.9316 8.59496C66.3223 7.97595 65.5909 7.48117 64.7597 7.1223C63.9339 6.76342 63.0295 6.58398 62.0731 6.58398C61.1156 6.58398 60.2133 6.76342 59.3864 7.1223C58.5552 7.48223 57.8238 7.97701 57.2092 8.59496C56.5999 9.20972 56.1074 9.94127 55.7475 10.7726C55.3855 11.5966 55.2051 12.4948 55.2051 13.4461C55.2051 14.3975 55.3855 15.2989 55.7475 16.1228C56.1074 16.951 56.5999 17.6794 57.2092 18.2867C57.8238 18.8951 58.5552 19.3846 59.3864 19.7445C60.2133 20.1023 61.1156 20.2849 62.0731 20.2849C63.0263 20.2849 63.9339 20.1023 64.7597 19.7445C65.5909 19.3846 66.3223 18.8951 66.9358 18.2867C67.5441 17.6762 68.0366 16.951 68.3986 16.1228C68.7606 15.2957 68.94 14.3975 68.94 13.4461C68.94 12.4948 68.7606 11.5966 68.3986 10.7726C68.0366 9.94446 67.5441 9.20972 66.9316 8.59496Z" fill="white"/>
<path d="M13.495 48.3662C6.04106 48.3662 0 54.3843 0 61.8007C0 69.2234 6.04106 75.2383 13.495 75.2383C20.9447 75.2383 26.9868 69.2234 26.9868 61.8007C26.9868 54.3843 20.9447 48.3662 13.495 48.3662Z" fill="#E32328"/>
<path d="M17.2921 63.4069C17.0713 63.9059 16.7751 64.3465 16.4036 64.7139C16.0363 65.0823 15.5947 65.3786 15.0926 65.5994C14.5979 65.8171 14.0544 65.9296 13.495 65.9296C12.9303 65.9317 12.3889 65.8171 11.889 65.5994C11.3911 65.3786 10.9485 65.0823 10.578 64.7139C10.2139 64.3444 9.91455 63.9038 9.69376 63.4069C9.47615 62.9057 9.36363 62.3663 9.36363 61.8036C9.36363 61.2419 9.47615 60.7036 9.69376 60.2046C9.91455 59.7056 10.2139 59.2671 10.578 58.8954C10.9485 58.5259 11.3911 58.2297 11.889 58.0131C12.3889 57.7923 12.9303 57.6818 13.495 57.6818C14.0544 57.6818 14.5979 57.7923 15.0926 58.0089C15.5947 58.2297 16.0363 58.5302 16.4036 58.8954C16.7751 59.2649 17.0713 59.7056 17.2921 60.2046C17.7305 61.2058 17.7305 62.4024 17.2921 63.4069ZM18.3536 56.9652C17.74 56.3472 17.0086 55.8524 16.1828 55.4957C15.3559 55.1379 14.4483 54.9531 13.495 54.9531C12.5375 54.9531 11.631 55.1379 10.8041 55.4957C9.97293 55.8524 9.24261 56.3472 8.63224 56.9652C8.02294 57.582 7.52615 58.3136 7.17054 59.1418C6.80857 59.9657 6.6228 60.8671 6.6228 61.8174C6.6228 62.7666 6.80857 63.6681 7.16417 64.493C7.52615 65.3223 8.01869 66.0475 8.63224 66.6569C9.24261 67.2674 9.97293 67.7569 10.8041 68.1158C11.6363 68.4725 12.5375 68.6562 13.4908 68.6562C14.4483 68.6562 15.3506 68.4725 16.1828 68.1158C17.0139 67.7569 17.7453 67.2674 18.3536 66.6569C18.9682 66.0475 19.4554 65.3223 19.8216 64.493C20.1772 63.6681 20.363 62.7687 20.363 61.8174C20.363 60.8671 20.1772 59.9657 19.8216 59.1418C19.4554 58.3136 18.9639 57.582 18.3536 56.9652Z" fill="white"/>
<path d="M37.7814 48.3662C30.3317 48.3662 24.2864 54.3843 24.2864 61.8007C24.2864 69.2234 30.3317 75.2383 37.7814 75.2383C45.2374 75.2383 51.2785 69.2234 51.2785 61.8007C51.2785 54.3843 45.2374 48.3662 37.7814 48.3662Z" fill="#E32328"/>
<path d="M41.5783 63.4069C41.3638 63.9059 41.0634 64.3465 40.6951 64.7139C40.3267 65.0823 39.8851 65.3786 39.383 65.5994C38.882 65.8171 38.3449 65.9296 37.7812 65.9296C37.2218 65.9317 36.6794 65.8171 36.1805 65.5994C35.6826 65.3786 35.2389 65.0823 34.8684 64.7139C34.5033 64.3444 34.2061 63.9038 33.9842 63.4069C33.7634 62.9057 33.6541 62.3663 33.6541 61.8036C33.6541 61.2419 33.7634 60.7036 33.9842 60.2046C34.2061 59.7056 34.5033 59.2671 34.8684 58.8954C35.2389 58.5259 35.6826 58.2297 36.1805 58.0131C36.6794 57.7923 37.2218 57.6818 37.7812 57.6818C38.3449 57.6818 38.882 57.7923 39.383 58.0089C39.8851 58.2297 40.3267 58.5302 40.6951 58.8954C41.0634 59.2649 41.3638 59.7056 41.5783 60.2046C42.0209 61.2058 42.0209 62.4024 41.5783 63.4069ZM42.6408 56.9652C42.0315 56.3472 41.3001 55.8524 40.4732 55.4957C39.6421 55.1379 38.7398 54.9531 37.7812 54.9531C36.828 54.9531 35.9225 55.1379 35.0956 55.4957C34.2644 55.8524 33.532 56.3472 32.9237 56.9652C32.3081 57.582 31.8166 58.3136 31.4557 59.1418C31.1001 59.9657 30.9143 60.8671 30.9143 61.8174C30.9143 62.7666 31.1001 63.6681 31.4557 64.493C31.8166 65.3223 32.3081 66.0475 32.9237 66.6569C33.532 67.2674 34.2644 67.7569 35.0956 68.1158C35.9268 68.4725 36.828 68.6562 37.7812 68.6562C38.7398 68.6562 39.6421 68.4725 40.4732 68.1158C41.3001 67.7569 42.0315 67.2674 42.6451 66.6569C43.2554 66.0475 43.7469 65.3223 44.1078 64.493C44.4688 63.6681 44.6492 62.7687 44.6492 61.8174C44.6492 60.8671 44.4688 59.9657 44.1078 59.1418C43.7469 58.3136 43.2554 57.582 42.6408 56.9652Z" fill="white"/>
<path d="M62.073 48.3662C54.618 48.3662 48.5769 54.3843 48.5769 61.8007C48.5769 69.2213 54.618 75.2383 62.073 75.2383C69.528 75.2383 75.5637 69.2213 75.5637 61.8007C75.5637 54.3843 69.528 48.3662 62.073 48.3662Z" fill="#E32328"/>
<path d="M13.495 0C6.04106 0 0 6.01487 0 13.4345C0 20.8562 6.04106 26.8721 13.495 26.8721C20.9447 26.8721 26.9868 20.8562 26.9868 13.4345C26.9868 6.01487 20.9447 0 13.495 0Z" fill="#E32328"/>
<path d="M13.4908 24.1875C6.04106 24.1875 0 30.2024 0 37.623C0 45.0415 6.04106 51.0575 13.4908 51.0575C20.9458 51.0575 26.9868 45.0415 26.9868 37.623C26.9868 30.2024 20.9458 24.1875 13.4908 24.1875Z" fill="#E32328"/>
<path d="M16.4247 34.6668C16.792 35.0342 17.0903 35.4717 17.3111 35.9696C17.4321 36.2499 17.5181 36.5483 17.5722 36.8498H20.3438C20.2738 36.1639 20.105 35.5046 19.8396 34.8888C19.4776 34.0627 18.9819 33.3354 18.3715 32.7259C17.758 32.1176 17.0298 31.6281 16.1997 31.2681C15.3685 30.9093 14.4662 30.7256 13.5077 30.7256C12.5566 30.7256 11.6479 30.904 10.821 31.2543C9.99197 31.6058 9.25634 32.0931 8.63642 32.7026C8.01862 33.311 7.52607 34.0383 7.17471 34.8654C6.82229 35.6883 6.64502 36.5971 6.64502 37.5665V44.0592H9.38266V37.3775H9.39115C9.4145 36.8859 9.51747 36.4134 9.71173 35.9696C9.93358 35.4717 10.2319 35.0342 10.6023 34.6668C10.9675 34.3005 11.4048 34.0022 11.9069 33.7835C12.9079 33.3471 14.1106 33.3471 15.1169 33.7835C15.6169 34.0022 16.0553 34.3005 16.4247 34.6668Z" fill="white"/>
<path d="M37.7814 24.1875C30.3317 24.1875 24.2864 30.2024 24.2864 37.623C24.2864 45.0415 30.3317 51.0575 37.7814 51.0575C45.2374 51.0575 51.2785 45.0415 51.2785 37.623C51.2785 30.2024 45.2374 24.1875 37.7814 24.1875Z" fill="#E32328"/>
<path d="M34.1373 35.3106L34.2509 35.127C34.9197 34.0387 36.1117 33.4579 37.7911 33.408H37.7985C39.4481 33.425 40.621 34.0047 41.294 35.1291L41.4023 35.3106H34.1373ZM44.1474 35.093C43.8173 34.2489 43.3576 33.4982 42.7717 32.8548C42.1846 32.2124 41.4607 31.6943 40.6263 31.3099C39.7856 30.9277 38.8313 30.7334 37.7719 30.7334C36.8166 30.7334 35.9122 30.9139 35.0821 31.2728C34.2509 31.6316 33.5206 32.1222 32.906 32.7306C32.2914 33.34 31.7999 34.0652 31.4432 34.8913C31.0855 35.7184 30.905 36.6166 30.905 37.5701C30.905 38.5214 31.0855 39.4218 31.4432 40.2478C31.7999 41.0718 32.2914 41.8001 32.906 42.4096C33.5206 43.018 34.2509 43.5085 35.0821 43.8663C35.9122 44.2273 36.8166 44.4089 37.7719 44.4089C38.4725 44.4089 39.1859 44.3101 39.8854 44.1179C40.5807 43.9268 41.2357 43.6179 41.8418 43.2016C42.4415 42.7854 42.984 42.2365 43.4521 41.5687C43.8958 40.938 44.2663 40.1661 44.5444 39.2763H41.5286C41.2272 39.9941 40.759 40.5749 40.1306 41.007C39.4767 41.4551 38.6848 41.6812 37.7719 41.6812C37.2263 41.6812 36.7019 41.5803 36.2115 41.3775C35.719 41.1769 35.2806 40.8998 34.9144 40.5483C34.545 40.199 34.2424 39.7828 34.011 39.3092C33.7817 38.8357 33.6597 38.3229 33.6427 37.7782L33.6374 37.6529H44.6612C44.6304 36.7599 44.4584 35.901 44.1474 35.093Z" fill="white"/>
</svg>
