<svg width="154" height="50" viewBox="0 0 154 50" fill="none" xmlns="http://www.w3.org/2000/svg">
<path d="M7.07831 49.8775C10.771 49.8775 13.7645 46.9143 13.7645 43.2591C13.7645 39.6038 10.771 36.6406 7.07831 36.6406C3.38561 36.6406 0.39209 39.6038 0.39209 43.2591C0.39209 46.9143 3.38561 49.8775 7.07831 49.8775Z" fill="#7856FF"/>
<path d="M31.2145 48.0129C33.8264 48.0129 35.9437 45.917 35.9437 43.3316C35.9437 40.7463 33.8264 38.6504 31.2145 38.6504C28.6027 38.6504 26.4854 40.7463 26.4854 43.3316C26.4854 45.917 28.6027 48.0129 31.2145 48.0129Z" fill="#7856FF"/>
<path d="M51.1104 45.4566C52.2962 45.4566 53.2575 44.5051 53.2575 43.3314C53.2575 42.1576 52.2962 41.2061 51.1104 41.2061C49.9246 41.2061 48.9634 42.1576 48.9634 43.3314C48.9634 44.5051 49.9246 45.4566 51.1104 45.4566Z" fill="#7856FF"/>
<path d="M29.9408 29.392C28.7652 29.392 27.8945 28.4872 27.8945 27.3664V18.7467C27.8945 15.7732 26.4579 13.489 23.2359 13.489C20.014 13.489 18.0549 15.9455 18.0549 18.7902V27.3664C18.0549 28.4872 17.271 29.392 16.0085 29.392C14.7893 29.392 13.9622 28.4872 13.9622 27.3664V18.7467C13.9622 15.7732 12.3948 13.489 9.17257 13.489C5.86373 13.489 4.12227 15.9455 4.12227 18.7902V27.3664C4.12227 28.4872 3.29514 29.392 2.07593 29.392C0.900328 29.392 0.0292969 28.4872 0.0292969 27.3664V12.0667C0.0292969 10.8601 0.813135 9.99821 2.07563 9.99821C3.46892 9.99821 4.12197 10.9461 4.12197 12.0667V13.4458C5.29758 11.1616 7.69209 9.82559 10.261 9.82559C13.3957 9.82559 15.7469 11.3771 16.9226 13.6613C18.6204 11.0756 21.1021 9.82559 24.1933 9.82559C29.4616 9.82559 31.9869 13.403 31.9869 18.4452V27.3658C31.9869 28.4869 31.16 29.3917 29.9408 29.3917V29.392ZM37.7344 2.32679C39.0405 2.32679 40.1289 3.40417 40.1289 4.69702C40.1289 5.98988 39.0405 7.06726 37.7344 7.06726C36.4283 7.06726 35.3396 5.98988 35.3396 4.69702C35.3396 3.40417 36.428 2.32679 37.7344 2.32679ZM37.7344 29.3923C36.5152 29.3923 35.6881 28.4875 35.6881 27.3664V12.0235C35.6881 10.903 36.5588 9.99792 37.7344 9.99792C38.91 9.99792 39.7807 10.903 39.7807 12.0235V27.3664C39.7801 28.4872 38.9533 29.392 37.7344 29.392V29.3923ZM51.3176 16.9798L56.4987 10.6015C56.8469 10.2134 57.2825 9.99792 57.8487 9.99792C58.9804 9.99792 59.7206 10.7307 59.7206 11.7652C59.7206 12.153 59.5899 12.5408 59.2417 12.9289L53.538 19.6521L59.3289 26.4179C59.6334 26.7628 59.8075 27.1074 59.8075 27.6247C59.8075 28.6167 58.9368 29.3917 57.9789 29.3917C57.3694 29.3917 56.8905 29.1762 56.5423 28.7446L51.3176 22.3238L46.0929 28.7446C45.7445 29.1753 45.2658 29.3917 44.656 29.3917C43.6981 29.3917 42.8274 28.6155 42.8274 27.6247C42.8274 27.1074 43.0018 26.7628 43.3063 26.4179L49.0972 19.6518L43.3935 12.9289C43.0451 12.5405 42.9146 12.153 42.9146 11.7652C42.9146 10.731 43.6548 9.99821 44.7868 9.99821C45.3527 9.99821 45.7881 10.214 46.1365 10.6018L51.3176 16.9798ZM73.6529 29.5646C70.7359 29.5646 68.3414 28.0568 66.9481 25.8586V35.4262C66.9481 36.547 66.1209 37.4512 64.9017 37.4512C63.6825 37.4512 62.8554 36.5467 62.8554 35.4262V12.0235C62.8554 10.903 63.552 9.99792 64.8145 9.99792C66.0773 9.99792 66.8176 10.9461 66.8176 12.0667V13.5327C68.1237 11.2917 70.7359 9.82619 73.6529 9.82619C78.6599 9.82619 82.7526 13.9631 82.7526 19.6955C82.7526 25.6426 78.6599 29.5646 73.6529 29.5646ZM72.8261 13.1875C69.2993 13.1875 66.9484 16.247 66.9484 19.6952C66.9484 23.1437 69.2996 26.203 72.8264 26.203C76.3529 26.203 78.6599 23.5744 78.6599 19.6952C78.6599 15.8167 76.3523 13.1875 72.8261 13.1875ZM104.348 27.3664C104.348 28.4872 103.564 29.392 102.302 29.392C101.082 29.392 100.3 28.4872 100.3 27.3664V26.4181C99.0803 28.2283 96.7727 29.5646 93.9434 29.5646C87.8468 29.5646 84.3209 25.169 84.3209 19.6949C84.3209 14.308 88.2401 9.82589 94.3785 9.82589C100.648 9.82589 104.349 13.8768 104.349 19.6949V27.3664H104.348ZM94.334 13.2735C90.8508 13.2735 88.4124 16.1616 88.4124 19.6949C88.4124 23.4015 90.4587 26.1167 94.334 26.1167C97.9474 26.1167 100.255 23.0565 100.255 19.6949C100.255 15.7301 97.8172 13.2735 94.334 13.2735ZM116.67 9.82619C121.938 9.82619 125.812 13.7914 125.812 18.8336V27.3667C125.813 27.6328 125.76 27.8964 125.657 28.1423C125.555 28.3882 125.404 28.6117 125.214 28.7998C125.024 28.988 124.798 29.1372 124.55 29.2389C124.301 29.3405 124.035 29.3926 123.766 29.3923C123.497 29.3926 123.231 29.3405 122.982 29.2388C122.734 29.1371 122.508 28.9879 122.318 28.7998C122.128 28.6116 121.977 28.3882 121.875 28.1422C121.772 27.8963 121.719 27.6328 121.72 27.3667V18.3592C121.72 15.644 119.543 13.5324 116.67 13.5324C113.796 13.5324 111.662 15.6434 111.662 18.3592V27.3667C111.663 27.6328 111.61 27.8964 111.507 28.1423C111.405 28.3882 111.254 28.6117 111.064 28.7998C110.874 28.988 110.648 29.1372 110.4 29.2389C110.151 29.3405 109.885 29.3926 109.616 29.3923C109.347 29.3926 109.081 29.3405 108.832 29.2388C108.584 29.1371 108.358 28.9879 108.168 28.7998C107.978 28.6116 107.827 28.3882 107.725 28.1422C107.622 27.8963 107.569 27.6328 107.57 27.3667V18.8333C107.57 13.7911 111.401 9.82619 116.67 9.82619ZM147.103 19.7381C147.103 20.4277 146.711 21.1173 145.536 21.1173H132.518C132.735 24.0911 134.781 26.3315 138.395 26.3315C140.659 26.3315 142.009 25.5556 143.445 24.2199C143.794 23.8753 144.273 23.5729 144.795 23.5729C145.709 23.5729 146.493 24.2199 146.493 25.2539C146.493 25.6842 146.275 26.0723 145.971 26.417C144.317 28.3134 141.355 29.5637 138.221 29.5637C131.733 29.5637 128.293 25.0809 128.293 19.6937C128.293 14.0479 132.43 9.8247 138.046 9.8247C143.533 9.82619 147.103 14.2217 147.103 19.7384V19.7381ZM138.047 13.0586C135.043 13.0586 132.996 15.1696 132.605 17.8426H143.315C142.967 15.2559 141.007 13.0586 138.047 13.0586H138.047ZM151.892 29.392C150.672 29.392 149.845 28.4872 149.845 27.3664V2.02559C149.845 0.904464 150.673 0 151.892 0C153.111 0 153.938 0.904464 153.938 2.02559V27.3664C153.938 28.4872 153.111 29.392 151.892 29.392Z" fill="#7856FF"/>
</svg>
