<svg width="70" height="74" viewBox="0 0 70 74" fill="none" xmlns="http://www.w3.org/2000/svg">
<g clip-path="url(#clip0_532_10350)">
<path d="M58.6339 52.3759L52.4005 48.3284L47.2004 56.879L41.1525 55.1383L35.8273 63.1393L36.1003 65.6579L65.0537 60.4063L63.372 42.5979L58.6339 52.3759ZM31.6326 44.6978L36.2779 44.069C37.0295 44.4015 37.5528 44.5281 38.454 44.7538C39.8575 45.1139 41.4824 45.4593 43.8886 44.2654C44.4486 43.9924 45.6149 42.9424 46.0865 42.3438L65.1193 38.9449L67.0609 62.0773L34.4544 67.8621L31.6326 44.6978ZM66.9874 36.3626L65.1088 36.7149L61.4995 0.00585938L0 7.02586L7.57653 67.5512L14.7751 66.5227C14.2002 65.7148 13.3051 64.7371 11.7765 63.4856C9.65638 61.7517 10.4062 58.8067 11.6566 56.9471C13.3112 53.8049 21.8362 49.8117 21.3532 44.7891C21.18 42.9631 20.8851 40.5858 19.1631 38.9569C19.0984 39.6331 19.2148 40.2843 19.2148 40.2843C19.2148 40.2843 18.5078 39.3962 18.1551 38.1852C17.8052 37.7209 17.5304 37.5728 17.1585 36.9526C16.8934 37.6701 16.9284 38.5022 16.9284 38.5022C16.9284 38.5022 16.35 37.1567 16.2564 36.0215C15.9134 36.5297 15.8268 37.4952 15.8268 37.4952C15.8268 37.4952 15.0752 35.3746 15.2467 34.2324C14.9037 33.2384 13.887 31.266 14.1748 26.7826C16.0517 28.0772 20.1834 27.7697 21.7934 25.4338C22.328 24.6603 22.6937 22.5482 21.5265 18.3871C20.7766 15.7186 18.9199 11.7452 18.1963 10.2378L18.1096 10.299C18.4911 11.5135 19.2778 14.0596 19.5796 15.2939C20.4931 19.0382 20.7381 20.3415 20.3094 22.0676C19.9445 23.5681 19.0695 24.55 16.8514 25.6474C14.6333 26.7482 11.6899 24.0694 11.5035 23.9212C9.34838 22.2313 7.68153 19.4741 7.49516 18.1347C7.30178 16.6687 8.35352 15.7884 8.88376 14.5894C8.12515 14.803 7.27903 15.182 7.27903 15.182C7.27903 15.182 8.28877 14.1535 9.53388 13.2637C10.0492 12.9278 10.352 12.7142 10.8954 12.2698C10.1087 12.2568 9.47001 12.2792 9.47001 12.2792C9.47001 12.2792 10.7816 11.5815 12.1413 11.0733C11.1465 11.0303 10.1945 11.0664 10.1945 11.0664C10.1945 11.0664 13.1213 9.77787 15.4331 8.83211C17.0229 8.1904 18.576 8.3799 19.4484 9.62196C20.5937 11.2491 21.7969 12.1328 24.3466 12.6806C25.9119 11.9976 26.3879 11.6461 28.3549 11.119C30.0865 9.24469 31.4462 9.00179 31.4462 9.00179C31.4462 9.00179 30.7716 9.61077 30.5914 10.5677C31.5731 9.80629 32.6493 9.17062 32.6493 9.17062C32.6493 9.17062 32.2328 9.67709 31.8444 10.4816L31.9345 10.6134C33.0798 9.93722 34.4264 9.40404 34.4264 9.40404C34.4264 9.40404 34.0415 9.88295 33.59 10.5031C34.4536 10.4962 36.2053 10.5393 36.8852 10.6151C40.8987 10.7021 41.7317 6.39535 43.2717 5.85528C45.2002 5.1774 46.062 4.7674 49.3485 7.94492C52.1686 10.6728 54.3718 15.5558 53.2781 16.6497C52.3611 17.5576 50.5516 16.2957 48.5461 13.8348C47.4865 12.5316 46.685 10.9915 46.3097 9.03366C45.9929 7.38159 44.7601 6.42291 44.7601 6.42291C44.7601 6.42291 45.4758 7.98885 45.4758 9.37217C45.4758 10.1276 45.572 12.9519 46.8023 14.5368C46.6807 14.7685 46.6238 15.6833 46.489 15.8581C45.0576 14.1552 41.9837 12.9364 41.4824 12.5773C43.179 13.9459 47.0788 17.0899 48.5768 20.1029C49.9934 22.9522 49.1586 25.5638 49.8753 26.24C50.0791 26.4338 52.922 29.9205 53.4688 31.6725C54.4226 34.726 53.5257 37.9345 52.2771 39.9251L48.7903 40.46C48.2801 40.3205 47.9363 40.2507 47.4787 39.9897C47.7307 39.5504 48.232 38.4548 48.2373 38.2291L48.0404 37.8889C46.9554 39.4023 45.1372 40.8717 43.627 41.7158C41.6504 42.8184 39.3719 42.6487 37.8888 42.1965C33.6792 40.9182 29.6989 38.118 28.739 37.3824C28.739 37.3824 28.7093 37.9698 28.8904 38.1016C29.9518 39.2799 32.3833 41.4118 34.7336 42.8976L29.7234 43.4403L32.092 61.5958C31.042 61.7439 30.8784 61.8163 29.7286 61.9774C28.7154 58.4536 26.7773 56.1529 24.6589 54.8127C22.7908 53.6309 20.214 53.3647 17.7474 53.8454L17.589 54.0262C19.304 53.8505 21.3287 54.0952 23.4086 55.3915C25.4499 56.662 27.0949 59.9437 27.7004 61.9197C28.4756 64.4451 29.012 67.1463 26.9252 70.0094C25.4403 72.0448 21.1056 73.1697 17.6039 70.7364C18.5393 72.2171 19.8036 73.4281 21.5055 73.6564C24.0324 73.994 26.4308 73.5625 28.0819 71.8941C29.4915 70.4677 30.2387 67.4848 30.0419 64.3435L32.2722 64.0248L33.0772 69.6632L70 65.2867L66.9874 36.3626ZM44.5238 21.0503C44.4206 21.2821 44.2587 21.4337 44.5019 22.1873L44.5168 22.2304L44.5553 22.3277L44.6568 22.5534C45.0952 23.4354 45.5764 24.2675 46.3805 24.6921C46.5888 24.6577 46.804 24.6344 47.0272 24.6232C47.7823 24.5905 48.2591 24.7085 48.5619 24.8687C48.589 24.7206 48.5951 24.5035 48.5785 24.1839C48.5199 23.0668 48.8034 21.1666 46.622 20.1666C45.7987 19.7902 44.6437 19.9065 44.2587 20.3759C44.3287 20.3845 44.3917 20.3992 44.4407 20.4155C45.0226 20.6162 44.6279 20.8135 44.5238 21.0503ZM50.6374 31.4744C50.3512 31.3194 49.0143 31.3805 48.0745 31.4908C46.2843 31.6983 44.3514 32.3099 43.928 32.6355C43.158 33.2212 43.508 34.2428 44.0767 34.6623C45.6718 35.8354 47.07 36.6218 48.5461 36.4306C49.4526 36.3135 50.2515 34.9008 50.8176 33.6192C51.2052 32.7363 51.2052 31.7836 50.6374 31.4744ZM34.7878 22.4337C35.2927 21.9617 32.2731 21.3415 29.9299 22.9143C28.2018 24.0745 28.1466 26.5621 29.8013 27.9722C29.9666 28.1117 30.1031 28.2107 30.2309 28.2917C30.7139 28.0678 31.2642 27.8412 31.8977 27.6388C32.9678 27.2969 33.8577 27.1203 34.5892 27.0264C34.9392 26.6414 35.3461 25.9635 35.2446 24.7361C35.1063 23.0711 33.8245 23.3355 34.7878 22.4337Z" fill="#632CA6"/>
</g>
<defs>
<clipPath id="clip0_532_10350">
<rect width="70" height="74" fill="white"/>
</clipPath>
</defs>
</svg>
