<svg width="63" height="97" viewBox="0 0 63 97" fill="none" xmlns="http://www.w3.org/2000/svg">
<path d="M31.3846 15.3278L22.6154 41.1792H40.1538L31.3846 15.3278ZM31.3846 0C38.0769 0 40.1538 4.80424 42 9.37972L60.6923 59.7099C60.9231 60.1675 60.6923 60.8538 60.2308 61.0825L49.8461 64.9717C49.3846 65.2005 48.6923 64.9717 48.6923 64.2854L44.3077 52.6179H18.4615L14.0769 64.5142C13.8462 64.9717 13.3846 65.2005 12.9231 65.2005L2.76923 61.3113C2.30769 61.0825 2.07693 60.625 2.30769 59.9387L21 9.60849C22.6154 4.80424 24.6923 0 31.3846 0ZM0.923077 83.9599C0.461539 83.9599 0 84.4174 0 84.875V96.0849C0 96.5424 0.461539 97 0.923077 97H62.0769C62.5385 97 63 96.5424 63 96.0849V85.1038C63 84.6462 62.5385 84.1887 62.0769 84.1887H0.923077V83.9599Z" fill="#EF002F"/>
</svg>
