<svg width="76" height="93" viewBox="0 0 76 93" fill="none" xmlns="http://www.w3.org/2000/svg">
<path d="M46.4661 0.0317561L75.2829 0L26.9361 48.322L14.3361 60.8516L0 46.4978L46.4661 0.0317561ZM46.1979 43.1776C46.5719 42.6836 47.26 42.9271 47.7822 42.8635L75.2582 42.8706L50.2168 67.8873L35.8067 53.5653L46.1979 43.1776Z" fill="#44D1FD"/>
<path d="M21.4424 67.9111L35.8067 53.5645L50.2169 67.8864L50.2768 67.9499L35.8102 82.2825L21.4424 67.9111Z" fill="#1FBCFD"/>
<path d="M35.8103 82.2827L50.2769 67.9502L75.2689 92.9669C65.855 92.988 56.4446 92.9598 47.0343 92.981C46.498 93.1009 46.1663 92.6105 45.824 92.307L35.8103 82.2827Z" fill="#08589C"/>
</svg>
