<svg width="81" height="83" viewBox="0 0 81 83" fill="none" xmlns="http://www.w3.org/2000/svg">
<path d="M72.8584 18.3272C72.429 18.3272 71.814 18.3272 71.4755 17.6523C71.198 17.0986 71.2918 16.2059 70.7695 15.807C71.2918 15.96 71.844 15.96 72.2734 15.96C73.6573 15.96 74.9792 15.0073 75.9937 15.0073C76.6622 15.0073 76.8778 15.4381 76.8778 15.8671C76.8788 17.2215 74.1504 18.3272 72.8584 18.3272ZM73.5335 21.8011C76.7241 21.8011 79.6455 19.2499 79.6455 17.0066C79.6455 15.96 79.1524 15.1002 77.8932 14.9463C78.1079 15.2232 78.1998 15.4381 78.1998 15.93C78.1998 17.6214 75.6262 19.4967 72.8284 19.4967C71.814 19.4967 71.5065 20.2026 71.5065 20.5715C71.5065 21.4331 72.3372 21.8011 73.5335 21.8011ZM73.2888 23.0926C73.6891 26.0117 78.1079 29.9474 79.3052 29.8545C80.1059 29.7869 80.4125 26.0427 80.4125 23.0926C80.4125 21.4021 80.5053 20.0796 79.6137 19.7718C78.1989 22.6317 74.4879 23.2156 73.2888 23.0926Z" fill="#1766A6"/>
<path d="M4.17647 42.4293C5.21905 42.4293 5.00435 36.0344 6.69292 36.0344C7.09326 36.0344 7.21608 36.4343 7.21608 36.9261C7.21608 38.3707 6.50915 40.4929 6.50915 41.6596C6.50915 42.2444 6.66292 42.4293 6.9395 42.4293C7.67737 42.4293 8.96653 35.3887 10.2248 35.3887C10.6242 35.3887 10.8079 35.7885 10.8079 36.1884C10.8079 37.6639 8.93653 41.9055 8.93653 43.1042C8.93653 43.2891 8.99654 43.4421 9.15124 43.4421C9.91911 43.4421 11.4539 40.1231 11.9443 38.4636C12.2209 37.6019 12.5893 37.1401 12.9278 37.1401C13.2344 37.1401 13.5119 37.479 13.5119 38.1867C13.5119 39.8462 11.9752 43.7499 10.6242 46.364C9.58158 48.3924 7.95395 51.3105 7.95395 52.94C7.95395 53.7707 8.1049 54.6305 9.30312 55.6761C7.33797 55.5531 6.54009 55.3692 5.8041 53.8326C2.5179 60.3795 11.8524 59.7347 8.65901 65.542C8.0749 64.4992 3.47048 63.4226 3.47048 57.3365C3.47048 52.0802 8.0749 49.0062 8.0749 46.8249C8.0749 46.395 7.92302 46.0261 7.52361 45.6882C6.50915 44.8256 6.47821 44.1207 5.68034 44.1207C5.09811 44.1207 4.3893 45.4723 5.12717 46.6709C5.37375 47.0708 5.58846 47.3167 5.58846 47.6856C5.58846 48.5454 4.23648 50.8497 3.28578 50.8497C2.3332 50.8497 1.59814 48.4862 1.59814 44.6726C1.59814 41.2898 2.36414 37.8798 3.31672 37.8798C3.59236 37.8798 3.68425 38.0637 3.68425 38.3106C3.68425 38.7105 3.56236 39.5083 3.56236 40.8608C3.56236 42.3054 3.89989 42.4293 4.17647 42.4293Z" fill="#1766A6"/>
<path d="M12.0042 51.4314C13.2953 51.4314 14.3688 50.4768 14.3688 48.3593V45.2224C14.3688 44.0238 14.4616 42.6722 15.2604 41.7176C15.1676 42.1184 15.1676 42.5483 15.1676 42.9481C15.1676 45.5922 16.6405 47.4066 16.6405 49.9568C16.6405 50.9086 16.364 51.4323 15.6289 51.4323C14.922 51.4323 14.9838 50.7866 14.8291 50.7866C14.7073 50.7866 14.5226 51.1855 14.5226 51.6163C14.5226 52.2621 14.9829 53.2758 16.2721 53.2758C17.3784 53.2758 18.2672 52.2621 18.2672 51.1245C18.2672 48.3602 16.1183 45.2844 16.1183 42.3343C16.1183 41.0427 16.4558 40.1829 16.7324 39.5052C16.7324 45.6232 21.9209 50.0798 21.9209 52.63C21.9209 53.2148 21.4915 53.6766 20.8465 53.6766C20.1405 53.6766 19.802 53.1219 19.802 52.691C19.802 52.4761 19.7711 52.4151 19.6792 52.4151C19.4964 52.4151 18.9432 53.0299 18.9432 53.8305C18.9432 54.8433 19.7711 56.0748 21.3068 56.0748C23.0554 56.0748 24.008 54.5974 24.008 53.2758C24.008 50.0497 17.7141 45.1614 17.7141 39.937C17.7141 39.0444 17.8659 37.5998 18.5129 36.4941C14.4597 39.1054 13.2015 42.5802 13.2015 45.6232C13.2015 48.2673 13.1096 49.587 11.7586 49.587C11.0517 49.587 10.8679 48.9431 10.6213 48.9431C10.4375 48.9431 10.3447 49.496 10.3447 49.649C10.3466 50.7856 11.1764 51.4314 12.0042 51.4314Z" fill="#1766A6"/>
<path d="M58.5219 16.8219C58.9119 16.5601 60.6427 16.9749 62.8806 15.8674C63.1563 15.7162 63.4329 15.6543 63.6785 15.6543C64.7549 15.6543 64.4783 16.883 65.4618 16.883C66.2278 16.883 67.2132 16.2372 67.7973 16.2372C68.7124 16.2372 70.0334 19.1272 70.0334 20.4798C70.0334 22.0473 67.6735 23.0009 64.8777 23.0009C60.7964 23.0009 58.3372 19.4351 58.3372 17.1289C58.3381 16.9449 58.4309 16.883 58.5219 16.8219ZM65.2161 20.7257C66.5681 20.7257 67.5816 20.1109 67.5816 19.7411C67.5816 19.62 67.3979 19.5271 66.9975 19.5271C66.5981 19.5271 65.7993 19.497 64.2936 19.2502C63.0016 19.0352 62.019 18.5434 61.6505 18.5434C61.5277 18.5434 61.4658 18.6044 61.4658 18.6964C61.4658 19.497 62.9416 20.7257 65.2161 20.7257Z" fill="#1766A6"/>
<path d="M12.6502 63.0229C11.6376 63.2698 10.009 64.8654 10.009 67.3894C10.009 70.3995 13.2333 75.0429 18.5447 75.0429C23.0263 75.0429 24.1326 71.9379 24.1326 69.8457C24.1326 65.2052 21.2787 61.9463 17.564 61.9463C15.537 61.9463 13.7246 63.4218 13.7246 65.6032C13.7246 67.6344 15.2604 70.6764 18.9132 70.6764C20.6327 70.6764 21.6453 69.445 21.6453 68.0351C21.6453 66.6507 20.387 64.7462 18.5438 64.7462C17.9915 64.7462 17.5931 65.1113 17.5931 65.698C17.5931 66.4339 18.6047 67.1735 19.8648 67.1735C20.1705 67.1735 20.417 67.1115 20.5408 67.0496C20.6008 67.1444 20.6327 67.2964 20.6327 67.4194C20.6327 68.1271 19.9567 68.558 18.9132 68.558C17.3474 68.558 15.8426 67.3903 15.8426 65.5422C15.8426 64.4383 16.7952 63.6396 18.1762 63.6396C20.9083 63.6396 22.535 66.0669 22.535 68.497C22.535 70.6774 21.3396 71.9398 18.8822 71.9398C13.9693 71.9389 11.5767 67.5114 12.6502 63.0229Z" fill="#1766A6"/>
<path d="M47.6983 81.0317C49.1712 81.0317 49.0943 80.9088 49.5556 80.9088C50.015 80.9088 50.0469 81.1857 50.0469 81.3706C50.0469 82.0473 48.5411 82.8771 45.87 82.8771C44.3042 82.8771 43.3517 82.0464 43.076 81.1247C41.5412 82.1083 39.2085 83 36.9049 83C30.6119 83 29.0152 80.2621 27.0491 79.3732C25.5443 78.6964 23.2416 80.019 20.0173 76.4222C20.4477 76.5151 21.0318 76.5451 21.4921 76.5451C24.3152 76.5451 25.82 75.1644 25.82 72.9492C25.82 72.6714 25.789 72.3673 25.7581 72.0913C26.6188 72.4292 28.5849 73.9029 29.0462 76.5151C29.1062 76.8229 30.3644 77.0989 31.1632 77.0989C32.2695 77.0989 33.6815 76.6371 33.8962 74.8256C37.5809 74.5186 40.0692 72.3373 40.5914 69.5674C41.9097 69.9982 43.4145 71.1968 43.7829 71.8135C44.3052 71.6295 44.9183 71.5366 45.6243 71.5366C46.6069 71.5366 47.7133 71.7215 49.0324 72.1214C49.0943 71.7215 49.1552 71.2297 49.7703 71.2297C50.691 71.2297 50.4453 72.2443 50.7529 72.8253C50.9066 73.1332 51.6754 73.3172 51.6754 73.9329C51.6754 74.5186 51.1813 74.7345 50.8748 74.7345C50.7519 74.7345 50.5982 74.7035 50.5053 74.6735C49.8922 74.8884 49.8603 79.3122 47.282 79.3122C45.3796 79.3122 43.6292 77.7447 42.8604 75.7792C42.6457 75.1954 42.1853 74.8256 41.755 74.8256C41.2646 74.8256 40.988 74.9185 40.4058 75.5643C38.7482 77.3758 35.9842 78.9433 32.5761 78.9433C31.5317 78.9433 30.7029 78.8494 30.4872 78.8494C30.3635 78.8494 30.3635 78.8804 30.3635 78.9104C30.3635 79.1263 31.407 79.957 33.6797 79.957C39.0838 79.957 40.4049 76.9131 41.2637 76.9131C41.3884 76.9131 41.754 76.9131 41.9687 77.4058C43.2298 80.355 45.9787 81.0317 47.6983 81.0317ZM45.3178 74.8884C45.3178 75.5652 45.8709 76.119 46.5469 76.119C47.2229 76.119 47.7751 75.5652 47.7751 74.8884C47.7751 74.2108 47.2229 73.657 46.5469 73.657C45.8709 73.657 45.3178 74.2108 45.3178 74.8884Z" fill="#1766A6"/>
<path d="M69.6349 59.5483C69.2045 59.5483 68.7442 59.8872 68.7442 60.7188C68.7442 61.6377 69.4511 62.2234 69.8496 62.4065C70.0652 62.5313 70.4037 62.6542 70.7384 62.6542C71.63 62.6542 72.3379 62.4065 72.3379 61.6678C72.3369 60.7188 70.9531 59.5483 69.6349 59.5483ZM66.3224 61.4528C65.6774 61.4528 62.1108 66.2173 59.8128 66.2173C59.2606 66.2173 58.7993 65.1726 58.7993 64.3766C58.7993 63.9458 59.075 63.6379 60.0604 63.4211C65.3398 62.2225 64.1716 58.2559 68.6813 58.2559C71.1678 58.2559 73.9355 59.9491 73.9355 63.759C73.9355 67.8167 68.1666 72.8562 67.3059 72.8562C66.599 72.8562 65.8311 71.8424 65.8311 71.1666C65.8311 70.9517 65.9239 70.6748 66.538 70.4289C69.482 69.2594 71.1687 66.5552 71.1687 65.1707C71.1687 64.8628 71.0159 64.5587 70.6165 64.5587C70.0952 64.5587 67.86 69.6592 65.3698 69.6592C63.6475 69.6592 61.8961 68.0955 61.8961 67.3558C61.8961 66.1243 66.8756 63.8519 66.8756 62.1286C66.8746 61.4819 66.5681 61.4528 66.3224 61.4528Z" fill="#1766A6"/>
<path d="M5.55733 21.1585C5.55733 21.1585 4.66757 21.8333 3.56217 21.8333C2.24301 21.8333 1.19855 20.8506 1.19855 19.4671C1.19855 18.5134 1.68984 17.5307 2.82524 17.0379C2.79524 17.2228 2.79524 17.3758 2.79524 17.5607C2.7943 19.3141 3.77688 20.6347 5.55733 21.1585ZM12.1278 27.0605C11.4528 27.8584 10.7459 29.2118 10.7459 30.5944C10.7459 32.2539 11.7603 33.6365 13.3261 33.6365C14.8299 33.6365 15.5369 32.3459 15.5369 31.0253C15.5369 28.9659 13.6636 27.5195 12.1278 27.0605ZM1.93548 28.2892C1.87736 28.384 1.84266 28.5051 1.84266 28.628C1.84266 28.9049 2.15019 29.2118 2.4249 29.2118C2.67054 29.2118 2.8243 29.1508 2.94713 29.1508C3.68312 29.1508 4.51287 29.6727 5.71016 29.6727C6.41521 29.6727 7.24496 29.4568 8.28848 28.9359C10.4993 27.8283 11.36 25.0932 11.36 24.6314C11.36 24.0466 10.8912 24.1236 10.4993 23.5857C10.1074 23.0498 10.2574 22.5758 10.008 22.3252C9.86642 22.1816 9.42576 22.1722 8.87165 22.1102C8.68695 22.0905 8.44131 22.0792 8.19566 22.0792C7.18402 22.0792 5.98299 22.2041 4.63476 23.0639C1.97205 24.7656 2.36396 27.5824 1.93548 28.2892ZM9.15011 24.4774C9.36294 24.7675 9.94986 25.1241 9.94986 25.3391C9.94986 25.768 9.70234 26.3228 9.21199 26.3228C8.1366 26.3228 7.27778 24.6933 7.27778 23.7697C7.27778 23.1868 7.61624 23.1258 8.07565 23.1258C8.29036 23.1258 8.38318 23.1568 8.536 23.2488C8.81165 23.4027 8.81165 24.0166 9.15011 24.4774ZM6.32427 28.2282C5.31169 28.2282 4.20629 26.9685 4.20629 25.83C4.20629 25.2161 4.66664 24.4465 5.00416 24.4465C5.12698 24.4465 5.18886 24.5394 5.21887 24.7553C5.40263 26.2608 6.38615 27.1225 7.30778 27.5514C7.39966 27.6124 7.46154 27.6434 7.46154 27.7044C7.46154 27.9203 6.87743 28.2282 6.32427 28.2282ZM8.93541 20.4817C9.08823 19.9889 9.21105 19.376 9.21105 18.6983C9.21105 17.2237 8.53413 14.9795 6.44709 14.9795C5.25074 14.9795 4.38911 15.9322 4.38911 17.0698C4.38911 19.499 6.81556 20.4817 8.93541 20.4817ZM0.98291 32.7767C0.98291 35.112 1.68984 36.2196 2.94806 36.2196C3.93064 36.2196 5.25074 35.5119 6.81555 34.1593C5.61921 34.4362 4.69664 34.6211 3.86876 34.6211C2.76336 34.6211 1.90454 34.1903 0.98291 32.7767ZM2.05831 30.0407C2.0283 30.1955 2.0283 30.3485 2.0283 30.5015C2.0283 31.9461 2.7943 32.7458 3.80782 32.7458C4.57288 32.7458 5.46545 32.2849 6.26145 31.2693C5.9258 31.3303 5.52545 31.3613 5.15699 31.3613C4.02252 31.3613 2.7943 31.0553 2.05831 30.0407ZM9.58046 29.6108C8.87259 29.7947 7.39966 30.6555 7.39966 32.192C7.39966 33.2977 8.25848 34.0063 9.33388 34.0063C9.88704 34.0063 10.2855 33.8824 10.5312 33.6985C9.67234 32.8687 9.36482 31.9461 9.36482 31.0253C9.36482 30.3786 9.4567 29.9796 9.58046 29.6108ZM10.6849 21.1885C10.6849 21.8643 11.2372 22.419 11.9122 22.419C12.5882 22.419 13.1414 21.8652 13.1414 21.1885C13.1414 20.5127 12.5882 19.958 11.9122 19.958C11.2372 19.958 10.6849 20.5127 10.6849 21.1885ZM12.2807 23.9546C12.2807 24.6314 12.8348 25.1852 13.5117 25.1852C14.1858 25.1852 14.739 24.6314 14.739 23.9546C14.739 23.2797 14.1858 22.726 13.5117 22.726C12.8338 22.726 12.2807 23.2797 12.2807 23.9546Z" fill="#1766A6"/>
<path d="M60.1822 39.0432C60.1822 38.4294 60.7353 37.9066 61.3419 37.9066C62.0189 37.9066 62.5411 38.4294 62.5411 39.0432C62.5411 39.75 62.0179 40.2428 61.3419 40.2428C60.7353 40.2428 60.1822 39.75 60.1822 39.0432ZM49.402 29.5763C49.402 30.2521 49.9561 30.8059 50.6292 30.8059C51.3071 30.8059 51.8603 30.2521 51.8603 29.5763C51.8603 28.9014 51.3062 28.3476 50.6292 28.3476C49.9561 28.3476 49.402 28.9014 49.402 29.5763ZM48.3594 33.9099C48.3594 34.8635 49.1554 35.6614 50.1089 35.6614C51.0596 35.6614 51.8603 34.8635 51.8603 33.9099C51.8603 32.9581 51.0596 32.1575 50.1089 32.1575C49.1554 32.1575 48.3594 32.9581 48.3594 33.9099ZM52.2287 31.9425C52.2287 32.9891 53.0585 33.8179 54.0964 33.8179C55.1399 33.8179 55.9725 32.9891 55.9725 31.9425C55.9725 30.8978 55.1399 30.0681 54.0964 30.0681C53.0585 30.0681 52.2287 30.8978 52.2287 31.9425ZM52.3834 27.9468C52.3834 28.5935 52.9057 29.1173 53.5442 29.1173C54.1892 29.1173 54.7114 28.5935 54.7114 27.9468C54.7114 27.3029 54.1883 26.7801 53.5442 26.7801C52.9057 26.7801 52.3834 27.3029 52.3834 27.9468ZM57.9386 24.9977C57.9386 25.6415 58.4608 26.1644 59.1068 26.1644C59.7518 26.1644 60.275 25.6415 60.275 24.9977C60.275 24.3509 59.7518 23.8281 59.1068 23.8281C58.4608 23.8281 57.9386 24.3509 57.9386 24.9977ZM55.634 28.7784C55.634 29.8532 56.5247 30.7439 57.6001 30.7439C58.6764 30.7439 59.5681 29.8532 59.5681 28.7784C59.5681 27.7009 58.6774 26.8111 57.6001 26.8111C56.5247 26.8111 55.634 27.7009 55.634 28.7784ZM52.4744 35.9702C52.4744 36.6469 53.0276 37.1988 53.6979 37.1988C54.3739 37.1988 54.928 36.6469 54.928 35.9702C54.928 35.2934 54.3739 34.7406 53.6979 34.7406C53.0276 34.7406 52.4744 35.2934 52.4744 35.9702ZM56.4947 33.51C56.4947 34.1868 57.0469 34.7406 57.7248 34.7406C58.3998 34.7406 58.953 34.1868 58.953 33.51C58.953 32.8352 58.3998 32.2814 57.7248 32.2814C57.0469 32.2814 56.4947 32.8352 56.4947 33.51ZM55.3584 37.8446C55.3584 39.0122 56.31 39.9659 57.4782 39.9659C58.6455 39.9659 59.5999 39.0122 59.5999 37.8446C59.5999 36.677 58.6455 35.7233 57.4782 35.7233C56.31 35.7233 55.3584 36.677 55.3584 37.8446ZM59.7818 35.2305C59.7818 36.0312 60.4278 36.677 61.221 36.677C62.0198 36.677 62.6649 36.0312 62.6649 35.2305C62.6649 34.4327 62.0198 33.7869 61.221 33.7869C60.4278 33.7869 59.7818 34.4327 59.7818 35.2305ZM59.6899 31.3578C59.6899 32.0664 60.275 32.6503 60.9735 32.6503C61.6814 32.6503 62.2655 32.0664 62.2655 31.3578C62.2655 30.6519 61.6814 30.0681 60.9735 30.0681C60.275 30.0681 59.6899 30.6519 59.6899 31.3578Z" fill="#1766A6"/>
<path d="M62.8178 71.6908C62.019 72.3065 60.1514 73.6872 57.0471 73.6872C55.3885 73.6872 54.6506 73.1644 54.405 73.1644C54.0975 73.1644 53.7599 73.4713 53.4215 73.8721C52.692 74.7338 51.7385 76.3323 51.7385 78.0828C51.7385 79.3115 52.692 80.5392 54.4659 80.5392C60.2133 80.5392 64.5083 76.9442 64.5083 74.0261C64.5083 72.3675 63.5257 71.6908 62.8178 71.6908ZM61.2211 71.3529C61.4696 71.1407 61.5277 70.8 61.5277 70.4602V69.7534C61.5277 68.8608 60.1823 68.3408 58.3381 68.3408C56.0945 68.3408 54.8963 69.3527 54.8963 69.7844V71.198C54.8963 71.7837 56.2492 72.3675 57.9087 72.3675C59.2297 72.3675 60.428 72.0296 61.2211 71.3529ZM60.9736 74.3959C61.1283 74.3959 61.3112 74.4869 61.3112 75.0417C61.3112 75.7165 61.0055 76.6073 59.9048 77.3131C59.1369 77.8378 58.0915 78.2686 56.5558 78.2959C56.8014 77.5609 56.9861 76.7903 56.9861 76.0563C56.9861 75.8095 56.9561 75.6245 56.9252 75.3486H57.3246C59.752 75.3495 60.7974 74.3959 60.9736 74.3959Z" fill="#1766A6"/>
<path d="M49.2485 36.833C49.586 39.4443 53.0897 38.1227 53.0897 41.2877C53.0897 41.7495 52.9669 42.4272 52.9669 43.0101C52.9669 43.6868 53.0269 44.2707 53.5445 44.2707C54.0657 44.2707 54.1895 43.9027 54.1895 43.4099C54.1895 42.9172 54.0657 42.3033 54.0657 41.9654C54.0657 40.8888 54.8346 40.6438 55.2968 40.6438C56.4641 40.6438 57.3548 41.8424 59.1071 41.8424C58.7067 43.8098 54.6508 43.287 54.6508 45.4392C54.6508 46.5159 55.7262 46.7599 56.4331 46.7599C57.0782 46.7599 57.2938 46.6679 57.2938 46.116C57.2938 45.8072 57.2319 45.4693 57.2319 45.2543C57.2319 45.1304 57.3248 45.0075 57.4785 45.0075C58.1564 45.0075 61.466 47.5286 61.466 48.2983C61.466 49.0041 57.9698 49.7109 56.9563 49.7109C56.6488 49.7109 56.5869 49.496 56.5869 49.373C56.5869 49.1581 57.1091 48.5123 57.1091 48.1444C57.1091 47.8675 56.6488 47.6826 55.4187 47.6826C54.8346 47.6826 54.4042 47.7445 54.4042 48.2063C54.4042 49.0342 55.7562 50.0498 55.7562 50.8166C55.7562 51.4324 55.3877 51.8012 54.4042 51.8012C53.5745 51.8012 52.32 51.1545 52.32 50.0798C52.32 49.2191 53.206 48.3602 53.206 47.8365C53.206 47.6826 53.0888 47.4366 52.7203 47.4366C51.5821 47.4366 51.2755 50.4477 47.2515 50.7866C47.8965 50.2028 48.4478 49.557 48.4478 48.2373C48.4478 47.5915 48.2959 47.0678 48.2959 46.3619C48.2959 45.4393 48.7244 44.9774 49.3385 44.9774C50.4739 44.9774 51.0271 46.575 51.7668 46.575C52.1672 46.575 52.5966 46.208 52.5966 45.6542C52.5966 43.318 48.1122 43.6559 48.1122 40.3669C48.1131 39.4752 48.4187 38.3686 49.2485 36.833ZM63.8934 45.8391C63.8934 46.606 64.1409 47.4977 64.9088 47.4977C65.5538 47.4977 66.1061 46.5159 66.1061 45.4392C66.1061 44.2097 65.8914 43.256 65.8914 42.7632C65.8914 42.5492 65.9842 42.4572 66.1061 42.4572C66.5674 42.4882 66.9968 43.7479 67.4899 43.7479C68.0431 43.7479 68.8672 42.7323 69.2038 42.7323C69.2966 42.7323 69.3266 42.8562 69.3266 42.8862C69.3266 43.348 68.6197 44.3636 68.6197 44.7625C68.6197 45.1004 70.402 45.1614 70.402 45.4693C70.402 45.9311 68.5334 45.9311 67.6437 46.3309C66.7839 46.6989 66.2589 47.1597 66.2589 47.7755C66.2589 48.3903 66.8739 48.5123 67.7346 48.5123C69.786 48.5123 71.2299 47.4066 71.6903 47.4066C71.7821 47.4066 71.8431 47.4667 71.8431 47.5596C71.8431 47.8675 70.7996 48.8812 70.7996 49.343C70.7996 49.8649 72.7047 50.4778 72.6738 50.7866C72.6438 50.8786 72.52 50.9086 72.3053 50.9086C71.9659 50.9086 71.4446 50.8166 71.0443 50.8166C70.7986 50.8166 70.5839 50.8467 70.4902 50.9696C70.2773 51.2165 70.552 52.8459 70.1245 52.8459C69.7242 52.8459 68.6797 49.2191 66.3208 49.2191C65.9823 49.2191 65.7367 49.496 65.7367 49.9568C65.7367 51.1855 66.9349 52.5991 68.0722 53.2758C68.5869 53.6147 69.4485 53.9526 69.4485 54.1384C69.4485 54.5054 67.488 54.1685 67.488 54.7823C67.488 55.3361 67.7337 56.1677 67.7337 56.6577C67.7337 56.8116 67.7027 56.9946 67.519 56.9946C67.1505 56.9946 66.258 55.3051 65.8285 55.3051C65.4601 55.3051 64.6613 56.3188 64.3228 56.3188C64.2309 56.3188 64.17 56.2269 64.17 56.1358C64.17 55.4281 65.3073 53.8305 65.3073 52.2621C65.3073 51.5244 65.2144 49.9259 64.3228 49.9259C63.5859 49.9259 62.7552 51.0935 62.3867 52.2621C62.1729 52.9379 62.3258 55.551 61.8335 55.551C61.3732 55.551 61.496 53.7996 60.88 53.7996C60.4272 53.7996 59.4437 54.6284 59.1052 54.6284C59.0433 54.6284 58.9814 54.5974 58.9814 54.5364C58.9814 54.1685 59.8731 52.9689 59.8731 52.723C59.8731 52.2621 57.8451 52.2011 57.8451 51.8322C57.8451 51.6163 58.6439 51.4633 59.3809 51.3394C60.9429 51.0625 63.2465 49.9259 63.2465 48.3283C63.2465 46.5459 61.526 45.7762 60.3953 45.0385C59.8112 44.6696 59.1661 44.3636 59.1661 44.1177C59.1661 43.8708 59.9031 43.8708 60.2106 43.8708C60.671 43.8708 61.1266 43.8398 61.1266 43.4719C61.1266 43.1941 61.0647 42.6422 61.0647 42.2113C61.0647 41.9035 61.0947 41.6575 61.2194 41.6575C61.6798 41.6575 62.3248 43.1631 62.6333 43.1631C63.1236 43.1631 63.7996 41.9335 64.2619 41.9335C64.4137 41.9335 64.4766 42.0264 64.4766 42.3024C64.4784 43.44 63.8934 44.7306 63.8934 45.8391Z" fill="#1766A6"/>
<path d="M50.14 54.3531C51.5538 54.5381 51.8923 55.029 51.8923 55.4298C51.8923 56.1065 51.2773 56.3205 50.6922 56.3205C50.2637 56.3205 49.7715 56.2285 49.2493 56.2285C48.5724 56.2285 47.8983 56.3825 47.346 57.0282C47.7445 57.0892 48.3286 57.3671 48.3286 57.9828C48.3286 59.7653 43.3857 58.2879 43.3857 62.8702C43.3857 65.2975 45.904 67.9426 49.7096 67.9426C51.6776 67.9426 52.9368 67.2968 52.9368 66.5571C52.9368 65.9743 51.8932 66.3722 51.8932 65.8804C51.8932 65.6655 52.2617 65.2647 52.2617 64.9249C52.2617 64.7766 52.1389 64.4978 51.8932 64.4978C51.3382 64.4978 50.2937 65.3867 48.1748 65.3867C46.5163 65.3867 44.8886 64.4368 44.8886 63.1443C44.8886 62.8684 45.0124 62.7135 45.1962 62.7135C45.3809 62.7135 45.6256 62.8374 45.8412 62.8374C46.0259 62.8374 46.0559 62.7135 46.0559 62.3765C46.0559 62.0377 46.0559 61.084 46.6382 61.084C47.2232 61.084 48.3286 63.2363 52.5683 63.2363C53.9756 63.2363 56.7105 62.9613 57.725 62.0377C57.694 65.4195 55.0501 69.8761 49.5259 69.8761C43.7842 69.8761 40.7136 65.2647 40.7136 61.0221C40.7136 56.3205 44.5502 52.0488 49.8025 52.0488C51.1516 52.0488 52.2908 52.5088 52.2908 53.0935C52.2898 53.8942 50.2928 53.4014 50.14 54.3531ZM59.5673 55.9845C59.782 56.3205 59.8748 56.6593 59.8748 56.9663C59.8748 57.8279 59.2907 58.6267 59.2907 59.5193C59.2907 60.5331 60.0595 61.3619 61.2212 61.3619C62.4803 61.3619 63.341 60.35 63.341 59.1495C63.341 57.5201 61.8662 56.1375 59.5673 55.9845ZM49.4021 57.9509C49.7078 58.2569 49.8015 58.5648 49.8015 58.8726C49.8015 59.3335 49.5868 59.8263 49.5868 60.3491C49.5868 61.084 50.14 61.7307 50.9369 61.7307C51.7986 61.7307 52.3836 61.0531 52.3836 60.2571C52.3836 59.0885 51.1816 57.9509 49.4021 57.9509ZM53.4834 52.7246C56.7096 53.3394 58.461 55.7686 58.461 58.0438C58.461 59.6123 57.4784 61.054 55.757 61.054C54.1894 61.054 53.0587 59.9793 53.0587 58.2578C53.0587 56.9672 54.0656 55.6147 54.0656 54.2921C54.0656 53.7703 53.9128 53.2474 53.4834 52.7246ZM55.081 56.8133C55.081 57.2432 55.3885 57.582 55.8189 57.582C56.3092 57.582 56.6177 57.1512 56.6177 56.6593C56.6177 56.0145 56.0336 55.1228 55.4804 55.1228C55.2338 55.1228 55.3266 55.4917 55.2657 55.8916C55.2338 56.1975 55.081 56.5664 55.081 56.8133Z" fill="#1766A6"/>
<path d="M21.1868 25.1834C22.2303 25.1834 23.4266 19.5273 23.4266 18.5737C23.4266 18.3277 23.3357 18.1428 23.121 18.1428C22.1684 18.1428 20.8492 23.523 20.8492 24.7226C20.8483 24.9375 20.9092 25.1834 21.1868 25.1834ZM28.7089 26.8739C29.4749 26.8739 30.3347 23.9219 30.3347 22.0775C30.3347 21.6777 30.2737 21.2487 30.0881 21.2487C29.443 21.2487 28.3686 24.2917 28.3686 25.9512C28.3695 26.597 28.5242 26.8739 28.7089 26.8739ZM23.7013 24.1378C24.0389 24.1378 24.4692 23.7671 25.2699 22.8782C25.3299 22.4783 25.3299 22.1085 25.3299 21.6476C25.3299 21.0338 25.0843 20.357 24.7167 20.357C23.7942 20.357 23.3347 22.8162 23.3347 23.4629C23.3357 23.8299 23.5185 24.1378 23.7013 24.1378ZM27.9092 22.8782C27.9092 22.3544 27.7854 22.2315 27.6635 22.2315C27.356 22.2315 27.0194 22.6013 26.5281 23.431C26.5891 24.5377 26.7738 25.0295 27.0803 25.0295C27.4179 25.0295 27.9092 23.9529 27.9092 22.8782ZM30.2737 19.2504C32.3008 19.2504 33.2205 21.0028 33.2205 22.9702C33.2205 23.8299 32.9767 25.0915 32.5773 25.0915C32.1779 25.0915 32.2398 24.3837 32.1779 23.738C32.117 22.9082 31.9623 22.7242 31.6857 22.7242C31.1635 22.7242 30.8269 23.9529 30.8269 25.0915C30.8269 25.7973 30.9497 26.597 31.501 26.597C31.8085 26.597 32.0851 26.4431 32.2698 26.2591C32.147 27.6717 31.1016 28.9032 29.6287 28.9032C26.9266 28.9032 25.9131 25.7363 25.6074 23.8919C23.9798 25.6133 22.4759 26.8739 19.7729 26.8739C17.2565 26.8739 16.1201 25.0295 16.1201 23.278C16.1201 22.7543 16.3039 21.4027 16.9499 21.4027C17.7168 21.4027 17.0418 23.9219 18.5456 23.9219C18.915 23.9219 19.5882 23.6141 19.9585 22.6013C20.1732 21.9855 20.2961 21.3417 20.2961 20.7869C20.2961 19.9562 20.1123 19.4353 19.4982 19.4353C18.975 19.4353 18.33 19.8333 18.1153 20.0492C18.8531 17.8359 20.6336 16.6992 22.5959 16.6992C25.0242 16.6992 26.3125 18.8505 26.3125 21.2487C26.3125 21.5857 26.2815 21.9546 26.2197 22.2934C27.2641 20.572 28.7089 19.2504 30.2737 19.2504Z" fill="#1766A6"/>
<path d="M24.532 27.5205C23.2118 27.5205 23.1509 29.1218 23.1509 32.3469C22.1674 30.2266 20.5416 27.9513 18.6374 27.9513C17.3483 27.9513 16.8579 28.813 16.8579 30.3176C16.8579 30.6255 16.8879 31.0873 16.9498 31.3623C17.1036 30.8414 17.5948 30.6255 18.208 30.6255C19.53 30.6255 21.1257 31.6392 22.1693 33.0237C20.9729 32.8087 19.8056 32.5928 18.824 32.5928C18.209 32.5928 17.6567 32.6548 17.1964 32.8697C16.3057 33.2686 15.1084 34.5912 15.1084 36.5895C15.1084 36.8974 15.1393 37.2343 15.2012 37.6032C16.2757 35.205 19.1306 34.1294 20.9729 34.1294C21.3423 34.1294 21.617 34.1603 21.8327 34.1913C20.8801 35.0511 20.6663 36.5576 20.6035 37.5722C20.5745 38.0641 20.3888 38.096 20.0503 38.096C20.0503 39.1088 20.8501 40.6162 20.8501 41.384C20.8501 41.6609 20.6963 41.9068 20.5435 41.9687C20.5435 43.3213 21.8927 44.305 21.8927 45.1648C21.8927 45.3797 21.8327 45.5646 21.7389 45.6575C21.8327 46.2113 23.3178 47.1415 23.51 47.608C23.7463 48.1749 24.0116 48.2707 24.1654 48.2707C24.6876 48.2707 25.5145 47.6549 25.5145 47.1011C25.5145 46.9172 25.3608 46.7022 25.2398 46.6093C24.6557 46.1804 24.3482 45.2577 24.1025 44.6438C23.8869 44.6438 23.6094 44.5528 23.5119 44.1905C23.344 43.5541 23.3356 42.3686 23.09 41.6609C22.6906 41.5689 22.5059 41.415 22.5059 40.5852C22.5059 40.1854 22.7524 38.6169 22.7524 38.0631C22.5687 38.0631 22.323 37.9402 22.323 37.5713C22.323 36.5886 23.3065 35.8198 23.5813 34.5602C25.3317 35.8499 25.7602 37.1714 25.7602 38.341C25.7602 38.9539 25.6683 39.5386 25.5455 40.0934C26.8356 39.4467 28.7698 38.494 28.7698 36.5576C28.7698 35.419 28.2476 34.1594 24.7776 33.6676C25.8521 33.2677 27.204 33.0537 28.3394 33.0537C30.3055 33.0537 31.4409 33.6676 31.6856 35.0502C32.085 34.4363 32.3926 33.7286 32.3926 33.0837C32.3926 31.5763 31.1325 30.5945 29.5367 30.5945C27.6634 30.5945 26.0058 31.5763 24.2244 32.7768C25.0251 31.1173 25.5745 30.1336 26.559 30.1336C26.7118 30.1336 26.8656 30.1646 27.0193 30.1956C26.6509 28.844 25.2698 27.5205 24.532 27.5205Z" fill="#1766A6"/>
<path d="M76.2637 49.6797C77.8013 49.6797 79.0296 51.6771 79.0296 54.0143C79.0296 56.5035 77.8613 59.2095 75.779 61.0521C75.7481 56.9033 70.6758 58.2249 70.6758 55.2138C70.6758 53.9232 71.5993 53.0615 72.7056 53.0615C73.6891 53.0615 74.457 53.3384 75.0102 53.8932C74.457 53.3694 74.1804 52.6307 74.1804 51.9249C74.1804 50.7544 74.9183 49.6797 76.2637 49.6797Z" fill="#1766A6"/>
<path d="M48.8487 20.4803C49.6484 21.249 50.3525 21.586 51.2132 21.586C51.5526 21.586 51.953 21.4949 52.1686 21.4949C52.4452 21.4949 52.628 21.617 52.628 21.8319C52.628 22.1708 52.3205 22.7245 51.953 23.0324C52.3205 23.1854 52.7208 23.2474 53.1512 23.2474C54.8951 23.2474 56.8921 22.1398 56.8921 19.3746C57.2624 19.8646 57.4771 20.8801 57.4771 21.3419C57.4771 24.6919 55.0179 25.9825 52.7508 25.9825C51.276 25.9825 50.5372 25.4897 50.3516 25.4897C49.7694 25.4897 49.8003 26.6593 49.4009 26.6283C48.694 26.5053 48.0508 24.9378 48.0508 23.2783C48.0517 22.2937 48.2974 21.249 48.8487 20.4803ZM53.4831 18.236C53.2374 17.8362 52.3205 17.6222 51.892 17.6222C50.5382 17.6222 49.6165 18.5739 49.4328 19.4356C49.3099 19.1277 49.2181 18.7589 49.2181 18.39C49.2181 17.0374 50.1397 15.3779 52.3842 15.3779C54.3438 15.3779 55.1116 16.4226 55.3892 16.4226C55.6958 16.4226 56.0033 16.1147 56.2499 16.1147C56.5874 16.1147 56.5874 16.6376 56.5874 17.0074C56.5874 18.236 56.0333 20.3573 54.6513 21.1261C54.4047 20.6033 53.9134 20.0185 53.1202 19.6505C52.9055 19.5586 52.8137 19.3746 52.8137 19.1897C52.8127 18.8508 53.1193 18.42 53.4831 18.236Z" fill="#1766A6"/>
<path d="M27.5096 11.5366C27.5096 12.6122 31.347 17.8685 32.0849 17.8685C32.7 17.8685 33.1594 16.7929 33.1594 15.8692C33.1594 15.6252 33.0975 15.3802 32.9765 15.1944C32.4234 14.4256 28.524 11.3516 27.6633 11.3516C27.5705 11.3516 27.5096 11.4446 27.5096 11.5366ZM4.94217 8.37058C4.94217 8.98632 2.60948 11.0447 1.78161 11.0447C1.47502 11.0447 1.38126 10.6768 1.38126 10.3389C1.38126 9.72501 1.65785 8.86336 1.99631 8.58552C2.39384 8.21664 3.31548 8.03455 4.02147 8.03455C4.45088 8.03455 4.94217 8.12466 4.94217 8.37058ZM32.9765 10.154C32.9765 8.30863 27.9952 4.95868 27.9399 3.51508C27.9343 3.38273 28.0065 3.25132 28.118 3.13399C28.9712 2.23292 32.5143 1.57588 32.5143 0.808084C32.5143 0.410107 31.7765 0.410107 31.408 0.410107C28.5531 0.410107 24.3771 1.4548 24.3771 2.46851C24.3771 3.51508 28.1227 6.06626 28.1227 7.32683C28.1227 7.66473 27.908 7.78769 27.5696 7.78769C26.527 7.78769 24.2543 6.52618 23.1798 6.52618C22.6886 6.52618 22.5029 6.86409 22.5029 7.3578C22.5029 8.83238 24.2534 11.6295 24.2534 12.4573C24.2534 12.5503 24.2224 12.6732 24.0996 12.6732C23.5464 12.6732 20.939 9.60111 20.0165 9.60111C19.6799 9.60111 19.648 10.061 19.648 10.7378V11.7825C19.648 12.4893 19.6171 12.9201 19.2814 12.9201C18.4807 12.9201 18.1132 10.6768 17.3463 10.6768C16.5474 10.6768 16.3937 14.6716 15.6277 14.6716C14.7361 14.6716 15.5039 10.276 14.6442 10.276C13.6925 10.276 12.6171 13.197 11.9412 13.197C11.6964 13.197 11.6355 12.9501 11.6355 12.7352C11.6355 11.8444 12.1559 10.3999 12.1559 9.5401C12.1559 9.10834 12.033 8.86336 11.6664 8.86336C10.7129 8.86336 8.62589 10.3999 7.82802 10.3999C7.70519 10.3999 7.55143 10.3389 7.55143 10.215C7.55143 9.47909 10.8976 7.14192 10.8976 6.09723C10.8976 5.08164 6.2904 5.75933 6.2904 4.5898C6.2904 3.60706 9.57847 2.59241 9.57847 1.57776C9.57847 0.686063 5.67816 0.288086 4.17429 0.288086C2.36196 0.288086 1.38033 0.501154 1.38033 1.02397C1.38033 1.82367 5.49533 2.07053 5.49533 2.77638C5.49533 3.45313 1.22656 5.26655 1.22656 6.31124C1.22656 7.2339 7.24391 6.37225 7.24391 7.32683C7.24391 8.37058 1.99537 12.8882 1.99537 14.3947C1.99537 14.7335 2.24102 14.8874 2.57761 14.8874C4.17429 14.8874 8.31743 11.8444 9.45471 11.8444C9.85411 11.8444 9.88505 12.3353 9.88505 12.7662C9.88505 13.5659 9.60941 14.7945 9.60941 15.6872C9.60941 16.393 9.79317 16.8848 10.4063 16.8848C11.5446 16.8848 12.5862 14.9485 13.3559 14.9485C14.3376 14.9485 13.7544 20.6346 15.2283 20.6346C16.4865 20.6346 17.0078 14.4876 17.8066 14.4876C18.6054 14.4876 19.2514 16.27 19.9874 16.27C20.9072 16.27 20.4778 13.166 21.4613 13.166C22.5348 13.166 25.6053 16.8548 26.9873 16.8548C27.4167 16.8548 27.5696 16.516 27.5696 16.0851C27.5696 14.4557 25.2988 10.7688 25.2988 9.60111C25.2988 9.29418 25.3897 9.20126 25.7272 9.20126C26.9245 9.20126 30.4263 10.8607 32.083 10.8607C32.64 10.8607 32.9765 10.5538 32.9765 10.154ZM29.7822 4.06792C29.7822 4.62077 31.7164 5.82034 32.6081 5.82034C33.1294 5.82034 33.2831 5.11261 33.2831 4.37486C33.2831 3.45313 32.8856 3.42215 32.0859 3.42215C31.0723 3.42215 29.7822 3.69905 29.7822 4.06792ZM22.5667 0.931982C22.5667 0.747073 21.646 0.562164 20.3877 0.562164C18.3917 0.562164 18.6682 2.22447 17.1334 2.22447C15.5367 2.22447 15.9343 0.501154 13.9082 0.501154C12.68 0.501154 11.5455 0.717037 11.5455 0.992993C11.5455 1.36281 12.9875 1.20888 12.9875 2.22447C12.9875 3.29919 9.88599 3.60706 9.88599 4.25283C9.88599 4.46778 10.1307 4.55976 10.4382 4.55976C11.1151 4.55976 12.1877 4.25283 12.9565 4.25283C13.3869 4.25283 13.7863 4.34388 13.7863 4.74373C13.7863 5.51247 12.1268 6.896 12.1268 7.5108C12.1268 7.69571 12.2796 7.75766 12.4334 7.75766C13.0484 7.75766 14.0929 6.18922 15.0745 6.18922C16.7021 6.18922 15.6286 9.66212 16.5174 9.66212C17.4381 9.66212 17.0397 6.24929 18.3598 6.24929C19.4361 6.24929 20.233 8.6165 20.97 8.6165C21.1547 8.6165 21.3075 8.4635 21.3075 8.24762C21.3075 7.60372 20.3868 6.28026 20.3868 5.42048C20.3868 4.89767 20.7553 4.65081 21.2466 4.65081C21.9516 4.65081 22.9042 5.08164 23.4246 5.08164C23.6083 5.08164 23.793 5.02063 23.793 4.80568C23.793 4.06793 21.0628 3.26916 21.0628 2.31645C21.0637 1.36281 22.5667 1.36281 22.5667 0.931982Z" fill="#1766A6"/>
<path d="M77.0002 5.91182C77.0002 8.64603 75.0097 10.7363 71.4132 11.3202C71.8135 11.3502 72.182 11.3502 72.5514 11.3502C76.7545 11.3502 78.2921 9.44574 78.2921 7.8482C78.2921 6.95557 77.7999 6.15774 77.0002 5.91182ZM71.8135 9.01491C71.8135 6.83261 66.5978 6.27882 66.5978 5.78792C66.5978 5.389 69.5099 4.71132 71.0147 4.68034C68.712 1.73025 65.4305 2.03812 65.4305 1.5153C65.4305 1.20744 67.8879 0.591698 70.1568 0.591698C72.0601 0.591698 73.8415 1.02253 73.8415 2.46707C73.8415 3.26771 73.1964 4.0984 73.1964 5.32612C73.1964 6.00286 73.5321 6.58669 74.4256 6.58669C75.38 6.58669 75.5929 5.57298 75.5929 4.49544C75.5929 3.60562 75.44 2.92887 75.44 2.49804C75.44 1.20744 76.3242 0.347656 77.5843 0.347656C78.6287 0.347656 78.8753 0.806643 80.412 0.806643C79.5813 1.30036 79.2747 2.19205 79.2747 2.621C79.2747 3.91349 80.1063 4.80424 80.1063 7.44835C80.1063 12.3029 75.5629 14.0243 70.003 14.0243C68.4748 14.0243 66.8444 13.9014 65.2458 13.6564C65.0011 13.6254 64.9392 13.5644 64.9392 13.4105C64.9392 13.0106 67.1219 12.7947 67.1219 10.8293C67.1219 10.0596 66.8753 9.32278 66.8753 9.04682C66.8753 8.89289 66.9981 8.79996 67.1219 8.79996C67.5822 8.79996 68.5057 10.5824 70.2196 10.5824C70.6753 10.5824 71.8135 10.4285 71.8135 9.01491ZM76.8164 2.22303C76.8164 2.65198 77.1539 2.98988 77.5843 2.98988C78.0146 2.98988 78.3531 2.65198 78.3531 2.22303C78.3531 1.7922 78.0146 1.45336 77.5843 1.45336C77.1539 1.45336 76.8164 1.7922 76.8164 2.22303Z" fill="#1766A6"/>
<path d="M74.0884 30.6241C74.0884 29.9792 72.4588 29.9182 72.306 28.1038C72.2741 27.8279 72.1823 27.337 71.8438 27.337C71.2916 27.337 71.721 29.0275 71.1069 29.0275C69.6949 29.0275 69.2345 26.2604 68.7123 26.2604C68.5885 26.2604 68.4423 26.3524 68.4423 26.7213C68.4423 27.0601 68.5042 27.275 68.5042 27.673C68.5042 28.0738 68.4104 28.3507 68.0429 28.3507C67.2131 28.3507 66.4753 26.4134 65.7683 26.4134C65.6146 26.4134 65.4617 26.5063 65.4617 26.6602C65.4617 27.0291 66.0749 27.704 66.0749 28.0428C66.0749 28.7815 64.0779 28.3807 64.0779 28.9965C64.0779 29.2734 64.3535 29.3644 64.7229 29.3644C65.3689 29.3644 66.3834 29.0894 66.9056 29.0894C67.2131 29.0894 67.6735 29.1504 67.6735 29.5484C67.6735 29.9792 66.5671 30.5321 66.5671 30.9319C66.5671 31.1168 66.7509 31.2079 66.9047 31.2079C67.7344 31.2079 69.2027 29.7643 70.2471 29.7643C70.4309 29.7643 70.8912 29.8563 70.8912 30.1332C70.8912 30.5321 69.8477 31.2379 69.8477 31.8227C69.8477 31.9766 69.9415 32.1606 70.1252 32.1606C70.6747 32.1606 71.4125 30.717 72.4579 30.717C72.8573 30.717 73.4414 30.8709 73.7499 30.8709C73.9965 30.8709 74.0884 30.717 74.0884 30.6241ZM74.8872 45.5322C75.3794 43.9966 75.9944 42.9191 77.0005 41.2596C75.9944 40.7387 73.3195 39.6301 73.3195 37.8167C73.3195 35.6954 75.9607 34.0359 76.5082 34.0359C76.7548 34.0359 76.8158 34.2518 76.8158 34.6517C76.8158 35.7574 76.2935 37.5398 76.2935 38.4935C76.2935 39.3533 76.8467 40.1849 77.338 40.1849C77.8602 40.1849 79.3041 38.3405 79.3041 36.5261C79.3041 33.2672 76.4463 32.2845 75.5622 32.2845C74.7325 32.2845 73.2267 33.6361 69.6939 33.6361C63.0944 33.6361 61.5886 27.0911 61.5886 24.2311C61.5886 24.1081 61.6177 24.0771 61.6486 24.0771C61.8024 24.0771 62.4493 24.8778 64.5373 24.8778C65.6127 24.8778 66.5962 24.6 68.1638 24.6C71.8419 24.6 73.4714 27.153 75.746 30.4091C77.1214 31.2689 80.4104 32.6534 80.4104 36.5571C80.4104 40 76.7539 41.9054 75.8688 45.5942C77.2752 45.4412 78.1059 42.9191 79.5497 42.9191C80.2876 42.9191 80.6251 43.5038 80.6251 44.4275C80.6251 45.7781 79.8563 47.8084 78.3815 49.068C78.4115 48.945 78.4115 48.7902 78.4115 48.6062C78.4115 47.7464 78.0749 46.5178 77.0895 46.5178C75.5603 46.5178 75.0691 48.1773 74.2093 49.5589C73.3177 46.4248 72.1195 43.5958 69.9705 41.8744C67.7963 40.1229 64.046 41.0747 64.046 37.8787C64.046 37.017 64.6001 35.7884 64.6001 34.8047C64.6001 34.4668 64.5382 34.1589 64.3526 33.913C67.3031 35.0206 66.2577 36.986 68.0729 39.0153C69.2027 40.3078 72.336 41.5365 74.1484 46.8538C74.1784 46.7008 74.2093 46.3019 74.2093 46.025C74.2093 41.4755 68.1938 37.017 67.6716 35.1726C71.1659 35.5725 71.78 36.4341 73.4396 41.0447C73.7799 41.9983 74.8872 44.3655 74.8872 45.5322Z" fill="#1766A6"/>
<path d="M58.0921 13.0098C55.9403 13.0098 54.5274 11.9351 54.5274 11.3804C54.5274 11.1035 54.7112 10.9205 54.9587 10.9205C55.6337 10.9205 57.1085 11.9642 57.5989 11.9642C57.7236 11.9642 57.8145 11.9041 57.8145 11.7192C57.8145 11.1654 57.2923 10.2437 57.2923 9.7838C57.2923 9.6599 57.3851 9.56885 57.5689 9.56885C58.3977 9.56885 59.6269 9.90675 60.2738 9.90675C60.4885 9.90675 60.5494 9.7838 60.5494 9.6599C60.5494 8.98409 58.5515 7.6625 58.5515 7.26265C58.5515 6.89377 61.0342 6.33904 61.0342 5.7571C61.0342 5.14136 57.6589 5.57219 57.6589 4.98743C57.6589 4.55754 58.3049 3.81978 58.3049 3.48187C58.3049 3.32794 58.1811 3.26693 57.9674 3.26693C57.6908 3.26693 56.216 3.85075 55.6009 3.85075C55.2943 3.85075 54.9249 3.78974 54.9249 3.35797C54.9249 2.65119 56.1232 1.8834 57.9983 1.8834C61.0332 1.8834 62.8474 3.97371 62.8474 7.4776C62.8493 11.9041 59.7516 13.0098 58.0921 13.0098ZM52.1066 7.17067C52.1066 6.83182 50.9065 6.18699 50.9065 5.81811C50.9065 5.7571 50.9665 5.72612 51.0593 5.72612C51.3987 5.72612 51.9828 5.84908 52.4451 5.84908C52.8445 5.84908 52.9054 4.12765 53.2073 4.12765C53.422 4.12765 53.7895 5.7571 54.1299 5.7571C54.5283 5.7571 55.2653 5.29529 55.5728 5.29529C55.6337 5.29529 55.6956 5.32533 55.6956 5.38822C55.6956 5.60316 54.9278 6.43197 54.9278 6.67789C54.9278 6.95478 56.6491 7.29362 56.6491 7.53954C56.6491 7.84741 54.8968 7.81644 54.8968 8.09333C54.8968 8.3064 55.5428 9.16806 55.5428 9.44495C55.5428 9.5069 55.5109 9.53788 55.45 9.53788C55.2034 9.53788 54.2518 9.10611 53.9752 9.10611C53.6367 9.10611 53.0901 10.3667 52.8135 10.3667C52.7216 10.3667 52.6607 10.2437 52.6607 10.0898L52.5988 8.86113C52.5988 8.73817 52.5388 8.61427 52.3841 8.61427C52.0147 8.61427 51.3078 8.58329 51.0912 8.58329C50.9374 8.58329 50.8765 8.55326 50.8765 8.49131C50.8756 8.24539 52.1066 7.38561 52.1066 7.17067ZM51.2131 12.2092C51.7062 12.2092 51.7981 13.4097 51.8919 14.1155C51.9528 14.4854 52.0147 14.5154 52.1685 14.5154C52.5379 14.5154 53.1201 13.1018 53.5148 13.1018C54.0971 13.1018 55.6656 14.7313 58.2768 14.7313C61.9896 14.7313 65.4923 12.1172 65.4923 7.50857C65.4923 3.05104 62.3561 0.437915 58.0302 0.437915C55.9731 0.437915 54.4655 1.45257 53.6667 1.45257C53.182 1.48354 52.4451 0.254883 52.0747 0.254883C51.9219 0.254883 51.7681 0.559936 51.7681 1.08369C51.7681 1.42253 51.7681 2.49726 51.3987 2.49726C50.6599 2.49726 47.8059 0.377843 47.8059 1.1447C47.8059 1.85242 49.7073 4.00469 49.7073 4.55754C49.7073 5.11039 47.8359 5.63414 47.8359 6.00208C47.8359 6.67789 49.8311 6.80085 49.8311 7.6625C49.8311 8.52228 47.7422 9.19903 47.7422 9.8448C47.7422 10.3667 49.8311 9.99874 49.8311 10.6436C49.8311 11.2884 48.2963 13.4407 48.2963 14.0536C48.2963 14.2085 48.3263 14.2085 48.4482 14.2085C49.0323 14.2085 50.7827 12.2092 51.2131 12.2092Z" fill="#1766A6"/>
<path d="M37.3051 66.1894C37.3051 66.4663 37.2123 66.7741 36.9666 67.0801C36.631 66.4663 35.6775 66.1584 35.2471 66.1593C32.0847 66.1593 33.282 70.7398 29.9048 70.7398C28.4928 70.7398 28.3691 70.5549 27.8487 70.5549C27.6331 70.5549 27.5103 70.6478 27.5103 70.8318C27.5103 71.6325 28.6466 73.5979 31.809 73.5979C34.9715 73.5979 38.012 71.6625 38.012 69.2624C38.012 68.8626 37.9201 68.4355 37.7354 68.0047C37.8583 67.8198 38.1667 67.6968 38.4424 67.6968C38.9327 67.6968 39.2093 68.2525 39.6696 68.2525C40.1619 68.2525 40.5303 67.8817 40.5303 67.3908C40.5303 66.9891 40.3156 66.7141 39.9481 66.5273C40.1938 66.3442 40.3775 66.0364 40.3775 65.6985C40.3775 65.1738 40.0081 64.6847 39.3931 64.6847C39.1165 64.6847 38.9337 64.7786 38.7189 64.9889C38.6589 64.4388 38.3505 63.916 37.7664 63.916C37.306 63.916 36.9666 64.253 36.9666 64.7777C36.9666 65.2658 37.3051 65.6675 37.3051 66.1894Z" fill="#1766A6"/>
<path d="M20.4795 60.4715C22.936 61.0825 24.1642 62.405 24.4089 63.9735C24.6545 65.479 24.9611 66.7105 25.5443 67.3234C26.3122 68.186 27.817 68.9501 29.138 68.9501C30.2434 68.9501 31.1322 68.5849 31.1322 67.5694C31.1322 66.4618 29.6284 63.9725 27.4176 63.9725C27.2029 63.9725 26.9263 64.0045 26.6188 64.0045C26.3422 64.0045 25.9428 63.9434 25.6981 63.7276C25.2077 63.2958 25.053 60.9905 24.1323 59.6079C23.1197 58.0705 22.0143 57.6396 20.5105 57.6396C19.4369 57.6396 18.2378 58.2225 18.2378 59.0842C18.2378 59.6098 18.5144 59.9778 20.4795 60.4715ZM29.0461 67.3553C28.1236 67.3553 26.7425 66.3698 26.7425 65.816C26.7425 65.3542 27.1729 65.1083 27.5085 65.1083C28.2773 65.1083 29.6574 66.0638 29.6574 66.8626C29.6584 67.0775 29.5046 67.3553 29.0461 67.3553Z" fill="#1766A6"/>
<path d="M26.2207 43.4105C26.2207 41.4432 30.8889 40.3985 30.8889 37.9693C30.8889 37.5695 30.7351 36.8636 30.4585 36.3408C32.0843 37.2316 33.2825 38.739 33.2825 39.9677C33.2825 42.089 31.0727 43.0726 31.0727 44.3952C31.0727 45.9317 33.4363 46.1776 33.4363 48.083C33.4363 49.6496 31.1945 51.4639 31.1945 53.4923C31.1945 55.0598 32.3009 56.3495 33.9876 56.5654C33.4353 56.6883 32.945 56.7803 32.4228 56.7803C29.3203 56.7803 26.1279 54.2301 26.1279 51.1861C26.1279 49.6805 26.7729 48.3608 27.7536 47.4072C28.6153 48.145 29.4741 48.6359 30.0273 48.6359C30.5176 48.6359 30.7342 48.3909 30.7342 48.022C30.7351 46.8834 26.2207 45.8397 26.2207 43.4105ZM36.0155 58.9335C34.9626 59.416 34.5426 59.3334 34.5426 60.41C34.5426 60.8089 34.4498 61.3289 34.4498 61.6067C34.4498 61.9756 34.5107 62.1915 34.9401 62.1915C36.0465 62.1915 37.7969 60.317 37.7969 58.7176C37.7969 58.2859 37.5504 58.1047 37.2738 58.1047C37.0281 58.1047 36.7534 58.5947 36.0155 58.9335ZM35.8927 56.7193C35.8927 55.3367 33.0369 55.3057 33.0369 53.2154C33.0369 52.6917 33.3735 51.8018 34.0504 50.8473C34.3279 52.4457 34.9701 53.2764 36.354 53.8002C39.0852 54.8129 39.4546 56.3495 39.4546 57.9808C39.4546 60.7479 37.5203 64.1898 32.5465 64.1898C28.5543 64.1898 25.6985 60.623 25.6985 57.611C25.6985 56.7803 25.9132 55.8595 26.4354 55.8595C26.8967 55.8595 27.0495 56.2274 27.418 56.5954C28.8009 57.9808 30.3048 58.3478 32.4846 58.3478C34.4498 58.3487 35.8927 57.55 35.8927 56.7193Z" fill="#1766A6"/>
<path d="M14.1494 57.3841C14.2244 58.0261 13.766 58.6052 13.1256 58.6803C12.4843 58.7554 11.903 58.2955 11.8299 57.6544C11.7549 57.0114 12.2134 56.4304 12.8547 56.3553C13.496 56.2803 14.0754 56.7411 14.1494 57.3841ZM8.41149 58.593C8.54181 59.6424 9.5197 60.4384 10.6232 60.3154C11.0217 60.2713 11.3911 60.1624 11.6377 60.0085C11.8833 60.9912 12.7075 61.6238 13.8213 61.4774C14.952 61.3301 15.7208 60.4384 15.5989 59.3008C15.5671 58.9948 15.5061 58.808 15.4152 58.593C15.4152 58.593 15.5642 58.5771 15.6767 58.5564C16.7859 58.3462 17.5331 57.4554 17.4403 56.3798C17.3184 55.2731 16.3265 54.4518 15.2942 54.5795C14.8939 54.6283 14.5245 54.7813 14.2779 54.9962C14.0004 54.0754 13.135 53.2748 11.9536 53.47C10.8857 53.6474 10.1798 54.5541 10.2866 55.7039C10.3045 55.8907 10.3476 56.1038 10.4404 56.3178C10.4404 56.3178 10.2594 56.345 10.1348 56.3629C9.23843 56.4961 8.26617 57.3991 8.41149 58.593Z" fill="#1766A6"/>
</svg>
