<svg width="108" height="65" viewBox="0 0 108 65" fill="none" xmlns="http://www.w3.org/2000/svg">
<path d="M0.0623591 5.75505C-0.0846409 2.87385 2.29676 -0.03675 5.29556 0.02205C37.4591 -0.00735 69.6227 -0.00735 101.786 0.02205C105.608 -0.09555 107.725 4.13805 107.225 7.54845V43.387C100.405 50.3548 93.4661 57.205 86.5277 64.0846C59.4503 64.0258 32.373 64.0846 5.29556 64.0552C1.82636 64.1434 -0.408041 60.4684 0.0623591 57.2932C0.0623591 40.0942 0.0329591 22.9246 0.0623591 5.75505ZM1.41476 6.22545C1.41476 23.6008 1.41476 40.9762 1.41476 58.3516C1.38536 60.6448 3.35516 62.8792 5.73656 62.6734C32.4612 62.6734 59.1564 62.6734 85.8809 62.6734C92.4959 56.0584 99.1403 49.5022 105.726 42.8284C105.667 30.451 105.726 18.0736 105.697 5.69625C105.726 3.40305 103.727 1.19805 101.345 1.40385C69.4757 1.43325 37.5768 1.40385 5.70716 1.40385C3.11996 1.22745 1.20896 3.78525 1.41476 6.22545Z" fill="black"/>
<path d="M41.1342 18.3086C42.957 18.338 44.7504 18.3086 46.5732 18.338C45.1326 26.9522 43.7214 35.5664 42.2514 44.1806C40.5168 44.1806 38.8116 44.1806 37.077 44.1806C37.2534 43.2398 37.4298 42.3284 37.6062 41.3876C36.5478 42.446 35.5482 43.6808 34.0782 44.21C31.8438 45.0332 28.8744 44.6216 27.522 42.4754C25.9932 40.0058 26.2579 36.9188 26.7282 34.1846C27.375 30.9506 28.7274 27.4814 31.6968 25.7468C34.2252 24.2768 38.106 24.2474 39.723 27.0992C40.1346 24.1592 40.6344 21.2192 41.1342 18.3086ZM35.46 28.9808C33.7254 29.8922 33.1374 31.9796 32.6964 33.7436C32.3436 35.7134 31.8144 37.9772 32.9022 39.8294C34.431 41.564 37.1064 40.0058 37.665 38.1242C38.3118 35.8016 38.7822 33.3614 38.8116 30.9506C38.8998 29.2454 36.93 28.04 35.46 28.9808Z" fill="black"/>
<path d="M51.9533 26.1588C55.3637 24.189 60.4205 24.1302 63.0665 27.3642C64.9481 29.6868 64.8011 32.862 64.3601 35.655C60.2441 35.655 56.1281 35.655 52.0415 35.655C51.6299 37.3602 51.7475 39.7122 53.6879 40.359C55.8929 41.2116 58.0391 39.5946 58.8623 37.5954C60.5381 37.713 62.2139 37.8012 63.8897 37.8894C62.5667 40.5648 60.5381 43.1226 57.5687 44.034C54.8345 44.8572 51.6593 44.8278 49.1897 43.2696C47.2199 42.0054 46.1615 39.7122 46.1027 37.419C45.9557 33.0384 48.0431 28.3932 51.9533 26.1588ZM55.1579 28.8048C53.7173 29.3928 53.1587 30.9804 52.6001 32.3034C54.8639 32.3328 57.1277 32.3328 59.3915 32.274C59.2739 31.1862 59.4503 29.8926 58.5977 29.0694C57.7157 28.1874 56.2457 28.4226 55.1579 28.8048Z" fill="black"/>
<path d="M71.4455 26.3645C74.5619 24.6593 78.3839 24.3653 81.7649 25.3355C83.5289 25.8353 85.1753 27.3641 84.9695 29.3633C84.6167 34.3319 83.1467 39.1829 82.8821 44.1809C81.0887 44.1809 79.2659 44.1809 77.4725 44.1809C77.5313 43.2401 77.6195 42.3287 77.7371 41.3879C76.3553 42.7109 74.8265 44.1515 72.8567 44.4455C70.5635 44.8571 67.5647 44.5043 66.3887 42.1817C65.2127 39.4769 66.6533 36.1841 69.0053 34.6259C71.9453 32.6561 75.6203 32.6267 79.0307 32.3327C79.1483 31.0979 79.6187 29.2751 78.1193 28.7165C76.0025 27.8639 73.7093 29.2163 72.9743 31.2743C71.2985 31.0979 69.6227 30.9215 67.9175 30.7451C68.6819 28.9517 69.7109 27.2465 71.4455 26.3645ZM72.1511 38.4773C71.6219 39.8885 73.0331 41.3879 74.4737 41.0057C77.2667 40.6235 78.4133 37.5659 78.5603 35.0963C76.2377 35.4785 72.7685 35.6549 72.1511 38.4773Z" fill="black"/>
<path d="M1.41473 6.22559C1.20893 3.81479 3.11993 1.22759 5.67773 1.40399C37.5473 1.40399 69.4463 1.43339 101.316 1.40399C103.697 1.19819 105.697 3.40319 105.667 5.69639C105.726 18.0738 105.638 30.4512 105.697 42.8286C99.1403 49.5024 92.4665 56.0586 85.8515 62.6736C59.1269 62.6736 32.4317 62.6736 5.70713 62.6736C3.35513 62.8794 1.35593 60.645 1.38533 58.3518C1.41473 40.9764 1.41473 23.601 1.41473 6.22559ZM21.1127 18.2796C20.1131 24.0714 19.1723 29.8926 18.2021 35.6844C20.0543 35.6844 21.9065 35.6844 23.7881 35.6844C24.7877 29.8926 25.7285 24.1008 26.6693 18.309C24.8171 18.309 22.9649 18.3384 21.1127 18.2796ZM41.1341 18.309C40.6343 21.2196 40.1345 24.1596 39.7229 27.0996C38.1353 24.2772 34.2251 24.2772 31.6967 25.7472C28.7273 27.4818 27.3749 30.951 26.7281 34.185C26.2577 36.9192 25.9931 40.0062 27.5219 42.4758C28.8743 44.622 31.8143 45.0336 34.0781 44.2104C35.5187 43.6812 36.5477 42.4464 37.6061 41.388C37.4297 42.3288 37.2533 43.2402 37.0769 44.181C38.8115 44.181 40.5461 44.181 42.2513 44.181C43.7213 35.5668 45.1031 26.9526 46.5731 18.3384C44.7503 18.309 42.9275 18.309 41.1341 18.309ZM51.9533 26.1588C48.0431 28.3932 45.9557 33.0384 46.1027 37.4484C46.1615 39.7416 47.2199 42.0348 49.1897 43.299C51.6593 44.8572 54.8345 44.8866 57.5687 44.0634C60.5087 43.152 62.5373 40.5942 63.8897 37.9188C62.2139 37.8306 60.5381 37.7424 58.8623 37.6248C58.0391 39.624 55.8929 41.241 53.6879 40.3884C51.7181 39.7416 51.6299 37.3602 52.0415 35.6844C56.1575 35.6844 60.2735 35.6844 64.3601 35.6844C64.8011 32.8914 64.9481 29.7162 63.0665 27.3936C60.4205 24.1302 55.3931 24.189 51.9533 26.1588ZM71.4455 26.3646C69.6815 27.2466 68.6819 28.9812 67.9763 30.7452C69.6521 30.9216 71.3279 31.098 73.0331 31.2744C73.7681 29.2164 76.0613 27.864 78.1781 28.7166C79.6775 29.3046 79.2071 31.1274 79.0895 32.3328C75.6791 32.6268 72.0041 32.6562 69.0641 34.626C66.6827 36.1842 65.2421 39.5064 66.4475 42.1818C67.6235 44.5044 70.5929 44.8572 72.9155 44.4456C74.9147 44.1516 76.4141 42.711 77.7959 41.388C77.6783 42.3288 77.5901 43.2402 77.5313 44.181C79.3247 44.181 81.1475 44.181 82.9409 44.181C83.2055 39.183 84.6755 34.332 85.0283 29.3634C85.2341 27.3936 83.5877 25.8354 81.8237 25.3356C78.4133 24.336 74.5619 24.6594 71.4455 26.3646ZM17.7611 38.6244C17.4377 40.4766 17.1143 42.3288 16.8203 44.2104C18.6725 44.181 20.5247 44.181 22.3475 44.2104C22.7003 42.3582 22.9943 40.506 23.3471 38.6538C21.4655 38.6244 19.6133 38.6244 17.7611 38.6244Z" fill="#FDF000"/>
<path d="M55.158 28.8047C56.2458 28.4225 57.7159 28.1873 58.6273 29.0693C59.4799 29.8925 59.3035 31.1861 59.4211 32.2739C57.1573 32.3327 54.8934 32.3327 52.6296 32.3033C53.1588 30.9803 53.7174 29.3927 55.158 28.8047Z" fill="#FDF000"/>
<path d="M35.46 28.9807C36.93 28.0399 38.8998 29.2159 38.7822 30.9505C38.7822 33.3613 38.2824 35.8015 37.6356 38.1241C37.077 40.0057 34.4016 41.5639 32.8728 39.8293C31.785 37.9771 32.3142 35.7133 32.667 33.7435C33.1374 31.9795 33.7254 29.9215 35.46 28.9807Z" fill="#FDF000"/>
<path d="M72.1512 38.4768C72.798 35.6544 76.2672 35.478 78.5898 35.0664C78.4428 37.536 77.2962 40.5936 74.5032 40.9758C73.0332 41.3874 71.622 39.9174 72.1512 38.4768Z" fill="#FDF000"/>
<path d="M21.1127 18.2793C22.9649 18.3087 24.8171 18.3087 26.6693 18.3087C25.6991 24.1005 24.7877 29.8923 23.7881 35.6841C21.9359 35.6547 20.0543 35.6547 18.2021 35.6841C19.1723 29.8923 20.1131 24.0711 21.1127 18.2793Z" fill="#046FBB"/>
<path d="M17.7611 38.624C19.6133 38.624 21.4949 38.624 23.3471 38.6534C22.9943 40.5056 22.7003 42.3578 22.3475 44.21C20.4953 44.1806 18.6725 44.1806 16.8203 44.21C17.1143 42.3284 17.4377 40.4762 17.7611 38.624Z" fill="#046FBB"/>
</svg>
