<svg width="66" height="91" viewBox="0 0 66 91" fill="none" xmlns="http://www.w3.org/2000/svg">
<path d="M43.6658 33.2436L34.6487 41.6341L26.2812 24.7571L30.6109 15.0515C31.7068 13.1058 33.4949 13.1021 34.5908 15.0515L43.6658 33.2436Z" fill="#FFA000"/>
<path d="M34.6489 41.6349L0.952393 72.9819L26.2815 24.7578L34.6489 41.6349Z" fill="#F57F17"/>
<path d="M53.5282 20.4188C55.1391 18.8704 56.8046 19.3985 57.229 21.5924L66 72.561L36.9247 89.9865C35.9072 90.5484 33.2128 90.7921 33.2128 90.7921C33.2128 90.7921 30.7534 90.498 29.816 89.9778L0.951172 72.9792L53.5282 20.4188Z" fill="#FFCA28"/>
<path d="M26.2815 24.7579L0.952393 72.982L12.2344 2.50116C12.6498 0.30557 13.8996 0.0941265 15.0147 2.03211L26.2815 24.7579Z" fill="#FFA000"/>
</svg>
