<svg width="466" height="233" viewBox="0 0 466 233" fill="none" xmlns="http://www.w3.org/2000/svg">
<path d="M365.5 232.896C346 217.229 299.9 181.996 271.5 166.396C263.667 159.43 249.1 141.7 253.5 126.5C243.111 130.396 228.073 127.921 226.398 132.378C224.456 113.615 217.727 76.1834 204 57.5C203 68.5 172 76.1204 161 62.3957C160.221 60.6429 159.287 58.9538 158.222 57.353C148.761 40.7662 126.686 6.80297 109.5 0C113.5 7 102 61.2914 104 78.3957C99.1667 77.0971 89 71.1 87 57.5C81.5615 81.1965 95.6346 101.705 92.6108 128.801C90.4089 137.162 87.8883 145.655 84.912 154C82.2747 157.833 76.4 163.2 74 154C71 142.5 65 201.791 0 232.896H365.5Z" fill="black"/>
<path d="M193.045 172.38C194.954 181.979 188.603 191.331 178.86 193.268C169.117 195.205 159.673 188.993 157.764 179.394C155.856 169.795 162.207 160.443 171.95 158.507C181.692 156.57 191.137 162.781 193.045 172.38Z" fill="white"/>
<path d="M191.939 172.696C193.174 178.909 190.146 184.747 185.175 185.735C180.204 186.724 175.174 182.488 173.938 176.274C172.703 170.061 175.731 164.223 180.702 163.234C185.673 162.246 190.704 166.482 191.939 172.696Z" fill="black"/>
<path d="M235.045 160.38C236.954 169.979 230.603 179.331 220.86 181.268C211.117 183.205 201.673 176.993 199.764 167.394C197.856 157.795 204.207 148.443 213.95 146.507C223.692 144.57 233.137 150.781 235.045 160.38Z" fill="white"/>
<path d="M233.939 160.696C235.174 166.909 232.146 172.747 227.175 173.735C222.204 174.724 217.174 170.488 215.938 164.274C214.703 158.061 217.731 152.223 222.702 151.234C227.673 150.246 232.704 154.482 233.939 160.696Z" fill="black"/>
<path d="M114.001 87L127.001 177.5C127.834 184.667 131.401 199 139.001 199C148.501 199 148.001 186 148.501 177.5C148.901 170.7 150.667 116.667 151.501 90.5C156.001 87.6667 164.001 77.7 160.001 60.5C163.501 60 165.001 47 157.501 44C151.501 41.6 147.001 48 145.501 51.5C147.667 46.1666 149.601 35.1998 140.001 33.9998C132.448 33.0558 129.558 40.5088 128.75 46.8148C128.628 40.3781 126.572 32.5 119.001 32.5C111.393 32.5 109.413 43.3505 109.618 52.6958C104.746 51.2972 96.0007 52.7 100.001 69.5C102.501 80 111.001 88.1667 114.001 87Z" fill="white"/>
<path d="M128.75 46.8148C129.558 40.5088 132.448 33.0558 140.001 33.9998C149.601 35.1998 147.667 46.1666 145.501 51.5C147.001 48 151.501 41.6 157.501 44C165.001 47 163.501 60 160.001 60.5C164.001 77.7 156.001 87.6667 151.501 90.5C150.667 116.667 148.901 170.7 148.501 177.5C148.001 186 148.501 199 139.001 199C131.401 199 127.834 184.667 127.001 177.5L114.001 87C111.001 88.1667 102.501 80 100.001 69.5C96.0007 52.7 104.746 51.2972 109.618 52.6958M128.75 46.8148C128.531 48.5242 128.465 50.1493 128.501 51.5C128.677 50.1614 128.783 48.5399 128.75 46.8148ZM128.75 46.8148C128.628 40.3781 126.572 32.5 119.001 32.5C111.393 32.5 109.413 43.3505 109.618 52.6958M109.618 52.6958C109.737 58.0922 110.586 62.9866 111.501 65" stroke="black" stroke-width="2" stroke-linecap="round"/>
<path d="M330.5 138.629C313.503 164.479 276.964 186.75 255.16 197.533C250.541 199.817 247.201 204.562 248.685 209.496C249.645 212.688 251.295 215.505 254 216.129C270 220.129 312 204.629 324 195.629C363 169.629 383.5 139.629 385 125.129C385.334 121.9 384.304 118.968 382.446 116.5C382.446 116.5 382.446 116.5 382.446 116.5C391.613 109.5 398 102.9 390 94.5C382.097 86.2015 373.38 97.2275 365.296 108.583C365.265 108.584 365.234 108.586 365.203 108.587C371.368 95.95 380.37 71.1072 368.5 69.129C356.5 67.129 350.167 88.363 348.5 99.5C343.649 97.1646 335 96 330 103.5C325.293 110.56 324.5 126.129 330.5 138.629Z" fill="white"/>
<path d="M337 112.129C335 116.629 339 124 346 123C355.5 121 356 111.629 352.5 104.129C351.507 102 350.191 100.314 348.5 99.5M348.5 99.5C343.649 97.1646 335 96 330 103.5C325.293 110.56 324.5 126.129 330.5 138.629C313.503 164.479 276.964 186.75 255.16 197.533C250.541 199.817 247.201 204.562 248.685 209.496C249.645 212.688 251.295 215.505 254 216.129C270 220.129 312 204.629 324 195.629C363 169.629 383.5 139.629 385 125.129C386.5 110.629 360.5 102.129 355.5 114.629C351.5 124.629 365.5 130.5 373.5 126M348.5 99.5C350.167 88.363 356.5 67.129 368.5 69.129C380.5 71.129 371.167 96.5 365 109M365 109C373.167 97.5 382 86.1 390 94.5C398 102.9 391.613 109.5 382.446 116.5C380.197 113.667 373.558 108.2 365 109Z" stroke="black" stroke-width="2" stroke-linecap="round"/>
<path d="M281.8 87.0479C283.638 91.8739 284.667 104.921 274.08 118.5C291.725 110.512 299.446 94.2037 301.101 87.0479C356.795 84.0525 467.744 74.2674 465.979 59.0905C463.773 40.1194 424.622 0.180238 413.593 8.66731C402.564 17.1544 333.083 5.17263 292.277 27.1392C259.632 44.7124 271.69 74.4005 281.8 87.0479Z" fill="black"/>
<path d="M306.597 57.0396L306.401 55.3328C306.067 52.4101 304.397 50.8499 301.994 51.1249C299.591 51.4 298.317 53.2973 298.651 56.22L298.847 57.9268C299.181 60.8496 300.852 62.4098 303.254 62.1347C305.657 61.8597 306.931 59.9623 306.597 57.0396ZM303.114 60.9114C301.51 61.095 300.402 59.9751 300.15 57.7702L299.956 56.0781C299.704 53.8732 300.53 52.5319 302.134 52.3482C303.738 52.1646 304.846 53.2845 305.098 55.4894L305.292 57.1815C305.545 59.3864 304.718 60.7277 303.114 60.9114ZM315.249 54.9953C314.857 53.3853 313.541 52.5266 311.783 52.7278C309.622 52.9752 308.514 54.4453 308.775 56.7234L308.894 57.7636C309.155 60.0418 310.567 61.2234 312.728 60.976C314.486 60.7747 315.581 59.6475 315.594 58.006L314.363 58.1468C314.313 59.0728 313.603 59.7404 312.577 59.8578C311.193 60.0162 310.316 59.1667 310.121 57.4599L310.039 56.742C309.843 55.0353 310.504 54.0023 311.889 53.8438C312.914 53.7264 313.758 54.2235 314.018 55.1362L315.249 54.9953ZM317.51 52.2281L317.634 53.3049L320.49 52.9778L321.277 59.8489L322.522 59.7063L321.736 52.8353L324.592 52.5082L324.469 51.4314L317.51 52.2281ZM330.445 58.9403C331.602 58.8078 332.412 58.2327 332.696 57.3394L332.82 57.3251L332.957 58.5191L334.144 58.3833L333.521 52.9407C333.331 51.2852 332.153 50.4553 330.285 50.6692C328.659 50.8553 327.528 51.8679 327.527 53.1593L328.75 53.0192C328.878 52.3145 329.478 51.8525 330.393 51.7477C331.499 51.621 332.17 52.1008 332.284 53.097L332.367 53.8149L330.196 54.1747C328.398 54.477 327.483 55.4278 327.644 56.8343C327.809 58.2773 328.929 59.1139 330.445 58.9403ZM330.679 57.8078C329.675 57.9227 328.994 57.4812 328.898 56.6461C328.804 55.8183 329.335 55.2751 330.443 55.0964L332.476 54.7672L332.583 55.7048C332.705 56.767 331.88 57.6702 330.679 57.8078ZM341.193 57.5689C342.929 57.3702 343.858 56.4104 343.694 54.982C343.583 54.0077 342.764 53.3371 341.696 53.3406L341.684 53.2381C342.488 52.9976 342.998 52.2045 342.9 51.3475C342.756 50.0949 341.755 49.4525 340.239 49.6261L336.73 50.0278L337.64 57.9756L341.193 57.5689ZM338.752 56.8613L338.446 54.195L340.446 53.966C341.662 53.8268 342.336 54.2024 342.436 55.0741C342.537 55.9604 342.011 56.4882 340.913 56.614L338.752 56.8613ZM338.34 53.2647L338.065 50.862L340.116 50.6272C341.024 50.5232 341.585 50.882 341.671 51.6365C341.763 52.435 341.263 52.9301 340.259 53.045L338.34 53.2647ZM350.279 56.5287C352.308 56.2965 353.266 55.1998 353.07 53.493C352.876 51.7936 351.695 50.9417 349.666 51.174L347.644 51.4055L347.347 48.8123L346.102 48.9549L347.012 56.9028L350.279 56.5287ZM348.135 55.698L347.764 52.453L349.705 52.2308C351.009 52.0815 351.722 52.601 351.84 53.6339C351.958 54.6667 351.381 55.3265 350.077 55.4758L348.135 55.698ZM368.535 54.5947C370.447 54.3758 371.616 53.2475 371.448 51.7751C371.341 50.8448 370.595 50.2252 369.479 50.1377L369.468 50.0425C370.296 49.7548 370.823 48.9746 370.731 48.1762C370.579 46.8503 369.356 46.1444 367.576 46.3482C365.862 46.5444 364.81 47.5331 364.785 49.0053L365.994 48.8669C366.051 48.0664 366.687 47.5334 367.698 47.4177C368.746 47.2977 369.436 47.6863 369.522 48.4408C369.609 49.1953 369.023 49.7224 367.976 49.8423L366.855 49.9706L366.969 50.9668L368.083 50.8394C369.364 50.6926 370.113 51.0744 370.21 51.9242C370.304 52.7446 369.591 53.3829 368.411 53.5179C367.349 53.6395 366.579 53.2675 366.296 52.4762L365.058 52.6179C365.401 54.0555 366.733 54.801 368.535 54.5947ZM377.121 53.5969C378.278 53.4644 379.088 52.8893 379.372 51.996L379.496 51.9817L379.633 53.1757L380.82 53.0399L380.197 47.5972C380.007 45.9417 378.829 45.1119 376.961 45.3257C375.335 45.5119 374.204 46.5245 374.203 47.8158L375.426 47.6758C375.554 46.9711 376.154 46.509 377.069 46.4042C378.176 46.2776 378.846 46.7574 378.96 47.7536L379.043 48.4715L376.872 48.8313C375.074 49.1336 374.159 50.0844 374.32 51.4908C374.485 52.9339 375.605 53.7705 377.121 53.5969ZM377.355 52.4643C376.351 52.5792 375.67 52.1377 375.575 51.3027C375.48 50.4749 376.011 49.9317 377.119 49.7529L379.152 49.4238L379.259 50.3614C379.381 51.4235 378.556 52.3268 377.355 52.4643ZM389.927 51.9898L389.017 44.042L386.08 44.3783C384.3 44.582 383.27 45.7018 383.454 47.306C383.586 48.456 384.423 49.2211 385.64 49.3489L383.752 52.6968L385.202 52.5307L386.939 49.4154L388.367 49.2519L388.696 52.1307L389.927 51.9898ZM387.907 45.2377L388.251 48.241L386.603 48.4297C385.541 48.5513 384.792 48.036 384.691 47.1569C384.583 46.212 385.197 45.548 386.259 45.4264L387.907 45.2377ZM397.204 51.1568C398.94 50.9581 399.869 49.9983 399.706 48.5698C399.594 47.5956 398.775 46.9249 397.707 46.9285L397.695 46.8259C398.499 46.5855 399.009 45.7924 398.911 44.9354C398.768 43.6827 397.766 43.0404 396.25 43.214L392.741 43.6157L393.651 51.5635L397.204 51.1568ZM394.763 50.4492L394.458 47.7828L396.458 47.5539C397.674 47.4147 398.347 47.7903 398.447 48.662C398.549 49.5483 398.023 50.076 396.924 50.2018L394.763 50.4492ZM394.351 46.8525L394.076 44.4499L396.127 44.2151C397.036 44.1111 397.596 44.4699 397.683 45.2244C397.774 46.0229 397.274 46.5179 396.27 46.6328L394.351 46.8525ZM403.197 42.4187L402.018 42.5537L402.928 50.5015L404.107 50.3665L403.698 46.7918L404.196 46.7348L408.202 49.8978L409.784 49.7166L405.159 46.0086L408.684 41.7906L407.19 41.9616L404.075 45.7394L403.584 45.7956L403.197 42.4187ZM413.349 52.1732C414.821 52.0046 415.421 51.3496 415.893 49.3141L417.946 40.7303L416.62 40.8821L415.162 47.7874L415.067 47.7983L412.078 41.402L410.723 41.5571L414.562 49.2216L414.472 49.6698C414.248 50.6305 413.876 51.0144 413.129 51.0999C413.012 51.1133 412.784 51.132 412.686 51.1209L412.811 52.2124C412.923 52.2145 413.165 52.1941 413.349 52.1732ZM424.592 48.066C425.317 47.9829 425.848 47.3062 425.763 46.559C425.678 45.8192 425.008 45.2799 424.283 45.363C423.557 45.446 423.026 46.1227 423.111 46.8626C423.197 47.6098 423.867 48.149 424.592 48.066ZM423.948 42.4402C424.673 42.3572 425.203 41.6731 425.119 40.9333C425.034 40.1934 424.363 39.6469 423.638 39.7299C422.912 39.8129 422.382 40.497 422.467 41.2368C422.552 41.9767 423.223 42.5232 423.948 42.4402ZM430.75 35.5762C432.51 37.5342 433.361 39.3292 433.624 41.6293C433.888 43.9294 433.464 45.8703 432.192 48.1755L433.43 48.0338C434.698 46.2114 435.199 43.9723 434.914 41.4817C434.629 38.9985 433.635 36.9231 431.988 35.4345L430.75 35.5762Z" fill="white"/>
</svg>
