<svg  viewBox="0 0 1270 301" fill="none" xmlns="http://www.w3.org/2000/svg">
<path d="M747.219 80.7986C776.411 80.7986 798.243 89.875 812.716 108.028C827.435 126.18 834.794 155.495 834.794 195.97V292.073C834.794 293.46 833.67 294.584 832.284 294.584H791.309C789.923 294.584 788.799 293.46 788.799 292.073V195.97C788.799 172.666 784.383 155.495 775.552 144.456C766.721 133.417 752.861 127.898 733.973 127.898C714.594 127.898 699.262 134.521 687.978 147.767C676.694 160.769 671.051 179.535 671.051 204.065V292.073C671.051 293.46 669.928 294.584 668.541 294.584H626.463C625.076 294.584 623.953 293.46 623.953 292.073V86.502C623.953 86.4004 623.87 86.318 623.769 86.318C623.667 86.318 623.585 86.2357 623.585 86.1341V2.72563C623.585 1.33923 624.708 0.215332 626.095 0.215332H667.795C669.181 0.215332 670.305 1.33985 670.305 2.72665L670.258 118.886C670.257 121.57 674.165 122.514 675.519 120.197C677.847 116.212 680.178 112.632 682.247 109.456L682.458 109.132C689.327 98.3381 697.913 90.9789 708.216 87.054C718.764 82.8838 731.765 80.7986 747.219 80.7986Z" fill="#FF522C"/>
<path d="M87.291 186.771C87.291 208.604 88.3949 223.322 90.6026 230.926C92.8104 238.531 97.9619 243.437 106.057 245.645C114.1 247.537 129.33 248.517 151.747 248.585C153.133 248.589 154.26 249.712 154.26 251.099V292.073C154.26 293.46 153.13 294.584 151.744 294.579C116.756 294.445 91.7151 291.503 76.6202 285.753C61.1658 279.865 51.3535 270.053 47.1833 256.316C43.2584 242.333 41.296 219.152 41.296 186.771V135.927C41.296 134.541 40.1721 133.417 38.7857 133.417H3.33061C1.94421 133.417 0.820312 132.293 0.820312 130.907V88.8283C0.820312 87.4419 1.94421 86.318 3.33061 86.318H38.7857C40.1721 86.318 41.296 85.1941 41.296 83.8077V17.444C41.296 16.0576 42.4198 14.9337 43.8062 14.9337H84.7807C86.1671 14.9337 87.291 16.0576 87.291 17.444V83.8077C87.291 85.1941 88.4149 86.318 89.8013 86.318H151.382C152.768 86.318 153.892 87.4419 153.892 88.8283V130.907C153.892 132.293 152.768 133.417 151.382 133.417H89.8013C88.4149 133.417 87.291 134.541 87.291 135.927V186.771Z" fill="#FF522C"/>
<path fill-rule="evenodd" clip-rule="evenodd" d="M273.7 84.1103C308.289 84.1103 334.046 92.2054 350.972 108.396C367.898 124.341 376.361 148.503 376.361 180.884V292.073C376.361 293.46 375.237 294.584 373.851 294.584H333.863C332.477 294.584 331.353 293.46 331.353 292.073V252.882C331.353 249.813 324.965 248.998 323.856 251.86C311.487 283.777 288.554 299.735 253.462 299.735C228.196 299.735 209.307 294.338 196.797 283.545C184.286 272.751 178.031 257.42 178.031 237.55C178.031 216.208 186.494 199.527 203.42 187.507C220.346 175.487 244.754 169.477 276.644 169.477H327.338C328.911 169.477 330.1 168.044 329.733 166.514C326.979 155.013 321.303 146.433 312.704 140.776C303.628 134.398 290.626 131.209 273.7 131.209C261.926 131.209 251.991 133.662 243.896 138.568C236.33 142.924 229.085 149.638 222.162 158.708C221.343 159.781 219.829 160.047 218.71 159.29L185.289 136.682C184.13 135.898 183.835 134.315 184.65 133.178C196.045 117.283 208.679 105.22 222.554 96.9889C237.272 88.4032 254.321 84.1103 273.7 84.1103ZM260.454 252.268C281.06 252.268 296.882 247.853 307.921 239.022C318.323 230.7 325.131 218.674 328.345 202.945C328.657 201.421 327.473 200.018 325.917 200.018H276.644C258.982 200.018 245.981 202.348 237.64 207.009C229.3 211.425 225.13 218.293 225.13 227.615C225.13 234.974 228.073 240.984 233.961 245.645C239.848 250.06 248.679 252.268 260.454 252.268Z" fill="#FF522C"/>
<path d="M499.875 300.103C545.863 300.103 578.616 282.615 598.136 247.64C598.763 246.516 598.413 245.098 597.345 244.379L564.131 222.017C562.985 221.246 561.435 221.547 560.629 222.668C546.086 242.892 527.061 253.004 503.555 253.004C485.647 253.004 471.174 247.607 460.135 236.814C449.097 225.775 443.577 210.811 443.577 191.923C443.577 174.015 449.097 159.419 460.135 148.135C471.42 136.851 485.893 131.209 503.555 131.209C516.556 131.209 527.718 133.908 537.039 139.304C546.116 144.192 555.081 152.943 563.937 165.558C564.737 166.697 566.306 166.996 567.453 166.208L599.989 143.86C601.026 143.148 601.378 141.776 600.79 140.665C591.3 122.728 578.268 108.905 561.693 99.1967C544.521 89.1391 523.915 84.1103 499.875 84.1103C480.496 84.1103 462.834 88.8938 446.889 98.4607C431.189 108.028 418.801 121.152 409.725 137.832C400.894 154.268 396.478 172.298 396.478 191.923C396.478 211.547 400.894 229.7 409.725 246.381C418.801 262.816 431.189 275.94 446.889 285.753C462.834 295.32 480.496 300.103 499.875 300.103Z" fill="#FF522C"/>
<path fill-rule="evenodd" clip-rule="evenodd" d="M906.089 285.385C922.034 295.197 939.696 300.103 959.075 300.103C978.455 300.103 996.117 295.197 1012.06 285.385C1028.01 275.572 1040.52 262.203 1049.59 245.277C1058.67 228.351 1063.21 209.83 1063.21 189.715C1063.21 169.845 1058.67 151.57 1049.59 134.889C1048.62 133.103 1047.61 131.356 1046.56 129.649C1025.67 86.7784 985.51 62.7306 949.66 50.4678C947.567 49.7518 945.616 51.9793 946.314 54.0783C947.704 58.2548 948.457 62.7224 948.457 67.3658C948.457 90.588 929.632 109.413 906.409 109.413C895.744 109.413 886.006 105.442 878.594 98.8985C877.337 97.7894 875.342 98.0421 874.583 99.5361C874.097 100.491 873.619 101.482 873.147 102.51C861.124 128.706 856.642 153.628 855.48 174.662C854.876 179.574 854.575 184.591 854.575 189.715C854.575 209.83 859.113 228.351 868.189 245.277C877.511 262.203 890.144 275.572 906.089 285.385ZM1001.39 236.446C990.843 248.466 976.738 254.476 959.075 254.476C941.659 254.476 927.553 248.466 916.76 236.446C905.966 224.181 900.57 208.726 900.57 190.083C900.57 171.685 905.966 156.476 916.76 144.456C927.553 132.19 941.659 126.058 959.075 126.058C976.738 126.058 990.843 132.068 1001.39 144.088C1011.94 156.108 1017.21 171.44 1017.21 190.083C1017.21 208.726 1011.94 224.181 1001.39 236.446Z" fill="#FF522C"/>
<path d="M1121.74 219.764C1122.96 219.215 1124.39 219.722 1125.03 220.898C1130.72 231.399 1137.71 239.525 1146 245.277C1155.07 251.164 1166.6 254.108 1180.58 254.108C1210.51 254.108 1225.48 247.607 1225.48 234.606C1225.48 228.228 1222.53 223.322 1216.64 219.888C1210.76 216.453 1199.47 213.142 1182.79 209.953L1169.55 207.377C1141.58 202.226 1121.34 194.376 1108.83 183.828C1096.32 173.034 1090.07 158.806 1090.07 141.144C1090.07 130.841 1093.01 121.397 1098.9 112.811C1105.03 104.225 1114.35 97.3569 1126.86 92.2054C1139.62 86.8087 1155.32 84.1103 1173.96 84.1103C1198 84.1103 1217.14 89.0164 1231.36 98.8287C1245.03 108.02 1256.44 121.738 1265.58 139.985C1266.2 141.228 1265.67 142.734 1264.41 143.332L1229.37 160.036C1228.2 160.591 1226.81 160.169 1226.12 159.077C1219.35 148.334 1212.15 140.762 1204.5 136.361C1196.41 131.455 1186.23 129.001 1173.96 129.001C1160.22 129.001 1150.29 130.719 1144.16 134.153C1138.27 137.342 1135.33 141.635 1135.33 147.032C1135.33 152.674 1137.66 157.089 1142.32 160.278C1147.22 163.467 1156.3 166.533 1169.55 169.477L1182.79 172.053C1205.85 176.223 1223.64 181.374 1236.15 187.507C1248.9 193.64 1257.73 200.754 1262.64 208.849C1267.55 216.699 1270 226.266 1270 237.55C1270 247.853 1266.81 257.788 1260.43 267.355C1254.3 276.676 1244.49 284.281 1231 290.168C1217.5 296.055 1200.7 298.999 1180.58 298.999C1155.81 298.999 1135.57 294.338 1119.87 285.017C1104.99 275.806 1092.05 261.137 1081.03 241.011C1080.34 239.74 1080.88 238.151 1082.2 237.556L1121.74 219.764Z" fill="#FF522C"/>
</svg>
