<svg width="457" height="291" viewBox="0 0 457 291" fill="none" xmlns="http://www.w3.org/2000/svg">
<path d="M340.001 76.7522C304.437 71.2544 269.071 66.5865 233.783 63.6282M233.783 63.6282C211.84 61.7887 189.926 60.6103 168.014 60.3044C133.868 59.8277 96.756 61.0772 66.4763 69.0848C44.7435 74.8322 19.0442 85.5103 20.1863 104.532C22.0506 135.584 66.7567 156.664 104.57 169.702C165.594 190.745 231.136 203.116 294.745 205.36C339.257 206.93 398.42 206.041 424.658 181.534C445.059 162.48 426.734 134.737 400.006 116.642C354.203 85.6334 290.291 74.7762 233.783 63.6282ZM233.783 63.6282C231.934 63.2635 227.812 62.3423 225.98 61.9762" stroke="#FF4D0D" stroke-width="5.994" stroke-linecap="round"/>
<path d="M80.7757 120.714C78.722 119.01 77.3706 117.571 76.7214 116.397C76.0662 115.274 76.4868 114.354 77.9832 113.637C78.317 113.467 78.7868 113.704 79.3925 114.35C80.0559 114.951 80.5931 115.51 81.0041 116.029C81.9295 117.078 83.1293 117.793 84.6033 118.173C86.1231 118.611 87.8685 118.682 89.8395 118.387C92.0868 117.967 94.0798 117.255 95.8187 116.252C97.6152 115.204 99.3384 113.886 100.988 112.297C102.234 111.028 103.157 109.617 103.755 108.063C104.36 106.458 104.692 104.952 104.75 103.545C104.86 102.145 104.689 101.13 104.238 100.502C103.156 98.545 101.492 97.0959 99.2454 96.1552C97.0563 95.1688 94.3643 94.9094 91.1693 95.377C90.8017 95.3868 90.2474 95.4273 89.5063 95.4985C88.7652 95.5697 88.1015 95.6499 87.5154 95.7391C86.9352 95.7766 86.6193 95.7924 86.5676 95.7864C86.1941 95.8478 85.895 95.944 85.6705 96.0751C85.4519 96.1545 85.1488 96.512 84.7611 97.1476C84.431 97.7375 83.8862 98.8261 83.1265 100.413C82.3729 101.949 81.2454 104.226 79.7441 107.246C78.2945 110.271 77.1561 112.416 76.3291 113.681C75.5597 114.901 74.9227 115.429 74.4181 115.266C73.9712 115.057 73.4429 114.42 72.8334 113.355C72.5039 112.584 72.3264 111.857 72.3009 111.173C72.2813 110.438 72.5836 109.636 73.2079 108.766C73.52 108.331 73.7745 107.941 73.9713 107.598C74.1741 107.202 74.4615 106.529 74.8334 105.578C75.1814 104.833 75.8277 103.546 76.7722 101.719C77.7743 99.8458 78.9415 97.6776 80.2736 95.2145C81.6118 92.6998 83.0106 90.1135 84.47 87.4558C85.9295 84.798 87.3193 82.2892 88.6395 79.9294C90.0114 77.5756 91.1576 75.5883 92.0782 73.9674C92.9868 72.4499 93.5604 71.3385 93.7992 70.6333C94.0379 69.928 94.0311 69.5347 93.7788 69.4531C93.8087 69.1948 93.7581 68.9534 93.6271 68.7288C93.502 68.4526 93.4773 68.2142 93.5529 68.0135C93.5768 67.8069 93.9455 67.5617 94.6588 67.2779C95.4239 67.0001 96.2376 66.754 97.1 66.5398C98.014 66.3316 98.6975 66.306 99.1504 66.4632C99.4087 66.4931 99.7186 66.529 100.08 66.5708C100.448 66.5611 100.643 66.4529 100.667 66.2462C100.822 66.2642 101.319 66.2694 102.158 66.2618C102.996 66.2542 103.9 66.3588 104.869 66.5758C108.294 67.2865 110.864 68.6048 112.578 70.5308C114.297 72.4051 114.964 74.7855 114.577 77.6722C114.424 78.5444 113.822 79.6786 112.77 81.0749C111.77 82.4772 110.563 83.8555 109.15 85.21C107.789 86.5704 106.48 87.7013 105.224 88.6028C104.487 89.0933 103.695 89.6035 102.848 90.1337C102.059 90.6181 101.357 91.0341 100.74 91.3815C100.182 91.6833 99.9028 91.8342 99.9028 91.8342C99.9028 91.8342 100.1 91.9356 100.496 92.1384C100.891 92.3412 101.312 92.547 101.759 92.7558C104.034 93.9091 105.868 95.247 107.262 96.7695C108.656 98.292 109.5 100.274 109.793 102.716C109.91 103.515 109.799 104.47 109.461 105.583C109.174 106.701 108.81 107.811 108.369 108.911C107.933 109.96 107.49 110.851 107.038 111.584C106.635 111.904 106.306 112.258 106.051 112.648C105.803 112.985 105.679 113.154 105.679 113.154C105.667 113.257 105.412 113.647 104.915 114.322C104.424 114.946 103.847 115.638 103.183 116.399C102.519 117.159 101.893 117.82 101.304 118.38C100.74 118.733 100.063 119.152 99.2744 119.636C98.5371 120.127 97.6994 120.58 96.7615 120.994C95.8752 121.415 94.9204 121.75 93.8971 121.998C92.379 122.45 90.7556 122.681 89.0271 122.69C87.3442 122.757 85.7658 122.6 84.2917 122.22C82.8117 121.892 81.6397 121.389 80.7757 120.714ZM88.0268 91.3226C88.0268 91.3226 88.5007 91.299 89.4484 91.2517C90.4538 91.1587 91.5366 91.0747 92.697 90.9997C93.8633 90.873 94.7167 90.7363 95.2572 90.5895C95.5334 90.4644 95.9189 90.2997 96.4137 90.0952C96.9601 89.8968 97.5216 89.5692 98.0979 89.1125C98.8989 88.5247 99.9135 87.6738 101.142 86.5597C102.428 85.3999 103.694 84.1855 104.94 82.9164C106.192 81.5957 107.168 80.4 107.868 79.3294C109.272 77.6075 110.076 76.3134 110.281 75.4472C110.492 74.5294 110.3 73.6958 109.707 72.9466C109.308 72.3245 108.549 71.8702 107.43 71.5836C106.369 71.2514 105.213 71.0652 103.962 71.0249C102.716 70.933 101.639 70.9653 100.731 71.1219C100.036 71.2508 99.4891 71.4492 99.0916 71.7173C98.7001 71.9337 98.4714 72.326 98.4056 72.8942C98.3518 73.3591 98.143 73.806 97.7792 74.235C97.4731 74.6184 97.176 74.9242 96.8878 75.1526C96.7942 75.5082 96.6262 75.829 96.3837 76.115C96.1472 76.3493 96.0289 76.4665 96.0289 76.4665C96.005 76.6731 95.5447 77.4835 94.6481 78.8978C93.7514 80.312 92.8279 81.9587 91.8774 83.8379C90.6904 85.9513 89.7579 87.6755 89.0798 89.0104C88.4077 90.2936 88.0567 91.0643 88.0268 91.3226ZM111.318 117.027C110.895 116.611 110.601 116.211 110.436 115.825C110.323 115.446 110.404 114.748 110.679 113.733C111.001 112.305 111.354 111.063 111.738 110.008C112.128 108.902 112.587 107.646 113.117 106.242C113.292 105.634 113.698 104.608 114.337 103.164C115.027 101.726 115.835 100.17 116.762 98.4978C117.688 96.8252 118.603 95.256 119.505 93.7901C120.414 92.2726 121.171 91.1563 121.778 90.4413C122.227 90.1792 122.733 90.1069 123.295 90.2244C123.909 90.3478 124.398 90.6401 124.764 91.1012C125.278 91.6319 125.26 92.4673 124.709 93.6075C124.216 94.702 123.232 96.4202 121.756 98.7621C120.975 100.085 120.387 101.09 119.994 101.777C119.606 102.413 119.429 102.811 119.463 102.972C119.503 103.081 119.744 103.031 120.187 102.821C120.563 102.288 121.206 101.708 122.116 101.081C123.032 100.402 123.997 99.7544 125.011 99.1389C126.024 98.5234 126.977 97.9795 127.869 97.507C128.762 97.0345 129.372 96.7387 129.7 96.6196C130.143 96.4092 130.632 96.2564 131.166 96.1613C131.758 96.0204 132.164 95.9103 132.382 95.831C133.636 95.4003 134.874 95.3343 136.096 95.6328C137.317 95.9314 138.038 96.486 138.258 97.2967C138.262 97.7159 138.381 98.0438 138.616 98.2803C138.902 98.5228 139.045 98.6441 139.045 98.6441C139.251 98.668 139.346 98.7575 139.328 98.9124C139.361 99.0734 139.378 99.1538 139.378 99.1538C139.336 99.5154 139.025 99.715 138.445 99.7525C137.923 99.7443 137.245 99.7182 136.413 99.6741C135.735 99.648 135.126 99.7084 134.586 99.8552C134.045 100.002 133.396 100.188 132.636 100.415C130.542 101.324 128.528 102.216 126.594 103.091C124.713 103.973 122.84 105.222 120.978 106.838C120.569 107.21 120.15 107.658 119.723 108.185C119.296 108.711 118.836 109.286 118.345 109.91C118.057 110.138 117.733 110.676 117.373 111.525C117.013 112.373 116.682 113.198 116.38 114.001C116.135 114.758 116.004 115.214 115.986 115.369C115.986 115.369 115.878 115.618 115.664 116.116C115.455 116.563 115.143 116.998 114.727 117.421C114.012 118.176 113.447 118.529 113.034 118.482C112.621 118.434 112.049 117.949 111.318 117.027ZM140.943 120.457C139.751 121.261 138.423 121.657 136.958 121.645C135.546 121.638 134.201 121.273 132.924 120.549C131.652 119.774 130.649 118.716 129.915 117.374C129.168 116.136 128.75 114.779 128.659 113.303C128.574 111.775 128.773 109.835 129.254 107.483C129.643 105.486 130.522 103.546 131.891 101.663C133.267 99.7286 134.848 98.0534 136.635 96.6375C138.473 95.2277 140.229 94.3055 141.902 93.8711C142.737 93.4443 143.409 93.2866 143.92 93.3981C144.488 93.4639 145.335 93.6142 146.459 93.8491C147.629 94.1417 148.48 94.4758 149.013 94.8516C149.597 95.2333 150.039 95.7033 150.341 96.2618C151.026 97.1263 151.453 97.9609 151.622 98.7657C151.796 99.5188 151.842 100.257 151.758 100.98C151.42 102.093 150.483 103.397 148.949 104.895C147.472 106.347 145.615 107.466 143.377 108.254C142.199 108.484 140.941 108.496 139.604 108.288C138.267 108.081 137.196 107.617 136.389 106.895C135.456 106.368 134.801 106.371 134.425 106.904C134.056 107.384 133.622 108.643 133.124 110.679C132.69 112.618 132.678 114.082 133.087 115.072C133.502 116.01 134.139 116.607 134.999 116.864C136.009 117.19 136.791 117.438 137.347 117.607C137.961 117.73 138.737 117.584 139.675 117.17C140.562 116.749 141.111 116.524 141.324 116.497C141.542 116.417 141.709 116.332 141.824 116.241C141.997 116.104 142.372 115.807 142.948 115.35C143.352 115.03 143.666 114.805 143.89 114.674C144.121 114.491 144.365 114.415 144.624 114.445C144.882 114.475 145.099 114.631 145.276 114.913C145.459 115.143 145.647 115.322 145.842 115.45C146.359 115.509 146.426 115.831 146.044 116.415C145.714 117.005 145.085 117.691 144.157 118.474C143.235 119.205 142.164 119.866 140.943 120.457ZM142.768 104.022C143.366 103.83 144.002 103.537 144.676 103.144C145.356 102.699 145.935 102.216 146.414 101.696C146.951 101.13 147.243 100.64 147.291 100.227C147.375 99.504 147.108 98.8711 146.49 98.3284C145.878 97.7341 144.88 97.54 143.495 97.7461C142.909 97.8352 142.218 98.1479 141.423 98.684C140.634 99.1684 139.862 99.7334 139.107 100.379C138.403 101.03 137.812 101.616 137.333 102.136C136.906 102.663 136.738 102.983 136.829 103.099C136.954 103.375 137.369 103.632 138.074 103.871C138.786 104.058 139.583 104.177 140.467 104.227C141.403 104.283 142.17 104.215 142.768 104.022ZM155.161 122.575C154.736 122.63 154.188 122.619 153.516 122.541C152.851 122.412 152.266 122.266 151.761 122.103C151.314 121.894 151.1 121.712 151.118 121.557C151.148 121.299 151.033 121.155 150.775 121.125C150.775 121.125 150.658 121.006 150.424 120.77C150.241 120.539 149.929 120.294 149.488 120.033C149.107 119.256 148.964 118.455 149.06 117.628C149.162 116.75 149.553 115.408 150.233 113.602C150.537 112.329 151.202 110.888 152.225 109.279C153.307 107.624 154.572 105.965 156.021 104.301C157.47 102.636 158.95 101.159 160.461 99.8678C162.023 98.583 163.411 97.6706 164.625 97.1307C165.432 96.4913 166.355 96.2056 167.394 96.2735C168.433 96.3415 169.388 96.6876 170.258 97.3119C170.744 97.6299 171.213 98.103 171.664 98.731C172.115 99.359 172.534 100.036 172.921 100.761C173.308 101.486 173.618 102.203 173.85 102.91C173.939 103.496 173.957 104.022 173.903 104.487C173.906 104.906 173.847 105.423 173.723 106.036C173.651 106.656 173.466 107.577 173.168 108.799C172.802 109.699 172.438 110.808 172.076 112.127C171.765 113.452 171.553 114.606 171.439 115.587C171.222 116.557 171.245 117.266 171.507 117.715C171.821 118.17 172.334 118.256 173.048 117.972C173.703 117.734 174.312 117.673 174.875 117.791C175.443 117.857 175.864 118.063 176.138 118.408C176.464 118.76 176.591 119.246 176.519 119.866C176.447 120.486 176.062 121.095 175.365 121.695C174.725 122.249 173.939 122.708 173.007 123.071C172.133 123.389 171.308 123.503 170.533 123.413C169.965 123.347 169.461 122.948 169.023 122.217C168.59 121.434 168.224 120.528 167.924 119.499C167.682 118.424 167.46 117.403 167.258 116.438L166.999 114.602L163.3 117.393C162.544 118.038 161.795 118.632 161.052 119.174C160.366 119.67 159.931 120.039 159.746 120.279C159.434 120.714 158.889 121.122 158.112 121.503C157.387 121.89 156.403 122.248 155.161 122.575ZM155.923 118.03C156.861 117.616 157.955 116.983 159.205 116.133C160.461 115.232 161.701 114.25 162.923 113.187C164.151 112.073 165.187 111.042 166.03 110.092C167.045 109.006 167.845 107.973 168.43 106.994C169.014 106.015 169.464 105.072 169.778 104.166C169.637 103.574 169.37 102.941 168.977 102.267C168.59 101.542 168.219 101.133 167.863 101.039C166.727 100.908 165.429 101.49 163.97 102.787C162.569 104.038 161.179 105.421 159.799 106.937C159.563 107.171 159.231 107.551 158.803 108.078C158.376 108.604 157.952 109.104 157.53 109.579C157.166 110.008 156.924 110.294 156.803 110.437C156.624 110.626 156.245 111.184 155.666 112.112C155.146 112.994 154.622 113.901 154.095 114.835C153.574 115.717 153.295 116.313 153.26 116.623C153.224 116.933 153.211 117.271 153.22 117.639C153.282 118.012 153.513 118.275 153.914 118.426C154.316 118.577 154.985 118.445 155.923 118.03ZM176.515 126.932C176.119 126.729 175.716 126.369 175.305 125.85C174.9 125.28 174.581 124.641 174.349 123.933C174.117 123.226 174.034 122.588 174.1 122.02C174.424 121.482 174.873 120.539 175.448 119.192C176.029 117.794 176.737 116.201 177.572 114.413C178.051 113.892 178.439 113.257 178.735 112.506C179.083 111.761 179.396 111.091 179.675 110.495C180.183 109.716 180.797 108.714 181.515 107.488C182.238 106.211 182.936 104.931 183.608 103.648C184.338 102.319 184.963 101.213 185.484 100.331C186.317 99.0146 187.032 97.8148 187.628 96.7322C188.283 95.604 188.911 94.4728 189.513 93.3385C190.168 92.2103 190.859 90.9817 191.589 89.6529C192.376 88.2783 193.167 86.8779 193.96 85.4517C194.805 84.0315 195.529 82.7543 196.131 81.6201C196.791 80.4402 197.203 79.5979 197.366 79.0933C197.414 78.6801 197.527 78.3791 197.706 78.1905C197.937 78.0078 198.155 77.9284 198.362 77.9523C198.593 77.7696 198.811 77.6902 199.018 77.7142C199.23 77.6864 199.44 77.6845 199.647 77.7085C199.853 77.7324 200.196 78.1647 200.674 79.0053C201.204 79.8519 201.434 80.5851 201.362 81.205C201.266 82.0315 200.673 83.5333 199.584 85.7104C198.546 87.8934 197.136 90.3476 195.355 93.0727C193.156 96.6918 191.37 99.6783 189.999 102.032C188.633 104.334 187.671 106.081 187.114 107.273C186.564 108.413 186.331 109.067 186.416 109.234C186.416 109.234 186.796 109.121 187.555 108.895C188.32 108.617 189.152 108.216 190.05 107.692C190.654 107.447 191.319 107.132 192.044 106.745C192.769 106.358 193.466 105.993 194.134 105.652C194.807 105.259 195.357 105.034 195.782 104.979C196.45 104.637 197.14 104.325 197.854 104.041C198.573 103.706 199.048 103.446 199.278 103.264C200.204 102.952 200.865 102.898 201.26 103.101C201.707 103.309 202.127 103.751 202.52 104.424C203.011 105.162 203.045 105.768 202.624 106.242C202.209 106.665 201.282 107.212 199.843 107.883C198.68 108.429 197.27 109.077 195.613 109.828C194.007 110.584 192.569 111.255 191.297 111.841C190.077 112.432 189.38 112.796 189.207 112.933C189.207 112.933 189.369 113.345 189.693 114.167C190.016 114.99 190.349 115.735 190.69 116.403C191.007 117.277 191.357 118.103 191.738 118.88C192.177 119.611 192.381 120.106 192.351 120.364C192.734 122.032 193.452 123.292 194.504 124.147C195.557 125.002 196.736 125.217 198.042 124.792C199.123 124.499 199.887 124.456 200.334 124.665C200.832 124.88 201.149 125.309 201.284 125.953C201.442 126.39 201.458 126.706 201.331 126.901C201.261 127.05 200.881 127.398 200.189 127.946C199.094 128.814 198.015 129.317 196.952 129.456C195.941 129.601 195.046 129.418 194.267 128.91C193.486 128.871 192.587 128.27 191.571 127.105C190.56 125.889 189.154 123.789 187.353 120.806C187.377 120.6 187.307 120.304 187.142 119.918C187.035 119.487 186.899 119.079 186.734 118.693C186.575 118.256 186.368 117.787 186.112 117.286C185.862 116.734 185.737 116.458 185.737 116.458C185.761 116.251 185.71 116.01 185.585 115.733C185.46 115.457 185.289 115.123 185.073 114.732C184.276 114.378 183.664 114.464 183.237 114.99C182.81 115.517 182.353 116.066 181.868 116.638C181.532 117.279 181.086 118.196 180.529 119.388C180.03 120.534 179.585 121.661 179.196 122.767C178.857 123.879 178.716 124.648 178.771 125.074C178.676 125.9 178.481 126.453 178.187 126.733C177.898 126.962 177.341 127.028 176.515 126.932ZM201.877 126.414C201.67 126.39 201.418 126.309 201.12 126.17C200.88 125.985 200.759 125.892 200.759 125.892C200.783 125.686 200.736 125.418 200.617 125.091C200.549 124.769 200.528 124.504 200.552 124.298C200.214 124.049 200.031 123.819 200.003 123.606C199.982 123.342 200.107 122.938 200.379 122.393C200.749 121.913 201.258 121.134 201.906 120.058C202.56 118.929 203.249 117.727 203.973 116.449C204.703 115.12 205.404 113.814 206.076 112.531C206.748 111.248 207.319 110.162 207.788 109.275C208.263 108.335 208.538 107.765 208.614 107.564C208.638 107.358 208.745 107.108 208.936 106.816C209.127 106.524 209.338 106.287 209.568 106.104C210.023 105.791 210.465 105.816 210.894 106.179C211.329 106.491 211.663 107.001 211.895 107.709C212.185 108.37 212.285 109.089 212.195 109.863C212.153 110.225 211.787 111.125 211.097 112.563C210.413 113.95 209.516 115.599 208.404 117.512C207.344 119.431 206.178 121.364 204.906 123.31C203.958 124.718 203.356 125.617 203.102 126.007C202.853 126.344 202.445 126.48 201.877 126.414ZM216.667 98.3676C216.048 98.2958 215.403 97.9856 214.734 97.437C214.122 96.8427 213.6 96.154 213.167 95.371C212.792 94.5424 212.649 93.7406 212.739 92.9658C212.769 92.7075 212.965 92.3639 213.329 91.9349C213.693 91.5059 214.057 91.0769 214.421 90.6479C214.784 90.2189 214.972 89.9527 214.984 89.8494C215.397 89.8973 215.704 89.959 215.905 90.0346C216.163 90.0645 216.461 90.2037 216.799 90.4522C217.218 91.8094 217.792 92.949 218.523 93.8712C219.305 94.7994 219.664 95.5476 219.598 96.1158C219.466 97.2522 219.279 97.9634 219.037 98.2494C218.8 98.4837 218.01 98.5231 216.667 98.3676ZM234.67 133.117C234.154 133.057 233.644 132.711 233.142 132.077C232.691 131.449 232.307 130.697 231.989 129.823C231.73 128.903 231.644 128.056 231.734 127.281C231.824 126.506 232.172 125.081 232.779 123.005C233.438 120.935 234.177 118.848 234.996 116.744C235.565 115.449 235.784 114.689 235.653 114.464C235.522 114.24 234.791 114.443 233.462 115.074C232.697 115.352 232.006 115.665 231.39 116.012C230.78 116.308 230.242 116.665 229.774 117.082C229.492 117.258 229.066 117.549 228.496 117.954C227.925 118.359 227.332 118.736 226.716 119.083C225.985 119.522 225.049 120.146 223.908 120.956C222.767 121.767 221.626 122.577 220.485 123.387C219.396 124.203 218.564 124.839 217.987 125.296C217.86 125.491 217.684 125.654 217.46 125.785C217.235 125.916 216.991 125.992 216.726 126.014C216.468 125.984 216.19 125.899 215.892 125.76C215.342 125.539 214.838 125.141 214.381 124.565C213.976 123.994 213.813 123.373 213.891 122.702C213.95 122.185 214.259 121.331 214.815 120.139C215.378 118.896 216.1 117.409 216.981 115.679C217.913 113.954 218.961 112.139 220.124 110.232C220.309 109.992 220.474 109.697 220.619 109.347C220.771 108.946 220.899 108.516 221.004 108.057C221.162 107.604 221.264 107.171 221.312 106.758C221.342 106.499 221.398 106.244 221.479 105.992C221.618 105.694 221.755 105.422 221.888 105.175C222.079 104.883 222.232 104.692 222.347 104.6C222.601 104.211 222.975 104.15 223.468 104.416C223.966 104.631 224.363 105.043 224.659 105.653C225.35 106.466 225.633 107.415 225.507 108.5C225.433 109.591 225.02 110.904 224.266 112.439C224.017 112.777 223.795 113.117 223.598 113.461C223.459 113.759 223.323 114.031 223.189 114.277C223.062 114.472 222.964 114.644 222.894 114.793C222.83 114.89 222.799 114.939 222.799 114.939C223.005 114.963 223.497 114.784 224.274 114.403C225.051 114.022 225.963 113.604 227.01 113.15C227.851 112.671 228.582 112.232 229.204 111.833C229.884 111.388 230.446 111.061 230.889 110.85C231.338 110.588 231.614 110.463 231.717 110.475C231.924 110.499 232.191 110.452 232.519 110.333C232.847 110.213 233.126 110.063 233.357 109.88C233.587 109.697 233.754 109.612 233.857 109.624C234.018 109.59 234.099 109.573 234.099 109.573C234.099 109.573 234.202 109.585 234.409 109.609C234.621 109.581 234.843 109.476 235.074 109.294C235.523 109.031 236.074 109.017 236.728 109.249C237.387 109.431 237.977 109.761 238.497 110.24C239.018 110.719 239.248 111.216 239.188 111.733C239.164 111.94 239.195 112.126 239.28 112.293C239.423 112.415 239.495 112.475 239.495 112.475C239.908 112.523 240.092 113.199 240.045 114.502C240.051 115.811 239.778 117.036 239.227 118.176C239.138 118.951 238.875 119.863 238.439 120.912C238.056 121.967 237.703 122.973 237.383 123.93C236.82 125.174 236.405 126.277 236.136 127.241C235.867 128.204 235.746 129.028 235.771 129.711C235.797 130.395 235.915 130.958 236.125 131.401C236.29 131.787 236.242 132.2 235.982 132.641C235.727 133.03 235.29 133.189 234.67 133.117ZM249.368 150.759C248.338 151.059 247.239 151.062 246.069 150.77C244.944 150.535 243.847 150.067 242.776 149.368C241.757 148.674 240.856 147.863 240.074 146.935C239.754 146.531 239.433 145.918 239.109 145.095C238.831 144.33 238.628 143.6 238.499 142.905C238.422 142.215 238.493 141.831 238.711 141.751C238.936 141.62 239.226 141.602 239.581 141.695C239.937 141.789 240.264 141.905 240.562 142.044C240.905 142.241 241.065 142.443 241.041 142.649C241.321 142.944 241.819 143.394 242.534 144C243.243 144.658 243.798 145.063 244.199 145.214C245.242 145.701 246.025 145.949 246.547 145.957C247.07 145.965 247.556 145.838 248.005 145.576C248.915 144.948 249.662 144.145 250.247 143.166C250.832 142.187 251.487 140.823 252.213 139.075L252.562 138.094C253.196 136.231 253.898 134.245 254.665 132.135C255.433 130.025 256.07 128.371 256.575 127.174C256.971 126.015 257.141 125.224 257.085 124.799C257.082 124.379 256.84 124.43 256.361 124.95C256.148 124.978 255.852 125.048 255.473 125.161C255.145 125.281 254.762 125.419 254.325 125.578C253.67 125.816 253.014 126.055 252.358 126.293C251.708 126.479 251.171 126.6 250.746 126.656C250.332 126.608 249.942 126.589 249.574 126.599C249.213 126.557 249.032 126.536 249.032 126.536C248.589 126.746 247.843 126.634 246.794 126.198C245.803 125.717 244.933 125.093 244.184 124.325C243.791 123.652 243.509 123.148 243.338 122.814C243.174 122.429 243.086 122.052 243.077 121.684C243.073 121.265 243.119 120.642 243.214 119.816C243.258 118.983 243.783 117.84 244.789 116.386C245.853 114.887 247.085 113.511 248.487 112.26C249.582 111.392 250.964 110.532 252.633 109.678C254.302 108.824 255.951 108.152 257.578 107.659C259.257 107.173 260.61 107.016 261.637 107.187C262.148 107.299 262.63 107.433 263.083 107.59C263.542 107.696 264.031 107.988 264.552 108.467C265.233 108.912 265.705 109.36 265.967 109.809C266.229 110.258 266.549 111.106 266.928 112.354C267.142 113.217 267.279 114.07 267.338 114.914C267.404 115.707 267.394 116.465 267.311 117.188C267.221 117.963 267.037 118.649 266.758 119.244C266.48 119.84 266.139 120.298 265.736 120.618C265.632 120.606 265.5 120.617 265.339 120.651C265.236 120.639 265.13 120.652 265.02 120.692C264.698 120.76 264.434 120.781 264.228 120.757C264.073 120.739 263.871 120.899 263.622 121.237C263.38 121.523 263.177 121.918 263.014 122.423C262.926 122.727 262.813 123.028 262.674 123.326C262.586 123.63 262.476 123.905 262.343 124.151C262.209 124.397 262.079 124.618 261.952 124.813C261.882 124.961 261.842 125.088 261.83 125.191C261.812 125.346 261.771 125.472 261.707 125.569C261.644 125.667 261.551 125.787 261.43 125.93C261.245 126.17 261.051 126.488 260.848 126.883C260.703 127.233 260.607 127.614 260.559 128.028L260.15 128.844C259.935 129.343 259.727 129.79 259.524 130.185C259.373 130.586 259.291 130.838 259.279 130.942L258.79 132.455C258.645 132.805 258.477 133.126 258.286 133.418C258.153 133.664 258.001 134.065 257.832 134.622C257.669 135.126 257.441 135.964 257.149 137.134C255.601 141.456 254.182 144.669 252.892 146.77C251.596 148.923 250.421 150.253 249.368 150.759ZM247.279 122.014C248.562 122.686 249.95 122.899 251.445 122.653C252.939 122.408 254.699 121.669 256.727 120.438C258.016 119.698 259.114 118.804 260.021 117.758C260.985 116.665 261.719 115.52 262.225 114.322C262.573 113.577 262.713 113.044 262.645 112.722C262.584 112.348 262.272 112.103 261.71 111.986C260.856 111.677 259.727 111.704 258.324 112.065C256.928 112.374 255.481 112.887 253.985 113.604C253.684 113.935 253.336 114.235 252.938 114.503C252.541 114.771 252.175 114.991 251.841 115.161C251.565 115.286 251.427 115.349 251.427 115.349C251.363 115.446 251.271 115.566 251.149 115.709C251.08 115.858 250.936 115.973 250.717 116.052C250.147 116.457 249.55 117.095 248.925 117.965C248.301 118.834 247.812 119.668 247.458 120.464C247.156 121.267 247.096 121.783 247.279 122.014ZM300.241 143.145C299.551 143.222 298.995 143.053 298.572 142.637C298.194 142.28 297.938 141.779 297.804 141.135C297.528 139.899 297.367 138.572 297.322 137.153C297.335 135.689 297.456 134.42 297.685 133.348L298.028 131.739L294.728 133.791C292.792 135.137 290.959 136.05 289.228 136.53C287.549 137.016 286.09 137.187 284.85 137.044C284.294 136.875 283.75 136.602 283.217 136.227C282.685 135.851 282.213 135.404 281.802 134.885C281.443 134.372 281.164 133.843 280.966 133.296C280.739 132.537 280.75 131.544 280.997 130.316C281.295 129.094 281.761 127.787 282.393 126.394C283.083 124.956 283.87 123.582 284.755 122.271C285.697 120.914 286.722 119.75 287.829 118.779C289.833 116.394 291.849 115.031 293.878 114.69C295.906 114.349 297.81 114.857 299.59 116.215C300.867 116.939 301.664 117.293 301.98 117.277C302.347 117.267 302.726 116.709 303.116 115.603C303.418 114.8 303.721 113.998 304.023 113.195C304.331 112.341 304.802 111.217 305.434 109.825C307.18 106.049 308.646 103.104 309.833 100.99C311.072 98.8829 312.175 97.0476 313.141 95.4843C313.847 94.3621 314.395 93.6928 314.787 93.4764C315.236 93.2143 315.664 93.133 316.071 93.2325C316.64 93.2983 317.132 93.5647 317.549 94.0318C317.966 94.4989 318.262 95.109 318.437 95.862C318.589 96.3509 318.619 96.7731 318.525 97.1287C318.489 97.4386 318.284 97.8597 317.908 98.392C317.093 99.554 316.101 101.114 314.932 103.073C313.82 104.986 312.659 107.102 311.448 109.422C310.289 111.748 309.184 114.054 308.134 116.341C307.084 118.627 306.196 120.645 305.47 122.393C305.029 123.493 304.577 124.907 304.116 126.633C303.706 128.365 303.316 130.152 302.945 131.994C302.581 133.784 302.289 135.399 302.07 136.839C301.908 138.234 301.855 139.144 301.911 139.569C302.101 140.638 302.141 141.428 302.029 141.939C301.969 142.455 301.801 142.776 301.525 142.901C301.243 143.078 300.815 143.159 300.241 143.145ZM288.142 133.028C288.883 132.957 289.613 132.753 290.333 132.418C291.104 132.088 291.91 131.684 292.75 131.206C294.437 130.197 295.906 129.268 297.156 128.418C298.406 127.568 299.329 126.157 299.924 124.184C300.14 123.215 300.127 122.428 299.883 121.824C299.696 121.174 299.323 120.555 298.763 119.967C298.191 119.482 297.357 119.228 296.26 119.206C295.221 119.138 294.073 119.555 292.817 120.456C291.446 121.449 290.056 122.832 288.646 124.606C287.288 126.386 286.164 128.637 285.273 131.361C285.11 131.865 285.217 132.296 285.594 132.654C285.971 133.012 286.821 133.137 288.142 133.028ZM312.135 141.852C311.464 141.775 310.936 141.583 310.553 141.277C310.221 140.977 309.798 140.561 309.284 140.03C308.422 138.884 307.838 137.821 307.533 136.844C307.233 135.815 307.212 134.87 307.468 134.01C307.671 133.614 307.768 133.233 307.758 132.865C307.806 132.452 307.83 132.245 307.83 132.245C307.601 131.957 307.542 131.793 307.651 131.754C307.766 131.662 307.888 131.519 308.015 131.325C308.325 131.361 308.461 131.088 308.424 130.508C308.368 130.083 308.679 129.203 309.357 127.868C310.036 126.533 310.834 125.291 311.752 124.141C312.122 123.66 312.665 123.043 313.38 122.288C314.102 121.481 314.872 120.707 315.691 119.964C316.567 119.176 317.345 118.559 318.025 118.114C319.442 117.179 320.671 116.51 321.712 116.107C322.754 115.704 323.857 115.44 325.024 115.313C326.19 115.186 326.98 115.147 327.393 115.195C327.858 115.249 328.43 115.734 329.109 116.65C330.237 117.304 331.018 118.022 331.451 118.805C331.935 119.594 332.174 120.695 332.168 122.108C332.143 123.675 331.808 125.443 331.161 127.409C330.572 129.33 329.074 131.643 326.667 134.348C325.16 136.058 323.811 137.315 322.618 138.12C321.432 138.872 320.039 139.601 318.439 140.305C317.271 140.903 316.226 141.332 315.306 141.592C314.392 141.8 313.335 141.887 312.135 141.852ZM320.525 134.501C321.926 133.25 323.06 132.046 323.927 130.89C324.845 129.74 325.751 128.248 326.643 126.415C326.916 125.871 327.126 125.188 327.273 124.368C327.426 123.496 327.493 122.692 327.474 121.957C327.512 121.176 327.382 120.716 327.084 120.577C326.506 120.144 325.769 119.953 324.873 120.007C323.983 120.008 322.97 120.388 321.835 121.147C320.079 122.304 318.49 123.822 317.068 125.699C315.653 127.524 314.23 129.636 312.801 132.036C311.811 133.806 311.456 135.283 311.738 136.467C312.077 137.606 312.988 138.104 314.47 137.961C316.01 137.773 318.028 136.62 320.525 134.501ZM328.717 141.417C327.943 141.327 327.273 140.779 326.709 139.771C326.203 138.718 325.882 137.424 325.745 135.891C325.667 134.311 325.775 132.701 326.069 131.06C326.261 129.407 326.491 128.099 326.759 127.135C327.086 126.126 327.409 125.143 327.729 124.185C327.92 123.893 328.027 123.644 328.051 123.437C328.127 123.237 328.217 122.907 328.323 122.448C328.48 121.995 328.751 121.241 329.135 120.186C329.443 119.332 329.733 118.633 330.006 118.088C330.278 117.544 330.53 117.181 330.76 116.998C331.054 116.718 331.411 116.576 331.83 116.572C332.255 116.517 332.666 116.591 333.061 116.793C333.456 116.996 333.759 117.319 333.969 117.762C334.249 118.056 334.336 118.668 334.228 119.598C334.178 120.482 334.019 121.406 333.75 122.37C333.487 123.281 333.177 123.926 332.819 124.303C332.686 124.55 332.479 125.206 332.199 126.273C331.97 127.346 331.709 128.467 331.416 129.637C331.176 130.814 330.936 131.754 330.697 132.459C330.434 133.371 330.425 134.129 330.669 134.733C330.965 135.343 331.608 135.444 332.597 135.035C333.645 134.581 335.103 133.284 336.974 131.145C338.238 129.721 339.211 128.551 339.893 127.635C340.575 126.72 341.119 125.866 341.524 125.076C341.988 124.24 342.457 123.352 342.932 122.412C343.286 121.616 343.596 120.971 343.863 120.478C344.187 119.94 344.461 119.605 344.686 119.474C345.077 119.258 345.502 119.203 345.961 119.308C346.472 119.419 347.013 119.718 347.585 120.203C348.133 120.894 348.356 121.679 348.255 122.557C348.159 123.384 347.729 124.381 346.966 125.549C346.457 126.328 345.921 127.339 345.358 128.582C344.847 129.832 344.385 131.113 343.971 132.426C343.615 133.694 343.389 134.741 343.293 135.567C343.174 136.6 343.231 137.235 343.465 137.471C343.757 137.662 344.11 137.782 344.523 137.83C345.143 137.901 345.919 137.756 346.851 137.392C347.783 137.029 348.857 136.342 350.073 135.331C350.592 134.92 351.238 134.315 352.011 133.514C352.79 132.662 353.547 131.781 354.28 130.872C355.071 129.916 355.718 129.075 356.221 128.348C356.776 127.627 357.065 127.164 357.089 126.957C357.125 126.647 357.408 126.235 357.939 125.72C358.297 125.343 358.565 125.06 358.744 124.871C358.981 124.637 359.372 124.421 359.919 124.222C360.356 124.063 360.72 124.08 361.012 124.27C361.31 124.41 361.616 124.707 361.93 125.162C362.164 125.398 362.257 125.723 362.21 126.136C362.213 126.556 362.179 127.075 362.108 127.695C361.887 128.245 361.542 128.964 361.073 129.852C360.661 130.695 360.201 131.505 359.692 132.284C359.24 133.017 358.868 133.523 358.574 133.803C358.343 133.986 357.937 134.331 357.354 134.84C356.778 135.296 356.247 135.811 355.762 136.383C354.291 137.783 353.245 138.683 352.623 139.082C352.001 139.481 351.459 139.863 350.998 140.228C349.788 141.187 348.556 141.882 347.302 142.313C346.054 142.692 344.888 142.819 343.803 142.693C342.77 142.573 341.922 142.213 341.258 141.613C339.753 140.601 339.113 139.114 339.341 137.151C339.389 136.738 339.353 136.367 339.234 136.039C339.172 135.666 339.142 135.479 339.142 135.479C338.935 135.455 338.645 135.474 338.272 135.535C337.95 135.603 337.572 135.925 337.139 136.503C336.572 137.328 335.718 138.145 334.578 138.955C333.494 139.719 332.4 140.352 331.296 140.852C330.197 141.301 329.337 141.489 328.717 141.417ZM382.628 150.251C382.111 150.192 381.602 149.845 381.1 149.211C380.649 148.583 380.265 147.831 379.947 146.957C379.687 146.037 379.602 145.19 379.692 144.415C379.782 143.64 380.13 142.215 380.737 140.139C381.395 138.069 382.134 135.982 382.954 133.878C383.522 132.583 383.741 131.823 383.61 131.599C383.479 131.374 382.749 131.577 381.42 132.209C380.654 132.486 379.964 132.799 379.348 133.147C378.738 133.442 378.199 133.799 377.732 134.216C377.45 134.392 377.024 134.683 376.453 135.088C375.883 135.494 375.29 135.87 374.674 136.217C373.942 136.656 373.006 137.28 371.865 138.091C370.725 138.901 369.584 139.711 368.443 140.521C367.354 141.337 366.521 141.974 365.945 142.43C365.818 142.625 365.642 142.788 365.417 142.919C365.193 143.05 364.948 143.126 364.684 143.148C364.426 143.118 364.148 143.034 363.85 142.894C363.299 142.674 362.796 142.275 362.339 141.699C361.934 141.128 361.77 140.507 361.848 139.836C361.908 139.319 362.216 138.465 362.773 137.273C363.336 136.03 364.058 134.543 364.939 132.813C365.871 131.089 366.919 129.273 368.082 127.366C368.267 127.126 368.432 126.831 368.577 126.481C368.728 126.08 368.857 125.65 368.962 125.191C369.119 124.738 369.222 124.305 369.27 123.892C369.3 123.633 369.355 123.378 369.437 123.126C369.576 122.828 369.712 122.556 369.845 122.309C370.036 122.017 370.189 121.826 370.305 121.734C370.559 121.345 370.933 121.284 371.425 121.55C371.924 121.765 372.321 122.177 372.617 122.787C373.308 123.6 373.591 124.549 373.465 125.634C373.391 126.725 372.977 128.038 372.224 129.573C371.975 129.911 371.752 130.252 371.556 130.595C371.416 130.893 371.28 131.165 371.147 131.412C371.02 131.606 370.921 131.778 370.852 131.927C370.788 132.024 370.756 132.073 370.756 132.073C370.963 132.097 371.455 131.918 372.232 131.537C373.009 131.156 373.921 130.738 374.968 130.284C375.809 129.805 376.54 129.366 377.162 128.967C377.842 128.523 378.403 128.195 378.846 127.985C379.295 127.723 379.572 127.597 379.675 127.609C379.882 127.633 380.149 127.586 380.477 127.467C380.805 127.348 381.084 127.197 381.314 127.014C381.545 126.831 381.712 126.746 381.815 126.758C381.976 126.724 382.057 126.707 382.057 126.707C382.057 126.707 382.16 126.719 382.367 126.743C382.579 126.716 382.801 126.61 383.031 126.428C383.48 126.166 384.032 126.151 384.685 126.384C385.345 126.565 385.935 126.895 386.455 127.374C386.975 127.853 387.206 128.351 387.146 128.867C387.122 129.074 387.153 129.261 387.238 129.428C387.381 129.549 387.453 129.609 387.453 129.609C387.866 129.657 388.049 130.333 388.003 131.636C388.008 132.945 387.736 134.17 387.185 135.31C387.095 136.085 386.833 136.997 386.397 138.046C386.013 139.101 385.661 140.107 385.341 141.065C384.778 142.308 384.362 143.412 384.094 144.375C383.825 145.339 383.704 146.162 383.729 146.845C383.755 147.529 383.873 148.092 384.083 148.535C384.248 148.921 384.2 149.334 383.939 149.775C383.685 150.164 383.248 150.323 382.628 150.251ZM134.001 167.602C132.326 167.146 131.238 166.366 130.738 165.261C130.284 164.214 130.331 162.675 130.88 160.644C131.304 159.699 131.586 158.842 131.728 158.073C131.927 157.258 132.219 156.769 132.604 156.604C132.604 156.604 132.639 156.53 132.709 156.381C132.83 156.238 132.822 156.08 132.685 155.907C132.763 155.235 133.103 154.332 133.706 153.198C133.845 152.9 134.016 152.553 134.219 152.158C134.479 151.717 134.609 151.497 134.609 151.497C134.399 151.054 134.438 150.718 134.726 150.489C135.014 150.261 135.299 150.059 135.582 149.882C135.921 149.659 135.98 149.378 135.758 149.039C135.678 148.82 135.861 148.37 136.307 147.689C136.758 146.956 137.264 146.203 137.824 145.43C138.385 144.658 138.77 144.048 138.979 143.601C138.991 143.498 139.162 143.151 139.492 142.561C139.822 141.971 140.215 141.284 140.673 140.499C141.13 139.715 141.552 139.004 141.94 138.369C142.379 137.739 142.663 137.327 142.79 137.132C143.336 136.934 143.151 136.729 142.233 136.518C141.315 136.307 140.337 136.168 139.298 136.1C137.702 135.863 136.42 135.636 135.45 135.419C134.533 135.208 133.785 134.886 133.207 134.452C132.671 133.657 132.498 133.114 132.689 132.822C132.937 132.484 133.581 132.349 134.62 132.417C135.298 132.443 135.817 132.477 136.179 132.519C136.592 132.567 137.112 132.601 137.737 132.621C138.421 132.596 139.469 132.586 140.882 132.593L144.869 132.74L145.254 131.45C145.745 130.826 146.15 130.271 146.468 129.785C146.843 129.252 147.167 128.714 147.44 128.17C147.712 127.626 147.936 127.049 148.111 126.442C148.111 126.442 148.391 126.055 148.952 125.283C149.519 124.458 149.907 123.587 150.118 122.669C150.858 121.708 151.508 120.841 152.069 120.069C152.635 119.244 152.982 118.735 153.109 118.54C153.731 118.141 154.146 117.953 154.352 117.977C154.611 118.007 155.097 118.325 155.812 118.932C156.247 119.244 156.625 119.602 156.944 120.005C157.264 120.408 157.452 120.823 157.507 121.248C157.568 121.621 157.372 121.965 156.916 122.279C156.789 122.474 156.589 122.843 156.317 123.387C156.051 123.88 155.845 124.301 155.7 124.651C155.348 124.976 154.892 125.525 154.331 126.298C153.828 127.025 153.451 127.793 153.2 128.601C152.686 129.432 152.205 130.187 151.76 130.869C151.321 131.498 150.998 131.801 150.791 131.777C150.835 132.306 151.115 132.6 151.631 132.66C152.154 132.668 153.012 132.715 154.206 132.801C155.199 132.811 155.883 132.786 156.256 132.724C156.688 132.617 157.147 132.723 157.633 133.041C157.85 133.432 158.008 133.869 158.11 134.352C158.211 134.835 158.186 135.277 158.034 135.678C157.941 136.034 157.704 136.268 157.325 136.381C157.067 136.352 156.506 136.444 155.644 136.658C154.839 136.826 153.84 136.868 152.646 136.782L148.494 136.694L146.872 139.176C146.433 139.805 146.051 140.389 145.727 140.927C145.409 141.414 145.192 141.703 145.077 141.794C145.041 142.104 144.806 142.548 144.373 143.126C143.991 143.71 143.578 144.343 143.132 145.024C142.721 145.866 142.267 146.625 141.77 147.301C141.324 147.982 141.102 148.322 141.102 148.322C140.895 148.299 140.774 148.442 140.738 148.751C140.924 149.401 140.793 149.857 140.344 150.119C140.068 150.244 139.808 150.45 139.566 150.736C139.381 150.976 139.288 151.096 139.288 151.096C139.471 151.327 139.467 151.588 139.276 151.88C139.137 152.178 138.943 152.496 138.695 152.834C138.647 153.247 138.449 153.826 138.101 154.571C137.804 155.322 137.488 156.018 137.152 156.66C137.096 157.595 137.079 158.195 137.101 158.46C137.123 158.724 137.24 158.842 137.452 158.814C137.705 158.896 137.937 158.923 138.15 158.895C138.362 158.867 138.572 158.865 138.779 158.889C139.538 158.663 138.941 160.426 136.988 164.179C136.012 165.374 135.336 166.238 134.961 166.771C134.579 167.354 134.259 167.632 134.001 167.602ZM152.526 161.581C152.159 161.591 151.771 161.546 151.364 161.446C151.015 161.301 150.674 161.078 150.342 160.778C149.977 160.317 149.729 159.974 149.598 159.75C149.473 159.473 149.466 159.08 149.577 158.57C149.74 158.065 150.014 157.285 150.398 156.23C150.752 155.434 151.193 154.333 151.722 152.929C152.257 151.473 152.815 150.045 153.396 148.647C153.647 147.838 153.952 147.01 154.312 146.162C154.724 145.32 155.126 144.555 155.52 143.868C155.92 143.129 156.221 142.562 156.424 142.166C157.004 140.768 157.538 139.547 158.026 138.504C158.564 137.467 159.199 136.284 159.928 134.956C160.664 133.575 161.583 131.745 162.684 129.464C164.18 126.496 165.304 124.245 166.058 122.709C166.869 121.128 167.446 119.991 167.788 119.298C168.188 118.559 168.463 117.989 168.614 117.587C168.662 117.174 168.801 116.876 169.032 116.693C169.314 116.517 169.636 116.449 169.997 116.491C170.721 116.575 171.247 117.002 171.576 117.773C171.963 118.499 172.152 119.358 172.142 120.351C172.137 121.293 171.881 122.153 171.372 122.932C170.33 124.696 169.194 126.815 167.966 129.29C166.743 131.714 165.549 134.114 164.383 136.492C163.224 138.818 162.158 140.789 161.186 142.404C161.162 142.61 161.043 142.963 160.828 143.461C160.613 143.96 160.379 144.404 160.124 144.793C159.87 145.183 159.618 145.546 159.37 145.884C159.173 146.227 159.074 146.399 159.074 146.399C159.05 146.606 158.928 146.984 158.707 147.535C158.487 148.085 158.199 148.758 157.845 149.555C157.567 150.151 157.216 150.921 156.792 151.867C156.42 152.819 156.144 153.624 155.963 154.284C156.275 153.849 156.898 153.214 157.832 152.38C158.766 151.546 159.634 150.835 160.435 150.247C161.345 149.62 162.367 148.927 163.502 148.168C164.637 147.41 165.538 146.86 166.206 146.518C166.874 146.177 167.458 145.878 167.959 145.622C168.517 145.32 168.796 145.169 168.796 145.169C168.82 144.963 168.91 144.868 169.065 144.886C169.277 144.859 169.487 144.857 169.694 144.881C169.9 144.905 170.006 144.891 170.012 144.839C170.07 144.793 170.111 144.667 170.135 144.461C170.165 144.202 170.476 144.003 171.068 143.862C171.712 143.727 172.427 143.653 173.214 143.639C174.058 143.58 174.739 143.58 175.255 143.64C175.875 143.712 176.351 143.898 176.682 144.198C177.014 144.498 177.413 145.12 177.88 146.064C178.404 146.963 178.675 148.015 178.692 149.221C178.767 150.381 178.526 151.557 177.969 152.749C177.921 153.162 177.775 153.747 177.531 154.504C177.343 155.215 177.202 155.984 177.106 156.811L176.354 159.236L177.594 159.38C178.007 159.428 178.386 159.55 178.729 159.747C179.079 159.892 179.254 159.965 179.254 159.965C179.437 160.195 179.619 160.426 179.802 160.656C179.991 160.835 180.188 160.937 180.395 160.961C181.015 161.032 181.217 161.317 181.002 161.816C180.794 162.263 180.355 162.657 179.688 162.999C178.352 163.682 177.168 163.963 176.135 163.844C175.153 163.73 174.297 163.212 173.567 162.29C172.842 161.316 172.439 160.275 172.358 159.166C172.277 158.057 172.539 156.7 173.143 155.095C173.613 152.847 173.908 151.206 174.028 150.172C174.205 149.094 174.009 148.521 173.441 148.456C172.925 148.396 171.979 148.653 170.604 149.226C169.235 149.748 167.681 150.511 165.942 151.513C164.203 152.516 162.475 153.651 160.758 154.917C159.041 156.184 157.576 157.533 156.363 158.963C155.654 159.666 154.979 160.294 154.339 160.848C153.705 161.351 153.101 161.595 152.526 161.581ZM195.271 168.023C194.078 168.827 192.75 169.223 191.286 169.21C189.873 169.204 188.528 168.838 187.251 168.115C185.98 167.339 184.977 166.281 184.242 164.94C183.496 163.701 183.077 162.344 182.986 160.868C182.902 159.34 183.1 157.4 183.582 155.048C183.97 153.051 184.849 151.112 186.219 149.229C187.594 147.294 189.176 145.619 190.962 144.203C192.801 142.793 194.556 141.871 196.23 141.436C197.064 141.01 197.737 140.852 198.247 140.963C198.816 141.029 199.662 141.18 200.786 141.414C201.956 141.707 202.808 142.041 203.34 142.417C203.924 142.799 204.367 143.269 204.669 143.827C205.354 144.692 205.78 145.526 205.949 146.331C206.124 147.084 206.169 147.822 206.085 148.545C205.747 149.658 204.811 150.963 203.276 152.46C201.799 153.912 199.942 155.032 197.705 155.82C196.527 156.05 195.269 156.061 193.932 155.854C192.595 155.647 191.523 155.182 190.717 154.461C189.783 153.934 189.128 153.937 188.753 154.469C188.383 154.95 187.949 156.208 187.452 158.244C187.018 160.183 187.005 161.648 187.414 162.637C187.829 163.575 188.467 164.172 189.327 164.429C190.336 164.755 191.119 165.003 191.675 165.172C192.289 165.296 193.065 165.15 194.003 164.735C194.889 164.314 195.438 164.09 195.651 164.062C195.87 163.983 196.036 163.897 196.152 163.806C196.325 163.669 196.699 163.372 197.276 162.915C197.679 162.596 197.993 162.37 198.218 162.239C198.448 162.057 198.693 161.98 198.951 162.01C199.209 162.04 199.427 162.196 199.603 162.478C199.786 162.709 199.975 162.888 200.169 163.015C200.686 163.075 200.753 163.397 200.372 163.981C200.042 164.571 199.413 165.257 198.484 166.039C197.562 166.77 196.491 167.431 195.271 168.023ZM197.096 151.587C197.694 151.395 198.33 151.102 199.003 150.709C199.683 150.264 200.262 149.782 200.741 149.261C201.278 148.695 201.57 148.206 201.618 147.793C201.702 147.069 201.435 146.436 200.817 145.894C200.206 145.299 199.207 145.105 197.822 145.311C197.236 145.401 196.546 145.713 195.751 146.249C194.962 146.734 194.19 147.299 193.434 147.944C192.731 148.595 192.139 149.181 191.66 149.702C191.233 150.228 191.065 150.549 191.156 150.664C191.281 150.94 191.697 151.198 192.402 151.437C193.113 151.624 193.911 151.742 194.795 151.792C195.731 151.848 196.497 151.78 197.096 151.587ZM236.338 175.056C235.663 174.559 235.132 173.947 234.745 173.222C234.363 172.445 234.135 171.476 234.06 170.316C234.043 169.11 234.136 167.629 234.339 165.873C234.447 164.943 234.546 164.091 234.635 163.316C234.725 162.541 234.77 162.154 234.77 162.154C234.77 162.154 234.473 162.459 233.879 163.071C233.284 163.683 232.56 164.515 231.705 165.568C230.323 167.554 228.958 169.176 227.608 170.433C226.265 171.638 225.297 172.311 224.705 172.452C224.434 172.525 224.044 172.506 223.533 172.395C223.029 172.232 222.501 172.04 221.951 171.819C221.458 171.553 221.021 171.266 220.637 170.96C220.254 170.654 220.028 170.34 219.961 170.018C219.888 169.748 219.902 169.174 220.003 168.296C220.111 167.366 220.254 166.362 220.431 165.283C220.666 164.158 220.915 163.14 221.177 162.228C221.446 161.265 221.707 160.588 221.962 160.199C221.98 160.044 222.024 159.892 222.093 159.743C222.22 159.549 222.219 159.339 222.087 159.114C222.087 159.114 222.308 158.564 222.75 157.464C223.243 156.369 223.812 155.074 224.456 153.578C225.152 152.088 225.784 150.696 226.353 149.401C226.98 148.06 227.423 147.169 227.684 146.728C227.731 146.315 227.834 145.882 227.991 145.429C228.2 144.982 228.316 144.655 228.34 144.448C228.394 143.983 228.709 143.523 229.285 143.066C229.89 142.822 230.335 142.821 230.621 143.063C230.964 143.26 231.37 143.595 231.839 144.068C232.296 144.645 232.584 145.097 232.703 145.425C232.873 145.759 232.823 146.198 232.55 146.742C232.329 147.292 231.886 148.183 231.22 149.415C230.572 150.491 229.941 151.648 229.326 152.886C228.718 154.072 228.17 155.186 227.683 156.229C227.253 157.226 226.928 158 226.707 158.55C226.665 158.912 226.546 159.264 226.349 159.608C226.21 159.906 226.128 160.158 226.104 160.365C225.931 160.502 225.807 160.671 225.732 160.871C225.708 161.078 225.684 161.284 225.66 161.491C225.636 161.698 225.517 162.05 225.302 162.549C225.093 162.996 224.956 163.503 224.89 164.072C224.57 165.029 224.607 165.609 225.002 165.812C225.455 165.969 225.9 165.969 226.338 165.81C226.516 165.621 226.894 165.298 227.47 164.842C228.098 164.391 228.626 163.902 229.053 163.376C229.332 162.78 229.586 162.391 229.817 162.208C230.099 162.031 230.327 161.875 230.5 161.737C230.672 161.6 230.783 161.325 230.831 160.912C230.855 160.705 231.135 160.319 231.672 159.753C232.266 159.141 232.895 158.455 233.559 157.695C234.859 155.961 235.668 154.85 235.986 154.364C236.483 153.688 236.968 153.116 237.441 152.648C237.972 152.133 238.466 151.484 238.923 150.699C239.178 150.31 239.366 150.044 239.487 149.901C239.666 149.712 240.039 149.651 240.608 149.716C241.176 149.782 241.583 149.882 241.829 150.015C242.076 150.148 242.243 150.508 242.333 151.094C242.704 151.503 242.891 151.918 242.895 152.337C242.905 152.705 242.889 153.069 242.847 153.431C242.617 153.613 242.458 153.857 242.37 154.161C242.34 154.419 242.325 154.548 242.325 154.548C242.307 154.703 242.15 155.156 241.854 155.907C241.609 156.664 241.264 157.383 240.819 158.064C240.202 159.773 239.648 161.619 239.156 163.604C238.671 165.537 238.344 167.226 238.177 168.673C238.067 170.073 238.129 170.892 238.363 171.128C238.649 171.371 239.3 170.949 240.316 169.863C241.383 168.782 242.584 167.456 243.918 165.883C244.224 165.499 244.844 164.891 245.778 164.056C246.712 163.222 247.376 162.462 247.77 161.774C247.8 161.516 248.003 161.121 248.378 160.589C248.76 160.005 249.145 159.395 249.533 158.759C249.926 158.072 250.15 157.496 250.204 157.031C250.164 156.922 250.476 156.487 251.14 155.726C251.804 154.965 252.469 153.969 253.135 152.738C253.513 151.734 254.065 151.039 254.79 150.652C255.567 150.271 256.231 150.191 256.781 150.412C257.337 150.581 257.487 151.095 257.23 151.956C256.769 153.682 255.938 155.653 254.739 157.87C253.598 160.041 252.299 162.22 250.842 164.407C249.442 166.548 248.072 168.431 246.732 170.056C246.277 170.37 245.865 170.767 245.495 171.248C245.131 171.677 244.938 171.994 244.914 172.201C244.902 172.304 244.639 172.536 244.127 172.895C243.671 173.209 243.104 173.588 242.424 174.033C241.751 174.426 241.054 174.79 240.335 175.126C239.603 175.565 238.951 175.777 238.376 175.763C237.802 175.749 237.123 175.513 236.338 175.056ZM260.533 176.051C260.108 176.107 259.56 176.096 258.888 176.018C258.223 175.889 257.638 175.742 257.133 175.579C256.686 175.37 256.472 175.188 256.49 175.034C256.519 174.775 256.405 174.631 256.147 174.601C256.147 174.601 256.03 174.483 255.795 174.246C255.613 174.016 255.301 173.77 254.86 173.51C254.479 172.733 254.336 171.931 254.432 171.105C254.534 170.227 254.924 168.885 255.605 167.079C255.909 165.806 256.573 164.364 257.597 162.755C258.679 161.101 259.944 159.441 261.393 157.777C262.842 156.113 264.322 154.635 265.833 153.344C267.395 152.06 268.783 151.147 269.997 150.607C270.804 149.968 271.727 149.682 272.766 149.75C273.805 149.818 274.76 150.164 275.63 150.788C276.116 151.106 276.585 151.58 277.036 152.208C277.486 152.836 277.905 153.512 278.293 154.238C278.68 154.963 278.989 155.679 279.221 156.387C279.311 156.973 279.328 157.498 279.274 157.963C279.278 158.383 279.218 158.899 279.095 159.513C279.023 160.133 278.838 161.054 278.54 162.275C278.174 163.175 277.81 164.285 277.447 165.604C277.137 166.929 276.925 168.082 276.811 169.064C276.594 170.033 276.617 170.742 276.879 171.192C277.193 171.647 277.706 171.732 278.42 171.448C279.075 171.21 279.684 171.15 280.246 171.267C280.815 171.333 281.236 171.539 281.51 171.885C281.836 172.237 281.962 172.722 281.891 173.342C281.819 173.962 281.434 174.572 280.737 175.172C280.097 175.726 279.311 176.184 278.379 176.548C277.504 176.865 276.68 176.979 275.905 176.889C275.337 176.824 274.833 176.425 274.394 175.694C273.962 174.911 273.595 174.004 273.296 172.975C273.054 171.9 272.832 170.88 272.63 169.914L272.371 168.078L268.671 170.869C267.916 171.515 267.167 172.108 266.424 172.65C265.738 173.147 265.303 173.515 265.118 173.756C264.806 174.191 264.261 174.599 263.484 174.98C262.759 175.367 261.775 175.724 260.533 176.051ZM261.295 171.507C262.233 171.092 263.327 170.46 264.577 169.61C265.833 168.708 267.072 167.726 268.295 166.664C269.523 165.55 270.559 164.518 271.401 163.569C272.417 162.482 273.217 161.45 273.802 160.47C274.386 159.491 274.836 158.549 275.15 157.643C275.009 157.051 274.742 156.418 274.349 155.744C273.962 155.019 273.591 154.609 273.235 154.516C272.099 154.384 270.801 154.967 269.342 156.263C267.941 157.515 266.55 158.898 265.171 160.413C264.934 160.648 264.603 161.028 264.175 161.554C263.748 162.08 263.323 162.581 262.902 163.056C262.538 163.485 262.296 163.771 262.174 163.914C261.996 164.102 261.617 164.66 261.038 165.588C260.517 166.47 259.993 167.378 259.467 168.311C258.946 169.193 258.667 169.789 258.631 170.099C258.595 170.409 258.582 170.748 258.592 171.115C258.654 171.489 258.885 171.751 259.286 171.902C259.688 172.054 260.357 171.922 261.295 171.507ZM280.909 181.395C280.267 181.059 279.821 180.615 279.571 180.062C279.327 179.458 279.239 178.636 279.307 177.597C279.378 176.977 279.578 176.163 279.904 175.154C280.23 174.145 280.6 172.983 281.014 171.67C281.026 171.567 281.038 171.464 281.05 171.36C281.119 171.211 281.157 171.111 281.163 171.059C281.239 170.859 281.326 170.555 281.426 170.148C281.577 169.746 281.69 169.445 281.766 169.245C281.847 168.992 281.873 168.995 281.843 169.254L282.628 167.225C282.994 166.325 283.36 165.425 283.726 164.525C284.092 163.625 284.417 162.851 284.701 162.204C284.992 161.504 285.169 161.106 285.232 161.009C285.232 161.009 285.369 160.737 285.641 160.192C285.919 159.597 286.195 159.026 286.467 158.482C287.626 156.156 288.663 154.208 289.578 152.639C290.499 151.018 291.288 149.853 291.946 149.144C292.015 148.995 292.114 148.824 292.241 148.629C292.374 148.383 292.476 148.185 292.545 148.036C292.645 147.629 292.732 147.325 292.808 147.124C292.941 146.878 293.097 146.66 293.276 146.472C293.403 146.277 293.588 146.037 293.831 145.751C294.079 145.413 294.362 145.001 294.681 144.514L295.089 143.698C295.477 143.062 295.951 142.358 296.512 141.585C297.072 140.813 297.477 140.258 297.725 139.92C297.986 139.479 298.358 138.973 298.843 138.401C299.334 137.777 299.695 137.374 299.926 137.191L299.857 137.105C300.169 136.67 300.509 136.447 300.877 136.437C301.302 136.382 301.747 136.381 302.212 136.435C302.935 136.519 303.336 136.67 303.416 136.888C303.495 137.107 303.493 137.578 303.409 138.301C303.319 139.076 303.228 139.641 303.134 139.997C303.098 140.307 302.85 140.644 302.389 141.01L302.466 141.019C302.582 140.927 302.541 141.053 302.344 141.397C302.153 141.689 301.997 141.907 301.876 142.05C301.743 142.296 301.581 142.565 301.39 142.857C301.25 143.155 301.094 143.372 300.922 143.51C300.743 143.698 300.274 144.351 299.517 145.467C298.817 146.538 297.99 147.803 297.036 149.263C296.133 150.729 295.262 152.146 294.423 153.514C293.584 154.883 292.965 155.937 292.565 156.676L292.043 157.793C291.916 157.988 291.847 158.137 291.835 158.24C291.638 158.584 291.441 158.927 291.244 159.271C291.047 159.615 290.856 159.907 290.672 160.147L288.834 164.488L288.258 166.071L287.363 167.694L286.728 169.113C286.589 169.411 286.478 169.686 286.397 169.938C286.315 170.19 286.188 170.385 286.015 170.522C286.009 170.574 285.974 170.648 285.911 170.746C285.905 170.797 285.899 170.849 285.893 170.901C285.59 171.703 285.223 172.838 284.792 174.306C284.36 175.775 283.997 177.329 283.702 178.97C283.696 179.022 283.664 179.07 283.607 179.116C283.601 179.168 283.595 179.219 283.589 179.271C283.308 180.338 282.966 181.031 282.563 181.351C282.159 181.671 281.608 181.685 280.909 181.395ZM292.452 182.025C291.441 182.17 290.664 181.87 290.122 181.127C289.632 180.39 289.416 179.318 289.474 177.911C289.532 176.504 289.878 174.869 290.513 173.006C290.843 172.416 291.118 171.846 291.339 171.296C291.566 170.694 291.7 170.212 291.742 169.85C291.905 169.346 292.199 168.621 292.622 167.675C293.052 166.678 293.51 165.658 293.997 164.615C294.485 163.572 294.931 162.656 295.337 161.865C295.8 161.029 296.095 160.513 296.222 160.319C296.429 160.342 296.631 160.183 296.828 159.839C297.024 159.495 297.144 159.143 297.186 158.781C297.234 158.368 297.365 157.912 297.58 157.413C297.846 156.921 298.095 156.583 298.325 156.4C298.355 156.142 298.44 155.864 298.579 155.566C298.776 155.222 298.886 154.947 298.91 154.741C298.934 154.534 299.009 154.333 299.137 154.139C299.316 153.95 299.417 153.752 299.441 153.546C299.88 152.916 300.468 151.911 301.203 150.531C301.997 149.104 302.834 147.526 303.715 145.796C304.647 144.072 305.525 142.368 306.348 140.683C307.172 138.999 307.833 137.583 308.332 136.437C308.889 135.245 309.182 134.52 309.212 134.262C309.26 133.849 309.399 133.551 309.63 133.368C309.86 133.185 310.182 133.118 310.595 133.166C310.768 133.029 310.961 132.946 311.174 132.919C311.438 132.897 311.673 132.898 311.88 132.922C311.88 132.922 311.971 133.037 312.154 133.268C312.337 133.498 312.611 133.844 312.976 134.305C313.347 134.715 313.532 135.155 313.53 135.626C313.579 136.102 313.568 136.651 313.496 137.271C313.419 137.942 313.272 138.527 313.058 139.026C312.843 139.524 312.446 140.238 311.868 141.165C311.289 142.093 310.389 143.533 309.169 145.485C308.636 146.471 308.083 147.401 307.511 148.277C306.944 149.101 306.649 149.617 306.625 149.824C306.601 150.03 306.462 150.328 306.207 150.717C306.004 151.113 305.764 151.608 305.485 152.204C305.231 152.594 304.875 153.181 304.418 153.965C303.966 154.698 303.48 155.506 302.959 156.387C302.496 157.224 302.096 157.963 301.76 158.604C301.43 159.194 301.259 159.541 301.247 159.644C301.223 159.851 301.174 160.054 301.098 160.255C301.074 160.462 300.947 160.656 300.716 160.839C300.51 160.815 300.363 160.955 300.275 161.259C300.245 161.517 300.23 161.646 300.23 161.646C300.17 162.163 299.599 163.484 298.515 165.609C297.36 168.355 296.283 170.874 295.284 173.166C294.338 175.464 293.781 177.337 293.613 178.783C293.469 180.023 293.348 180.846 293.248 181.253C293.155 181.609 292.89 181.866 292.452 182.025ZM306.786 182.978C305.482 182.932 304.252 182.711 303.093 182.315C301.987 181.925 301.056 181.372 300.302 180.657C299.605 179.896 299.155 179.032 298.953 178.066C298.675 177.301 298.551 176.79 298.581 176.531C298.617 176.222 298.827 175.984 299.213 175.819C299.626 175.867 299.973 176.038 300.253 176.332C300.59 176.581 301.028 176.867 301.567 177.191C302.264 177.953 303.152 178.422 304.23 178.599C305.361 178.782 306.415 178.721 307.393 178.416C308.37 178.11 308.947 177.653 309.122 177.045C309.146 176.839 309.11 176.468 309.015 175.934C308.92 175.399 308.802 174.836 308.661 174.244C307.493 172.119 306.685 170.063 306.235 168.074C305.842 166.039 305.717 164.402 305.861 163.162C305.969 162.232 306.366 161.284 307.054 160.317C307.748 159.298 308.628 158.483 309.693 157.874C310.736 157 311.871 156.242 313.097 155.598C314.323 154.955 315.537 154.415 316.74 153.979C317.994 153.548 319.1 153.257 320.06 153.107C320.628 153.173 321.368 153.337 322.28 153.599C323.192 153.862 323.817 154.118 324.154 154.366C324.699 154.639 325.175 155.27 325.584 156.259C325.999 157.197 326.155 158.105 326.054 158.983C326.012 159.345 325.855 159.798 325.582 160.342C325.31 160.886 324.896 161.519 324.342 162.24C324.069 162.784 323.774 163.3 323.456 163.786C323.144 164.221 322.976 164.542 322.952 164.749C322.628 165.287 322.233 165.529 321.769 165.475C321.361 165.376 320.949 165.093 320.532 164.626C320.173 164.113 319.9 163.532 319.713 162.882C319.596 162.083 319.591 161.454 319.696 160.995C319.808 160.485 320.077 159.966 320.504 159.44C321.138 158.938 321.467 158.583 321.491 158.376C321.515 158.17 321.243 158.034 320.675 157.968C320.313 157.926 319.615 158.081 318.58 158.432C317.602 158.737 316.529 159.189 315.36 159.787C314.25 160.338 313.262 160.957 312.397 161.642C311.308 162.458 310.636 163.061 310.382 163.45C310.179 163.845 310.027 164.482 309.925 165.36C309.841 166.083 309.892 167.005 310.076 168.126C310.312 169.253 310.59 170.018 310.91 170.421C310.91 170.421 311.048 170.804 311.326 171.569C311.61 172.282 311.965 173.056 312.392 173.891C313.507 177.37 313.62 179.791 312.729 181.154C311.838 182.516 309.857 183.124 306.786 182.978Z" fill="#FF4D0D"/>
</svg>
