<svg width="134" height="134" viewBox="0 0 134 134" fill="none" xmlns="http://www.w3.org/2000/svg">
<rect width="134" height="134" rx="26" fill="#FFB5B6"/>
<path d="M73.7654 90.4312C78.001 88.9684 81.6777 86.2255 84.2873 82.5816C86.8969 78.9378 88.3105 74.573 88.3327 70.0906C88.3327 58.1696 78.5362 48.4749 66.4818 48.4749C54.4274 48.4749 44.6309 58.1696 44.6309 70.0906C44.6309 80.2346 51.7365 88.7392 61.274 91.0545V93.1756C50.5792 90.8238 42.5672 81.3963 42.5672 70.0906C42.5672 57.0159 53.2782 46.4145 66.4899 46.4145C79.7016 46.4145 90.4125 57.0159 90.4125 70.0906C90.3944 75.1295 88.7709 80.0314 85.7781 84.0844C82.7852 88.1375 78.5787 91.1306 73.7695 92.6292L73.7654 90.4312ZM66.4818 58.7686C63.4625 58.7557 60.5615 59.9421 58.4159 62.0672C56.2703 64.1923 55.0555 67.0823 55.0384 70.1027C55.0481 72.1907 55.6369 74.2351 56.7393 76.0082C57.8416 77.7812 59.4143 79.2135 61.2821 80.1455V82.4366C58.4877 81.2732 56.1641 79.2059 54.683 76.5654C53.2018 73.925 52.6487 70.8639 53.112 67.8718C53.5754 64.8797 55.0285 62.1295 57.2388 60.0611C59.4492 57.9927 62.2892 56.7256 65.3044 56.4625C68.3197 56.1994 71.3361 56.9555 73.871 58.6098C76.406 60.2642 78.3131 62.7212 79.2873 65.5878C80.2615 68.4545 80.2465 71.5652 79.2447 74.4223C78.2429 77.2794 76.3122 79.7179 73.7614 81.3477V78.7895C75.0575 77.7424 76.1039 76.4193 76.8242 74.9166C77.5445 73.4138 77.9206 71.7693 77.9252 70.1027C77.908 67.0831 76.6938 64.1936 74.5491 62.0686C72.4044 59.9436 69.5045 58.7568 66.4858 58.7686H66.4818ZM28 70.0906C28.0097 76.4519 29.6188 82.7085 32.6792 88.2847C35.7396 93.8608 40.1529 98.5773 45.5131 102C46.1524 101.595 46.8039 101.19 47.4635 100.826C47.9369 100.563 48.4103 100.308 48.8959 100.061C49.4732 99.7642 50.0599 99.4849 50.6561 99.2232C51.2509 98.956 51.87 98.7091 52.4568 98.4743C52.9545 98.28 53.4522 98.1019 53.958 97.9278C54.6621 97.689 55.3783 97.4664 56.1067 97.268C56.6489 97.1142 57.1992 96.9725 57.7536 96.8632C58.308 96.7539 58.8785 96.6123 59.4531 96.507C60.0277 96.4018 60.667 96.2884 61.2861 96.2075C61.974 96.1346 62.666 96.0537 63.366 95.997V73.1791H61.2861V69.0624H71.7017V96.1832C77.323 96.946 82.7094 98.93 87.4829 101.996C92.844 98.574 97.2584 93.8578 100.32 88.2816C103.381 82.7053 104.99 76.4482 105 70.0865C105 49.0375 87.7702 32 66.5142 32C45.2581 32 28 49.0537 28 70.0906Z" fill="#E54B4D"/>
</svg>
