<svg width="134" height="134" viewBox="0 0 134 134" fill="none" xmlns="http://www.w3.org/2000/svg">
<rect width="134" height="134" rx="26" fill="#FFDA6B"/>
<path d="M38.0312 91.4727L47.7141 29.5131C47.8325 28.7532 48.4235 28.1542 49.1817 28.0253C49.9399 27.8965 50.6954 28.2671 51.058 28.9453L61.0717 47.6226L65.0632 40.0229C65.3723 39.4352 65.9817 39.0673 66.6458 39.0673C67.3098 39.0673 67.9191 39.4352 68.2283 40.0229L95.2519 91.4726H38.0312V91.4727Z" fill="#FFA000"/>
<path d="M71.4831 67.3371L61.0671 47.6138L38.0312 91.4728L71.4831 67.3371Z" fill="#F57C00"/>
<path d="M95.2522 91.4729L87.8359 45.5799C87.7238 44.9208 87.2535 44.3794 86.6165 44.1754C85.9796 43.9713 85.2825 44.1412 84.8095 44.6137L38.0312 91.4723L63.9148 105.988C65.5402 106.895 67.5197 106.895 69.1451 105.988L95.2522 91.4723V91.4729Z" fill="#FFCA28"/>
<path d="M87.8359 45.5798C87.7238 44.9208 87.2535 44.3794 86.6165 44.1753C85.9795 43.9713 85.2825 44.1411 84.8094 44.6136L75.525 53.9216L68.2242 40.0228C67.9151 39.4351 67.3057 39.0672 66.6417 39.0672C65.9777 39.0672 65.3683 39.4351 65.0592 40.0228L61.0677 47.6225L51.0534 28.9455C50.6903 28.2671 49.9338 27.8972 49.1747 28.0269C48.4156 28.1567 47.8266 28.7572 47.7096 29.5177L38.0312 91.4729H38L38.0312 91.5087L38.286 91.6338L84.7959 45.0702C85.2687 44.5951 85.9675 44.4244 86.6062 44.6278C87.2448 44.8313 87.716 45.3748 87.8269 46.0358L95.1807 91.5175L95.2522 91.4728L87.8359 45.5797L87.8359 45.5798ZM38.1161 91.388L47.7141 29.9559C47.831 29.1954 48.4214 28.5949 49.1798 28.4651C49.9383 28.3353 50.6948 28.7052 51.0585 29.3837L61.0717 48.0609L65.0632 40.4612C65.3723 39.8736 65.9817 39.5057 66.6457 39.5057C67.3097 39.5057 67.9191 39.8736 68.2283 40.4612L75.3809 54.0646L38.1157 91.388H38.1161Z" fill="white" fill-opacity="0.2"/>
<path opacity="0.2" d="M69.1452 105.55C67.5198 106.458 65.5403 106.458 63.9149 105.55L38.0939 91.0751L38.0312 91.473L63.9148 105.984C65.5402 106.892 67.5197 106.892 69.1451 105.984L95.2522 91.473L95.1852 91.0618L69.1452 105.55V105.55Z" fill="#A52714"/>
<path d="M87.7613 45.5893C87.6497 44.9304 87.1809 44.3888 86.5462 44.186C85.9116 43.9831 85.2169 44.1517 84.7454 44.6241L75.493 53.9274L68.2183 40.035C67.9102 39.4476 67.303 39.0798 66.6413 39.0798C65.9797 39.0798 65.3725 39.4476 65.0644 40.035L61.0863 47.6314L51.1076 28.9622C50.7457 28.2841 49.9919 27.9142 49.2361 28.044C48.4803 28.1739 47.892 28.7739 47.7755 29.5342L38.1309 91.4622L63.924 105.967C65.5437 106.874 67.5163 106.874 69.136 105.967L95.1518 91.4622L87.7613 45.5892V45.5893Z" fill="url(#paint0_linear_826_846)"/>
<defs>
<linearGradient id="paint0_linear_826_846" x1="36.1408" y1="41.4009" x2="107.298" y2="78.9354" gradientUnits="userSpaceOnUse">
<stop stop-color="white" stop-opacity="0.1"/>
<stop offset="0.14" stop-color="white" stop-opacity="0.08"/>
<stop offset="0.61" stop-color="white" stop-opacity="0.02"/>
<stop offset="1" stop-color="white" stop-opacity="0"/>
</linearGradient>
</defs>
</svg>
