<svg width="134" height="134" viewBox="0 0 134 134" fill="none" xmlns="http://www.w3.org/2000/svg">
<rect width="134" height="134" rx="26" fill="#F3F3F3"/>
<path d="M45.1548 67.0774C45.1548 73.2096 40.2096 78.1548 34.0774 78.1548C27.9453 78.1548 23 73.2096 23 67.0774C23 60.9453 27.9453 56 34.0774 56C40.2096 56 45.1548 60.9453 45.1548 67.0774Z" fill="#7357F6"/>
<path d="M82.1452 67.2743C82.1452 71.6261 78.5846 75.1867 74.2328 75.1867C69.8809 75.1867 66.3203 71.6261 66.3203 67.2743C66.3203 62.9224 69.8809 59.3618 74.2328 59.3618C78.5846 59.3618 82.1452 62.9224 82.1452 67.2743Z" fill="#7357F6"/>
<path d="M110.828 67.2747C110.828 69.2528 109.246 70.8353 107.268 70.8353C105.29 70.8353 103.707 69.2528 103.707 67.2747C103.707 65.2966 105.29 63.7141 107.268 63.7141C109.246 63.7141 110.828 65.2966 110.828 67.2747Z" fill="#7357F6"/>
</svg>
