<svg width="134" height="134" viewBox="0 0 134 134" fill="none" xmlns="http://www.w3.org/2000/svg">
<rect width="134" height="134" rx="26" fill="#E4F6FE"/>
<path d="M66.8866 32.003C64.058 32.0162 61.3572 32.2574 58.9822 32.6781C51.9788 33.9152 50.7077 36.5037 50.7077 41.2797V47.5858H67.2506V49.6875H50.7077H44.5002C39.6922 49.6875 35.479 52.5777 34.1647 58.0731C32.6456 64.3731 32.5783 68.3099 34.1647 74.8876C35.3408 79.7857 38.1496 83.2732 42.9576 83.2732H48.6461V75.7144C48.6461 70.2536 53.3708 65.4345 58.9816 65.4345H75.5061C80.1061 65.4345 83.7806 61.647 83.7806 57.0303V41.2772C83.7806 36.7937 79.9981 33.4284 75.5061 32.6756C72.6639 32.2025 69.7151 31.9876 66.886 32.0006L66.8866 32.003ZM57.9394 37.0745C59.6486 37.0745 61.0438 38.4931 61.0438 40.2369C61.0438 41.9745 59.648 43.3801 57.9394 43.3801C56.2247 43.3801 54.8351 41.9751 54.8351 40.2369C54.8351 38.4931 56.2247 37.0745 57.9394 37.0745Z" fill="url(#paint0_linear_826_841)"/>
<path d="M85.8415 49.6826V57.0316C85.8415 62.7275 81.0125 67.5214 75.506 67.5214H58.9816C54.455 67.5214 50.707 71.3952 50.707 75.9255V91.6786C50.707 96.1621 54.6061 98.7993 58.9816 100.083C64.2184 101.623 69.243 101.901 75.506 100.083C79.6711 98.8771 83.7806 96.4496 83.7806 91.6786V85.3724H67.2561V83.2708H83.7806H92.0551C96.8632 83.2708 98.6575 79.9172 100.33 74.8852C102.057 69.7026 101.983 64.7163 100.33 58.0707C99.1413 53.2843 96.8718 49.6851 92.0551 49.6851H85.8477L85.8415 49.6826ZM76.5488 89.5807C78.2636 89.5807 79.6532 90.9857 79.6532 92.7239C79.6532 94.4677 78.2636 95.8862 76.5488 95.8862C74.8396 95.8862 73.4445 94.4677 73.4445 92.7239C73.4445 90.9863 74.8402 89.5807 76.5488 89.5807Z" fill="url(#paint1_linear_826_841)"/>
<defs>
<linearGradient id="paint0_linear_826_841" x1="32.9989" y1="32.0017" x2="71.1615" y2="64.5096" gradientUnits="userSpaceOnUse">
<stop stop-color="#5A9FD4"/>
<stop offset="1" stop-color="#306998"/>
</linearGradient>
<linearGradient id="paint1_linear_826_841" x1="76.1586" y1="92.2143" x2="62.4461" y2="73.0287" gradientUnits="userSpaceOnUse">
<stop stop-color="#FFD43B"/>
<stop offset="1" stop-color="#FFE873"/>
</linearGradient>
</defs>
</svg>
