<svg width="32" height="32" viewBox="0 0 32 32" fill="none" xmlns="http://www.w3.org/2000/svg">
<rect width="32" height="32" fill="white"/>
<path d="M27.2537 13.1195C28.4415 16.5898 26.5892 26.0381 17.2576 27.7415C7.4172 28.8212 6.72917 22.5501 7.09087 23.1107C7.38023 23.5593 9.03396 24.1269 9.82466 24.3546C8.63796 23.5127 6.04726 21.021 5.17803 17.7886C4.3088 14.5562 6.8332 10.9717 8.20405 9.58343C8.1329 10.4664 8.45433 12.7816 10.3093 14.9785C8.98731 12.123 15.2732 5.05715 14.6528 4C23.3181 5.7498 24.5551 13.0405 24.0905 16.4671C24.7143 16.0236 26.2203 14.7331 27.2537 13.1195Z" fill="#FE5A2D"/>
<path d="M16.8301 15.9802C17.008 17.1945 18.1513 18.0326 19.3838 17.852C20.6163 17.6714 21.4712 16.5407 21.2933 15.3263C21.1154 14.112 19.972 13.274 18.7395 13.4545C17.5071 13.6351 16.6522 14.7659 16.8301 15.9802Z" fill="white"/>
<path d="M16.9741 15.9709C17.0893 16.757 17.6924 17.3195 18.3212 17.2274C18.95 17.1352 19.3664 16.4234 19.2513 15.6373C19.1361 14.8513 18.533 14.2888 17.9042 14.3809C17.2754 14.473 16.8589 15.1849 16.9741 15.9709Z" fill="#10202F"/>
<path d="M11.3633 16.3271C11.5412 17.5414 12.6845 18.3795 13.917 18.1989C15.1495 18.0184 16.0044 16.8876 15.8265 15.6733C15.6486 14.4589 14.5052 13.6209 13.2727 13.8014C12.0403 13.982 11.1854 15.1128 11.3633 16.3271Z" fill="white"/>
<path d="M11.5073 16.3178C11.6225 17.1039 12.2256 17.6664 12.8544 17.5743C13.4832 17.4821 13.8996 16.7703 13.7845 15.9842C13.6693 15.1982 13.0662 14.6357 12.4374 14.7278C11.8086 14.8199 11.3921 15.5318 11.5073 16.3178Z" fill="#10202F"/>
</svg>
