<svg width="181" height="192" viewBox="0 0 181 192" fill="none" xmlns="http://www.w3.org/2000/svg">
<path d="M178.035 73.6687C187.506 101.343 172.735 176.687 98.3214 190.271C19.85 198.881 14.3634 148.872 17.2477 153.343C19.5551 156.92 32.7427 161.446 39.048 163.262C29.5848 156.549 8.92549 136.678 1.99388 110.902C-4.93773 85.1261 15.1929 56.5413 26.1247 45.4709C25.5572 52.512 28.1205 70.9742 42.913 88.4934C32.3707 65.7223 82.4967 9.37643 77.5499 0.946289C146.65 14.8999 156.515 73.0387 152.809 100.364C157.784 96.8272 169.794 86.5367 178.035 73.6687Z" fill="#FE5A2D"/>
<path d="M94.9094 96.4813C96.3281 106.165 105.446 112.848 115.274 111.408C125.102 109.968 131.919 100.951 130.501 91.2672C129.082 81.5836 119.965 74.9008 110.136 76.3407C100.308 77.7805 93.4907 86.7978 94.9094 96.4813Z" fill="white"/>
<path d="M96.0581 96.4076C96.9764 102.676 101.786 107.161 106.8 106.427C111.815 105.692 115.135 100.015 114.217 93.7472C113.299 87.4791 108.489 82.9933 103.475 83.7279C98.4604 84.4625 95.1398 90.1394 96.0581 96.4076Z" fill="#10202F"/>
<path d="M51.3176 99.2489C52.7363 108.932 61.8537 115.615 71.682 114.175C81.5103 112.736 88.3277 103.718 86.909 94.0347C85.4903 84.3512 76.3729 77.6684 66.5446 79.1082C56.7163 80.5481 49.899 89.5654 51.3176 99.2489Z" fill="white"/>
<path d="M52.4662 99.1749C53.3845 105.443 58.194 109.929 63.2085 109.194C68.223 108.46 71.5436 102.783 70.6253 96.5146C69.707 90.2464 64.8975 85.7606 59.883 86.4953C54.8685 87.2299 51.5479 92.9068 52.4662 99.1749Z" fill="#10202F"/>
</svg>
