<svg width="256" height="256" viewBox="0 0 256 256" fill="none" xmlns="http://www.w3.org/2000/svg">
<rect width="256" height="256" fill="white"/>
<path d="M215.444 105.716C224.915 133.388 210.146 208.725 135.738 222.308C57.2741 230.917 51.7879 180.913 54.672 185.383C56.9792 188.96 70.1656 193.486 76.4703 195.301C67.008 188.589 46.3505 168.72 39.4195 142.946C32.4885 117.172 52.6174 88.59 63.5482 77.5206C62.9808 84.5611 65.5438 103.022 80.335 120.539C69.7936 97.7702 119.915 41.4294 114.969 33C184.063 46.9524 193.927 105.086 190.222 132.409C195.196 128.872 207.204 118.583 215.444 105.716Z" fill="#FE5A2D"/>
<path d="M132.325 128.526C133.744 138.209 142.861 144.891 152.688 143.452C162.515 142.012 169.332 132.995 167.914 123.313C166.495 113.63 157.378 106.948 147.551 108.388C137.724 109.827 130.907 118.844 132.325 128.526Z" fill="white"/>
<path d="M133.474 128.453C134.392 134.72 139.201 139.206 144.215 138.471C149.229 137.736 152.55 132.06 151.631 125.793C150.713 119.525 145.904 115.04 140.89 115.774C135.876 116.509 132.556 122.185 133.474 128.453Z" fill="#10202F"/>
<path d="M88.7414 131.294C90.16 140.976 99.2766 147.659 109.104 146.219C118.931 144.779 125.748 135.763 124.33 126.08C122.911 116.397 113.794 109.715 103.967 111.155C94.1396 112.595 87.3229 121.611 88.7414 131.294Z" fill="white"/>
<path d="M89.8899 131.22C90.8081 137.487 95.6172 141.973 100.631 141.238C105.645 140.504 108.966 134.827 108.047 128.56C107.129 122.292 102.32 117.807 97.3061 118.541C92.292 119.276 88.9717 124.952 89.8899 131.22Z" fill="#10202F"/>
</svg>
