<svg width="26" height="30" viewBox="0 0 26 30" fill="none" xmlns="http://www.w3.org/2000/svg">
<path d="M22.5707 11.7639C24.367 12.8118 25.2652 13.3357 25.5675 14.018C25.8312 14.6132 25.8312 15.2922 25.5675 15.8874C25.2652 16.5697 24.367 17.0936 22.5707 18.1415L5.90153 27.8651C4.0809 28.9272 3.17058 29.4582 2.42306 29.382C1.7711 29.3155 1.17816 28.975 0.792245 28.4453C0.34977 27.838 0.34977 26.7841 0.34977 24.6764L0.349771 5.22905C0.349771 3.1213 0.349771 2.06742 0.792246 1.46012C1.17816 0.930459 1.7711 0.58989 2.42306 0.52343C3.17058 0.44723 4.0809 0.978248 5.90153 2.04028L22.5707 11.7639Z" fill="#F8F8FA"/>
</svg>
