<svg width="1400" height="369" viewBox="0 0 1400 369" fill="none" xmlns="http://www.w3.org/2000/svg">
<g clip-path="url(#clip0_826_1185)">
<path d="M1330.03 107.669C1339.51 135.343 1324.74 210.687 1250.32 224.271C1171.85 232.881 1166.36 182.872 1169.25 187.343C1171.56 190.92 1184.74 195.446 1191.05 197.262C1181.58 190.549 1160.93 170.678 1153.99 144.902C1147.06 119.126 1167.19 90.5413 1178.12 79.4709C1177.56 86.512 1180.12 104.974 1194.91 122.493C1184.37 99.7223 1234.5 43.3764 1229.55 34.9463C1298.65 48.8999 1308.51 107.039 1304.81 134.364C1309.78 130.827 1321.79 120.537 1330.03 107.669Z" fill="#FE5A2D"/>
<path d="M1246.91 130.481C1248.33 140.165 1257.45 146.848 1267.27 145.408C1277.1 143.968 1283.92 134.951 1282.5 125.267C1281.08 115.584 1271.96 108.901 1262.14 110.341C1252.31 111.781 1245.49 120.798 1246.91 130.481Z" fill="white"/>
<path d="M1248.06 130.408C1248.98 136.676 1253.79 141.161 1258.8 140.427C1263.81 139.692 1267.14 134.015 1266.22 127.747C1265.3 121.479 1260.49 116.993 1255.47 117.728C1250.46 118.463 1247.14 124.139 1248.06 130.408Z" fill="#10202F"/>
<path d="M1203.32 133.249C1204.74 142.932 1213.85 149.615 1223.68 148.175C1233.51 146.736 1240.33 137.718 1238.91 128.035C1237.49 118.351 1228.37 111.668 1218.54 113.108C1208.72 114.548 1201.9 123.565 1203.32 133.249Z" fill="white"/>
<path d="M1204.47 133.175C1205.38 139.443 1210.19 143.929 1215.21 143.194C1220.22 142.46 1223.54 136.783 1222.63 130.515C1221.71 124.246 1216.9 119.761 1211.88 120.495C1206.87 121.23 1203.55 126.907 1204.47 133.175Z" fill="#10202F"/>
<path d="M797.787 177.477C823.317 177.477 842.411 185.415 855.069 201.291C867.941 217.167 874.378 242.804 874.378 278.203V364.213C874.378 364.343 874.272 364.449 874.142 364.449H834.387C834.257 364.449 834.151 364.343 834.151 364.213V278.203C834.151 257.822 830.29 242.804 822.566 233.15C814.843 223.496 802.721 218.668 786.201 218.668C769.253 218.668 755.844 224.461 745.975 236.046C736.106 247.417 731.172 263.829 731.172 285.283V364.213C731.172 364.343 731.066 364.449 730.936 364.449H690.215C690.085 364.449 689.98 364.343 689.98 364.213V182.465C689.98 182.376 689.908 182.304 689.819 182.304C689.73 182.304 689.658 182.232 689.658 182.143V107.235C689.658 107.105 689.763 107 689.893 107H730.284C730.414 107 730.519 107.105 730.519 107.235L730.474 219.587C730.474 219.838 730.818 219.915 730.928 219.689C734.177 212.959 737.9 207.243 740.963 202.54L741.148 202.256C747.155 192.816 754.664 186.38 763.675 182.947C772.9 179.3 784.271 177.477 797.787 177.477Z" fill="black"/>
<path d="M220.626 270.158C220.626 289.252 221.591 302.125 223.522 308.776C225.453 315.426 229.958 319.717 237.038 321.648C244.305 323.358 258.278 324.216 278.958 324.222C279.088 324.222 279.195 324.328 279.195 324.458V364.213C279.195 364.343 279.088 364.449 278.958 364.449C247.33 364.436 224.775 361.861 211.293 356.725C197.777 351.576 189.195 342.995 185.548 330.98C182.116 318.752 180.399 298.478 180.399 270.158V223.731C180.399 223.601 180.294 223.496 180.164 223.496H145.235C145.105 223.496 145 223.39 145 223.26V182.539C145 182.409 145.105 182.304 145.235 182.304H180.164C180.294 182.304 180.399 182.198 180.399 182.068V120.108C180.399 119.978 180.505 119.872 180.635 119.872H220.39C220.52 119.872 220.626 119.978 220.626 120.108V182.068C220.626 182.198 220.731 182.304 220.861 182.304H278.638C278.768 182.304 278.873 182.409 278.873 182.539V223.26C278.873 223.39 278.768 223.496 278.638 223.496H220.861C220.731 223.496 220.626 223.601 220.626 223.731V270.158Z" fill="black"/>
<path fill-rule="evenodd" clip-rule="evenodd" d="M383.656 180.373C413.906 180.373 436.433 187.453 451.236 201.612C466.039 215.558 473.441 236.69 473.441 265.009V364.213C473.441 364.343 473.336 364.449 473.206 364.449H434.313C434.183 364.449 434.078 364.343 434.078 364.213V305.375C434.078 305.087 433.641 305.061 433.587 305.343C425.457 347.751 403.784 368.954 365.956 368.954C343.858 368.954 327.339 364.234 316.397 354.794C305.456 345.355 299.985 331.946 299.985 314.568C299.985 295.903 307.386 281.314 322.19 270.802C336.993 260.289 358.34 255.033 386.23 255.033H432.931C433.078 255.033 433.189 254.898 433.161 254.753C430.984 243.525 425.853 235.251 417.768 229.932C409.83 224.354 398.459 221.565 383.656 221.565C373.358 221.565 364.669 223.71 357.589 228.001C350.559 232.049 343.845 238.424 337.45 247.126C337.375 247.228 337.232 247.253 337.127 247.183L304.688 225.238C304.579 225.165 304.552 225.016 304.627 224.908C314.89 210.203 326.322 199.112 338.924 191.636C351.796 184.127 366.707 180.373 383.656 180.373ZM372.071 327.441C390.092 327.441 403.93 323.579 413.584 315.855C423.179 308.179 429.278 296.901 431.88 282.02C431.905 281.876 431.794 281.743 431.648 281.743H386.23C370.783 281.743 359.413 283.782 352.118 287.858C344.824 291.72 341.177 297.727 341.177 305.879C341.177 312.315 343.751 317.572 348.9 321.648C354.049 325.51 361.773 327.441 372.071 327.441Z" fill="black"/>
<path d="M581.464 369.276C622.36 369.276 651.29 353.463 668.252 321.837C668.309 321.73 668.277 321.597 668.177 321.529L636.044 299.895C635.937 299.823 635.79 299.852 635.717 299.959C622.86 318.709 605.849 328.084 584.682 328.084C569.021 328.084 556.363 323.364 546.708 313.924C537.054 304.27 532.227 291.183 532.227 274.664C532.227 259.002 537.054 246.237 546.708 236.368C556.577 226.499 569.235 221.565 584.682 221.565C596.053 221.565 605.814 223.925 613.967 228.645C622.288 233.125 630.504 241.319 638.613 253.227C638.686 253.335 638.834 253.364 638.942 253.29L670.436 231.657C670.533 231.591 670.566 231.462 670.512 231.357C662.152 214.927 650.49 202.331 635.528 193.567C620.51 184.771 602.489 180.373 581.464 180.373C564.515 180.373 549.068 184.556 535.123 192.924C521.393 201.291 510.558 212.769 502.62 227.357C494.897 241.732 491.035 257.5 491.035 274.664C491.035 291.827 494.897 307.703 502.62 322.292C510.558 336.666 521.393 348.144 535.123 356.725C549.068 365.092 564.515 369.276 581.464 369.276Z" fill="black"/>
<path fill-rule="evenodd" clip-rule="evenodd" d="M936.731 356.404C950.676 364.985 966.123 369.276 983.072 369.276C1000.02 369.276 1015.47 364.985 1029.41 356.404C1043.36 347.822 1054.3 336.129 1062.24 321.326C1070.18 306.523 1074.14 290.325 1074.14 272.733C1074.14 271.82 1074.13 270.911 1074.11 270.006C1074.18 267.839 1074.22 265.467 1074.22 262.878C1074.22 181.742 993.425 136.143 958.135 132.912C957.947 132.895 957.833 133.096 957.924 133.262C961.601 139.979 963.903 149.579 963.903 160.239C963.903 180.548 955.548 197.012 945.241 197.012C937.874 197.012 931.503 188.599 928.47 176.381C928.437 176.249 928.299 176.17 928.17 176.213C921.917 178.31 915.727 184.512 910.207 196.465C896.515 226.116 891.503 247.587 891.678 272.316C891.678 272.455 891.678 272.594 891.678 272.733C891.678 274.759 891.73 276.766 891.836 278.755C891.88 279.837 891.933 280.926 891.995 282.024C891.996 282.041 892.019 282.046 892.027 282.03C892.034 282.015 892.057 282.019 892.058 282.036C893.224 296.073 897.066 309.17 903.585 321.326C911.737 336.129 922.786 347.822 936.731 356.404ZM1020.08 313.603C1010.86 324.115 998.519 329.371 983.072 329.371C967.84 329.371 955.503 324.115 946.064 313.603C936.624 302.876 931.904 289.36 931.904 273.054C931.904 256.964 936.624 243.662 946.064 233.15C955.503 222.423 967.84 217.059 983.072 217.059C998.519 217.059 1010.86 222.316 1020.08 232.828C1029.31 243.341 1033.92 256.749 1033.92 273.054C1033.92 289.36 1029.31 302.876 1020.08 313.603Z" fill="black"/>
<path d="M1127.04 298.248C1127.15 298.196 1127.29 298.244 1127.34 298.356C1132.48 308.341 1138.88 315.998 1146.55 321.326C1154.49 326.475 1164.57 329.05 1176.8 329.05C1202.97 329.05 1216.06 323.364 1216.06 311.994C1216.06 306.416 1213.49 302.125 1208.34 299.121C1203.19 296.118 1193.32 293.221 1178.73 290.432L1167.15 288.18C1142.69 283.674 1124.99 276.809 1114.05 267.584C1103.11 258.144 1097.63 245.701 1097.63 230.254C1097.63 221.243 1100.21 212.983 1105.36 205.474C1110.72 197.965 1118.87 191.958 1129.82 187.453C1140.97 182.733 1154.7 180.373 1171.01 180.373C1192.03 180.373 1208.77 184.664 1221.21 193.245C1233.6 201.577 1243.86 214.164 1252 231.005C1252.06 231.123 1252.01 231.265 1251.89 231.321L1217.86 247.54C1217.75 247.592 1217.62 247.552 1217.56 247.448C1211.37 237.248 1204.76 230.122 1197.72 226.07C1190.64 221.779 1181.73 219.634 1171.01 219.634C1158.99 219.634 1150.3 221.136 1144.94 224.139C1139.79 226.928 1137.22 230.683 1137.22 235.403C1137.22 240.337 1139.26 244.199 1143.33 246.988C1147.62 249.777 1155.56 252.459 1167.15 255.033L1178.73 257.286C1198.9 260.933 1214.45 265.438 1225.39 270.802C1236.55 276.165 1244.27 282.387 1248.56 289.467C1252.85 296.332 1255 304.699 1255 314.568C1255 323.579 1252.21 332.268 1246.63 340.635C1241.27 348.787 1232.69 355.438 1220.89 360.587C1209.09 365.736 1194.39 368.311 1176.8 368.311C1155.13 368.311 1137.43 364.234 1123.7 356.082C1110.24 347.748 1098.59 334.306 1088.74 315.756C1088.68 315.636 1088.73 315.486 1088.85 315.431L1127.04 298.248Z" fill="black"/>
<path d="M387.503 149.558C345.13 185.153 290.486 152.07 268.461 131.079C267.362 125.909 270.092 116.629 289.801 120.872C314.437 126.176 345.835 134.506 351.139 109.869C355.258 90.7318 359.584 47.684 379 46.0026C384.579 45.5195 390.484 45.869 396.539 47.1155C423.667 52.7001 440.47 105.066 387.503 149.558Z" fill="#FE5A2D"/>
<path d="M379.966 46.1142C385.545 45.6311 391.45 45.9806 397.505 47.2271C401.748 27.5158 419.607 22.8049 428.006 22.9134L429.975 5.47118C397.855 3.86563 383.252 31.8975 379.966 46.1142Z" fill="black"/>
</g>
<defs>
<clipPath id="clip0_826_1185">
<rect width="1400" height="369" fill="white"/>
</clipPath>
</defs>
</svg>
