<svg width="162" height="166" viewBox="0 0 162 166" fill="none" xmlns="http://www.w3.org/2000/svg">
<path d="M119.503 149.558C77.1298 185.153 22.4864 152.07 0.461425 131.079C-0.63751 125.909 2.09188 116.629 21.8009 120.872C46.4373 126.176 77.8352 134.506 83.1386 109.869C87.2583 90.7318 91.584 47.684 111 46.0026C116.579 45.5195 122.484 45.869 128.539 47.1155C155.667 52.7001 172.47 105.066 119.503 149.558Z" fill="#FE5A2D"/>
<path d="M111.966 46.1142C117.545 45.6311 123.45 45.9806 129.505 47.2271C133.748 27.5158 151.607 22.8049 160.006 22.9134L161.975 5.47118C129.855 3.86563 115.252 31.8975 111.966 46.1142Z" fill="black"/>
</svg>
