<svg width="1110" height="262" viewBox="0 0 1110 262" fill="none" xmlns="http://www.w3.org/2000/svg">
<path d="M652.787 70.4766C678.317 70.4766 697.411 78.4146 710.069 94.2906C722.941 110.167 729.378 135.804 729.378 171.203V257.213C729.378 257.343 729.272 257.449 729.142 257.449H689.387C689.257 257.449 689.151 257.343 689.151 257.213V171.203C689.151 150.822 685.29 135.804 677.566 126.15C669.843 116.496 657.721 111.668 641.201 111.668C624.253 111.668 610.844 117.461 600.975 129.046C591.106 140.417 586.172 156.829 586.172 178.283V257.213C586.172 257.343 586.066 257.449 585.936 257.449H545.215C545.085 257.449 544.98 257.343 544.98 257.213V75.4647C544.98 75.3758 544.908 75.3038 544.819 75.3038C544.73 75.3038 544.658 75.2317 544.658 75.1429V0.235369C544.658 0.105378 544.763 0 544.893 0H585.284C585.414 0 585.519 0.105438 585.519 0.235466L585.474 112.587C585.474 112.838 585.818 112.915 585.928 112.689C589.177 105.959 592.9 100.243 595.963 95.54L596.148 95.2561C602.155 85.8163 609.664 79.38 618.675 75.9474C627.9 72.3002 639.271 70.4766 652.787 70.4766Z" fill="black"/>
<path d="M75.6257 163.158C75.6257 182.252 76.5911 195.125 78.5219 201.776C80.4528 208.426 84.9582 212.717 92.038 214.648C99.3046 216.358 113.278 217.216 133.958 217.222C134.088 217.222 134.195 217.328 134.195 217.458V257.213C134.195 257.343 134.088 257.449 133.958 257.449C102.33 257.436 79.7755 254.861 66.2931 249.725C52.7771 244.576 44.1954 235.995 40.5482 223.98C37.1156 211.752 35.3992 191.478 35.3992 163.158V116.731C35.3992 116.601 35.2939 116.496 35.1639 116.496H0.235369C0.105378 116.496 0 116.39 0 116.26V75.5391C0 75.4091 0.10538 75.3038 0.23537 75.3038H35.1639C35.2939 75.3038 35.3992 75.1984 35.3992 75.0684V13.1078C35.3992 12.9778 35.5046 12.8724 35.6346 12.8724H75.3903C75.5203 12.8724 75.6257 12.9778 75.6257 13.1078V75.0684C75.6257 75.1984 75.731 75.3038 75.861 75.3038H133.638C133.768 75.3038 133.873 75.4091 133.873 75.5391V116.26C133.873 116.39 133.768 116.496 133.638 116.496H75.861C75.731 116.496 75.6257 116.601 75.6257 116.731V163.158Z" fill="black"/>
<path fill-rule="evenodd" clip-rule="evenodd" d="M238.656 73.3729C268.906 73.3729 291.433 80.4527 306.236 94.6124C321.039 108.558 328.441 129.69 328.441 158.009V257.213C328.441 257.343 328.336 257.449 328.206 257.449H289.313C289.183 257.449 289.078 257.343 289.078 257.213V198.375C289.078 198.087 288.641 198.061 288.587 198.343C280.457 240.751 258.784 261.954 220.956 261.954C198.858 261.954 182.339 257.234 171.397 247.794C160.456 238.355 154.985 224.946 154.985 207.568C154.985 188.903 162.386 174.314 177.19 163.802C191.993 153.289 213.34 148.033 241.23 148.033H287.931C288.078 148.033 288.189 147.898 288.161 147.753C285.984 136.525 280.853 128.251 272.768 122.932C264.83 117.354 253.459 114.565 238.656 114.565C228.358 114.565 219.669 116.71 212.589 121.001C205.559 125.049 198.845 131.424 192.45 140.126C192.375 140.228 192.232 140.253 192.127 140.183L159.688 118.238C159.579 118.165 159.552 118.016 159.627 117.908C169.89 103.203 181.322 92.112 193.924 84.6363C206.796 77.1274 221.707 73.3729 238.656 73.3729ZM227.071 220.441C245.092 220.441 258.93 216.579 268.584 208.855C278.179 201.179 284.278 189.901 286.88 175.02C286.905 174.876 286.794 174.743 286.648 174.743H241.23C225.783 174.743 214.413 176.782 207.118 180.858C199.824 184.72 196.177 190.727 196.177 198.879C196.177 205.315 198.751 210.572 203.9 214.648C209.049 218.51 216.773 220.441 227.071 220.441Z" fill="black"/>
<path d="M436.464 262.276C477.36 262.276 506.29 246.463 523.252 214.837C523.309 214.73 523.277 214.597 523.177 214.529L491.044 192.895C490.937 192.823 490.79 192.852 490.717 192.959C477.86 211.709 460.849 221.084 439.682 221.084C424.021 221.084 411.363 216.364 401.708 206.924C392.054 197.27 387.227 184.183 387.227 167.664C387.227 152.002 392.054 139.237 401.708 129.368C411.577 119.499 424.235 114.565 439.682 114.565C451.053 114.565 460.814 116.925 468.967 121.645C477.288 126.125 485.504 134.319 493.613 146.227C493.686 146.335 493.834 146.364 493.942 146.29L525.436 124.657C525.533 124.591 525.566 124.462 525.512 124.357C517.152 107.927 505.49 95.3306 490.528 86.5672C475.51 77.771 457.489 73.3729 436.464 73.3729C419.515 73.3729 404.068 77.5564 390.123 85.9235C376.393 94.2906 365.558 105.769 357.62 120.357C349.897 134.732 346.035 150.5 346.035 167.664C346.035 184.827 349.897 200.703 357.62 215.292C365.558 229.666 376.393 241.144 390.123 249.725C404.068 258.092 419.515 262.276 436.464 262.276Z" fill="black"/>
<path fill-rule="evenodd" clip-rule="evenodd" d="M791.731 249.404C805.676 257.985 821.123 262.276 838.072 262.276C855.021 262.276 870.468 257.985 884.413 249.404C898.358 240.822 909.3 229.129 917.238 214.326C925.176 199.523 929.145 183.325 929.145 165.733C929.145 164.82 929.134 163.911 929.112 163.006C929.185 160.839 929.222 158.467 929.222 155.878C929.222 74.7417 848.425 29.1433 813.135 25.9121C812.947 25.8949 812.833 26.0964 812.924 26.2621C816.601 32.9787 818.903 42.579 818.903 53.2386C818.903 73.5483 810.548 90.0125 800.241 90.0125C792.874 90.0125 786.503 81.5989 783.47 69.3814C783.437 69.249 783.299 69.1697 783.17 69.2131C776.917 71.3099 770.727 77.5117 765.207 89.4652C751.515 119.116 746.503 140.587 746.678 165.316C746.678 165.455 746.678 165.594 746.678 165.733C746.678 167.759 746.73 169.766 746.836 171.755C746.88 172.837 746.933 173.926 746.995 175.024C746.996 175.041 747.019 175.046 747.027 175.03C747.034 175.015 747.057 175.019 747.058 175.036C748.224 189.073 752.066 202.17 758.585 214.326C766.737 229.129 777.786 240.822 791.731 249.404ZM875.08 206.603C865.855 217.115 853.519 222.371 838.072 222.371C822.84 222.371 810.503 217.115 801.064 206.603C791.624 195.876 786.904 182.36 786.904 166.054C786.904 149.964 791.624 136.662 801.064 126.15C810.503 115.423 822.84 110.059 838.072 110.059C853.519 110.059 865.855 115.316 875.08 125.828C884.306 136.341 888.918 149.749 888.918 166.054C888.918 182.36 884.306 195.876 875.08 206.603Z" fill="black"/>
<path d="M982.037 191.248C982.151 191.196 982.286 191.244 982.343 191.356C987.475 201.341 993.877 208.998 1001.55 214.326C1009.49 219.475 1019.57 222.05 1031.8 222.05C1057.97 222.05 1071.06 216.364 1071.06 204.994C1071.06 199.416 1068.49 195.125 1063.34 192.121C1058.19 189.118 1048.32 186.221 1033.73 183.432L1022.15 181.18C997.688 176.674 979.988 169.809 969.047 160.584C958.105 151.144 952.634 138.701 952.634 123.254C952.634 114.243 955.209 105.983 960.358 98.4742C965.721 90.9652 973.874 84.9581 984.815 80.4528C995.972 75.7329 1009.7 73.3729 1026.01 73.3729C1047.03 73.3729 1063.77 77.6637 1076.21 86.2454C1088.6 94.5772 1098.86 107.164 1107 124.005C1107.06 124.123 1107.01 124.265 1106.89 124.321L1072.86 140.54C1072.75 140.592 1072.62 140.552 1072.56 140.448C1066.37 130.248 1059.76 123.122 1052.72 119.07C1045.64 114.779 1036.73 112.634 1026.01 112.634C1013.99 112.634 1005.3 114.136 999.941 117.139C994.792 119.928 992.217 123.683 992.217 128.403C992.217 133.337 994.255 137.199 998.331 139.988C1002.62 142.777 1010.56 145.459 1022.15 148.033L1033.73 150.286C1053.9 153.933 1069.45 158.438 1080.39 163.802C1091.55 169.165 1099.27 175.387 1103.56 182.467C1107.85 189.332 1110 197.699 1110 207.568C1110 216.579 1107.21 225.268 1101.63 233.635C1096.27 241.787 1087.69 248.438 1075.89 253.587C1064.09 258.736 1049.39 261.311 1031.8 261.311C1010.13 261.311 992.432 257.234 978.701 249.082C965.239 240.748 953.586 227.306 943.742 208.756C943.678 208.636 943.728 208.486 943.852 208.431L982.037 191.248Z" fill="black"/>
</svg>
