<svg width="119" height="29" viewBox="0 0 119 29" fill="none" xmlns="http://www.w3.org/2000/svg">
<path d="M69.9834 7.5556C72.7205 7.5556 74.7675 8.40661 76.1245 10.1086C77.5045 11.8107 78.1945 14.5592 78.1945 18.3542V27.365C78.1945 27.495 78.0892 27.6004 77.9592 27.6004H74.1174C73.9874 27.6004 73.882 27.495 73.882 27.365V18.3542C73.882 16.1692 73.468 14.5592 72.64 13.5242C71.812 12.4892 70.5124 11.9717 68.7414 11.9717C66.9244 11.9717 65.4869 12.5927 64.4288 13.8347C63.3708 15.0537 62.8418 16.8132 62.8418 19.1133V27.365C62.8418 27.495 62.7365 27.6004 62.6065 27.6004H58.6611C58.5311 27.6004 58.4258 27.495 58.4258 27.365V8.09036C58.4258 8.08083 58.418 8.07311 58.4085 8.07311C58.399 8.07311 58.3913 8.06538 58.3913 8.05585V0.235369C58.3913 0.105378 58.4966 0 58.6266 0H62.5364C62.6665 0 62.7719 0.105437 62.7718 0.235465L62.7674 11.1268C62.7673 11.3784 63.1338 11.4669 63.2607 11.2496C63.479 10.876 63.6976 10.5404 63.8915 10.2426L63.9113 10.2121C64.5554 9.20012 65.3604 8.51011 66.3264 8.14211C67.3154 7.7511 68.5344 7.5556 69.9834 7.5556Z" fill="black"/>
<path d="M8.10762 17.4917C8.10762 19.5388 8.21112 20.9188 8.41812 21.6318C8.62512 22.3448 9.10813 22.8048 9.86714 23.0118C10.6213 23.1893 12.0493 23.2811 14.1511 23.2875C14.2811 23.2879 14.3867 23.3932 14.3867 23.5232V27.365C14.3867 27.495 14.2808 27.6004 14.1508 27.5999C10.8703 27.5874 8.52242 27.3115 7.1071 26.7724C5.65808 26.2204 4.73807 25.3003 4.34706 24.0123C3.97906 22.7013 3.79505 20.5278 3.79505 17.4917V12.7245C3.79505 12.5945 3.68968 12.4892 3.55969 12.4892H0.235369C0.105378 12.4892 0 12.3838 0 12.2538V8.30848C0 8.17848 0.105378 8.07311 0.235369 8.07311H3.55969C3.68968 8.07311 3.79505 7.96773 3.79505 7.83774V1.61539C3.79505 1.4854 3.90043 1.38002 4.03042 1.38002H7.87225C8.00224 1.38002 8.10762 1.4854 8.10762 1.61539V7.83774C8.10762 7.96773 8.21299 8.07311 8.34298 8.07311H14.1168C14.2468 8.07311 14.3522 8.17848 14.3522 8.30848V12.2538C14.3522 12.3838 14.2468 12.4892 14.1168 12.4892H8.34298C8.21299 12.4892 8.10762 12.5945 8.10762 12.7245V17.4917Z" fill="black"/>
<path fill-rule="evenodd" clip-rule="evenodd" d="M25.5856 7.8661C28.8287 7.8661 31.2437 8.62511 32.8307 10.1431C34.4177 11.6382 35.2113 13.9037 35.2113 16.9397V27.365C35.2113 27.495 35.1059 27.6004 34.9759 27.6004H31.2266C31.0966 27.6004 30.9912 27.495 30.9912 27.365V23.6904C30.9912 23.4026 30.3922 23.3262 30.2883 23.5946C29.1285 26.5871 26.9783 28.0834 23.6881 28.0834C21.3191 28.0834 19.548 27.5774 18.375 26.5654C17.202 25.5533 16.6155 24.1158 16.6155 22.2528C16.6155 20.2518 17.409 18.6877 18.996 17.5607C20.583 16.4337 22.8716 15.8702 25.8616 15.8702H30.6148C30.7622 15.8702 30.8737 15.7358 30.8394 15.5924C30.5811 14.514 30.0489 13.7096 29.2427 13.1792C28.3917 12.5812 27.1726 12.2822 25.5856 12.2822C24.4816 12.2822 23.5501 12.5122 22.7911 12.9722C22.0817 13.3806 21.4025 14.01 20.7533 14.8605C20.6765 14.9611 20.5345 14.986 20.4297 14.9151L17.296 12.7953C17.1873 12.7218 17.1597 12.5734 17.2361 12.4668C18.3045 10.9764 19.4892 9.84534 20.79 9.07362C22.1701 8.26861 23.7686 7.8661 25.5856 7.8661ZM24.3436 23.6328C26.2756 23.6328 27.7591 23.2188 28.7942 22.3908C29.7695 21.6105 30.4079 20.483 30.7092 19.0082C30.7384 18.8653 30.6274 18.7338 30.4815 18.7338H25.8616C24.2056 18.7338 22.9866 18.9523 22.2046 19.3893C21.4226 19.8033 21.0316 20.4473 21.0316 21.3213C21.0316 22.0113 21.3076 22.5748 21.8596 23.0118C22.4116 23.4258 23.2396 23.6328 24.3436 23.6328Z" fill="black"/>
<path d="M46.7921 28.1179C51.104 28.1179 54.175 26.4782 56.0051 23.1988C56.064 23.0934 56.0311 22.9606 55.931 22.8932L52.8168 20.7965C52.7094 20.7242 52.564 20.7524 52.4884 20.8575C51.1249 22.7537 49.3411 23.7018 47.1371 23.7018C45.4581 23.7018 44.1011 23.1958 43.066 22.1838C42.031 21.1488 41.5135 19.7458 41.5135 17.9747C41.5135 16.2957 42.031 14.9272 43.066 13.8692C44.1241 12.8112 45.4811 12.2822 47.1371 12.2822C48.3561 12.2822 49.4026 12.5352 50.2766 13.0412C51.1277 13.4994 51.9683 14.3199 52.7986 15.5027C52.8736 15.6095 53.0207 15.6376 53.1283 15.5637L56.179 13.4683C56.2762 13.4015 56.3092 13.273 56.254 13.1687C55.3642 11.4869 54.1423 10.1909 52.5882 9.28062C50.9782 8.33761 49.0461 7.8661 46.7921 7.8661C44.9751 7.8661 43.319 8.31461 41.824 9.21162C40.352 10.1086 39.1905 11.3392 38.3395 12.9032C37.5115 14.4442 37.0975 16.1347 37.0975 17.9747C37.0975 19.8148 37.5115 21.5168 38.3395 23.0808C39.1905 24.6218 40.352 25.8523 41.824 26.7724C43.319 27.6694 44.9751 28.1179 46.7921 28.1179Z" fill="black"/>
<path fill-rule="evenodd" clip-rule="evenodd" d="M84.8793 26.7379C86.3743 27.6579 88.0303 28.1179 89.8474 28.1179C91.6644 28.1179 93.3204 27.6579 94.8154 26.7379C96.3104 25.8178 97.4835 24.5643 98.3345 22.9773C99.1855 21.3903 99.611 19.6538 99.611 17.7677C99.611 17.6678 99.6098 17.5684 99.6073 17.4693C99.615 17.2387 99.6189 16.9864 99.6189 16.7113C99.6189 8.30259 91.5242 3.45426 87.5673 2.82775C87.3807 2.7982 87.25 2.99896 87.3241 3.17274C87.6163 3.85807 87.7923 4.74225 87.7923 5.70744C87.7923 7.88478 86.8966 9.64987 85.7917 9.64987C85.0463 9.64987 84.3962 8.84664 84.052 7.65548C84.0141 7.52445 83.8761 7.44593 83.7529 7.50453C83.154 7.7895 82.5657 8.44276 82.0353 9.59141C80.5612 12.7838 80.0256 15.0918 80.0492 17.7574L80.0492 17.7677C80.0492 17.9744 80.0543 18.1792 80.0645 18.3823C80.0695 18.5084 80.0756 18.6354 80.0828 18.7635L80.0864 18.7643L80.09 18.7649C80.215 20.2699 80.6269 21.674 81.3257 22.9773C82.1998 24.5643 83.3843 25.8178 84.8793 26.7379ZM93.8149 22.1493C92.8259 23.2763 91.5034 23.8398 89.8474 23.8398C88.2143 23.8398 86.8918 23.2763 85.8798 22.1493C84.8678 20.9993 84.3618 19.5503 84.3618 17.8022C84.3618 16.0772 84.8678 14.6512 85.8798 13.5242C86.8918 12.3742 88.2143 11.7992 89.8474 11.7992C91.5034 11.7992 92.8259 12.3627 93.8149 13.4897C94.8039 14.6167 95.2984 16.0542 95.2984 17.8022C95.2984 19.5503 94.8039 20.9993 93.8149 22.1493Z" fill="black"/>
<path d="M105.099 20.5852C105.213 20.5337 105.348 20.5812 105.408 20.6915C105.941 21.6761 106.597 22.438 107.373 22.9773C108.224 23.5293 109.305 23.8053 110.616 23.8053C113.422 23.8053 114.825 23.1958 114.825 21.9768C114.825 21.3788 114.549 20.9188 113.997 20.5968C113.445 20.2748 112.387 19.9643 110.823 19.6653L109.581 19.4238C106.959 18.9408 105.062 18.2047 103.889 17.2157C102.716 16.2037 102.129 14.8697 102.129 13.2137C102.129 12.2477 102.405 11.3622 102.957 10.5571C103.532 9.75213 104.406 9.10812 105.579 8.62512C106.775 8.11911 108.247 7.8661 109.995 7.8661C112.249 7.8661 114.043 8.32611 115.377 9.24612C116.659 10.1079 117.728 11.3942 118.585 13.105C118.644 13.2215 118.594 13.3627 118.476 13.4188L115.19 14.985C115.081 15.037 114.95 14.9975 114.886 14.8951C114.251 13.8878 113.576 13.1778 112.859 12.7652C112.1 12.3052 111.145 12.0752 109.995 12.0752C108.707 12.0752 107.776 12.2362 107.201 12.5582C106.649 12.8572 106.373 13.2597 106.373 13.7657C106.373 14.2947 106.591 14.7087 107.028 15.0077C107.488 15.3067 108.339 15.5942 109.581 15.8702L110.823 16.1117C112.985 16.5027 114.653 16.9857 115.826 17.5607C117.022 18.1357 117.85 18.8028 118.31 19.5618C118.77 20.2978 119 21.1948 119 22.2528C119 23.2188 118.701 24.1503 118.103 25.0473C117.528 25.9213 116.608 26.6344 115.343 27.1864C114.078 27.7384 112.502 28.0144 110.616 28.0144C108.293 28.0144 106.396 27.5774 104.924 26.7034C103.529 25.8397 102.315 24.4644 101.282 22.5773C101.217 22.4582 101.268 22.3091 101.392 22.2534L105.099 20.5852Z" fill="black"/>
</svg>
