<svg width="629" height="727" viewBox="0 0 629 727" fill="none" xmlns="http://www.w3.org/2000/svg">
<g style="mix-blend-mode:color-burn" filter="url(#filter0_b_805_5541)">
<path d="M541.635 119.108L541.909 118.69L541.192 118.22L541.136 119.076L541.635 119.108ZM625.137 363.598L624.639 363.65L625.137 363.598ZM519.184 148.551L518.866 148.936L519.184 148.551ZM501.578 127.458L501.182 127.764L501.578 127.458ZM320.504 0.976163L320.518 0.47636L320.272 1.41918L320.504 0.976163ZM241.838 66.1709L242.047 66.6253L241.838 66.1709ZM206.43 83.3024L206.676 83.7377L206.43 83.3024ZM118.387 156.888L117.912 157.044L118.167 157.822L118.743 157.24L118.387 156.888ZM21.7043 308.459L21.3689 308.83L22.3461 309.714L22.2013 308.404L21.7043 308.459ZM4.98833 268.914L5.48681 268.953L4.49522 268.831L4.98833 268.914ZM9.38966 469.327L9.88169 469.238L9.8789 469.223L9.87514 469.208L9.38966 469.327ZM627.001 384.228L626.965 383.729L626.454 383.766L626.503 384.275L627.001 384.228ZM627.331 384.204L627.367 384.703L627.885 384.666L627.828 384.149L627.331 384.204ZM541.362 119.526C572.312 139.767 591.068 180.787 603.119 226.834C615.163 272.857 620.477 323.766 624.639 363.65L625.634 363.546C621.473 323.675 616.153 272.689 604.086 226.581C592.025 180.496 573.193 139.148 541.909 118.69L541.362 119.526ZM518.866 148.936C523.464 152.726 527.181 154.404 530.214 154.252C533.306 154.097 535.519 152.06 537.125 148.884C538.726 145.716 539.776 141.321 540.528 136.223C541.28 131.116 541.739 125.257 542.134 119.14L541.136 119.076C540.741 125.191 540.285 131.014 539.538 136.077C538.791 141.149 537.758 145.414 536.232 148.433C534.71 151.445 532.75 153.124 530.164 153.253C527.52 153.386 524.053 151.916 519.502 148.165L518.866 148.936ZM501.182 127.764C505.176 132.944 508.66 137.463 511.607 141.067C514.548 144.664 516.98 147.382 518.866 148.936L519.502 148.165C517.701 146.68 515.324 144.033 512.382 140.434C509.445 136.844 505.971 132.337 501.974 127.153L501.182 127.764ZM320.49 1.47597C363.037 2.67465 400.287 23.9539 430.88 50.1059C461.471 76.2563 485.356 107.236 501.182 127.764L501.974 127.153C486.152 106.63 462.209 75.5721 431.53 49.3457C400.851 23.1208 363.388 1.68414 320.518 0.47636L320.49 1.47597ZM242.047 66.6253C265.201 55.9879 292.301 43.5392 309.911 31.8085C314.317 28.8737 318.141 25.9763 321.165 23.1556C324.185 20.339 326.433 17.5758 327.656 14.9042C328.886 12.2191 329.089 9.60123 327.968 7.13909C326.857 4.69738 324.482 2.49312 320.736 0.53315L320.272 1.41918C323.918 3.3269 326.076 5.39551 327.058 7.55329C328.031 9.69062 327.887 11.9988 326.747 14.4879C325.601 16.9904 323.458 19.6493 320.483 22.4243C317.512 25.1953 313.736 28.059 309.357 30.9762C291.826 42.6534 264.81 55.0666 241.629 65.7166L242.047 66.6253ZM206.676 83.7377C214.838 79.1257 227.679 73.226 242.047 66.6253L241.629 65.7166C227.28 72.3089 214.392 78.2293 206.184 82.8671L206.676 83.7377ZM118.743 157.24C127.642 148.242 142.724 133.764 159.038 119.583C175.358 105.396 192.884 91.5312 206.676 83.7377L206.184 82.8671C192.298 90.7134 174.709 104.635 158.382 118.828C142.047 133.028 126.947 147.523 118.032 156.537L118.743 157.24ZM120.641 121.872C116.639 127.196 115.375 134.192 115.392 140.717C115.41 147.25 116.711 153.381 117.912 157.044L118.862 156.733C117.69 153.157 116.409 147.131 116.392 140.715C116.375 134.291 117.625 127.549 121.44 122.473L120.641 121.872ZM22.2013 308.404C19.974 288.267 25.6365 265.775 35.2769 243.532C44.9141 221.296 58.5063 199.356 72.0824 180.34C85.6574 161.325 99.2074 145.246 108.752 134.734C113.525 129.477 117.291 125.619 119.553 123.484C120.119 122.95 120.587 122.528 120.951 122.219C121.328 121.9 121.562 121.731 121.67 121.674C121.695 121.661 121.688 121.668 121.658 121.675C121.652 121.677 121.495 121.72 121.327 121.612C121.12 121.478 121.113 121.266 121.117 121.211C121.12 121.152 121.136 121.123 121.127 121.144C121.092 121.23 120.952 121.458 120.641 121.872L121.44 122.473C121.74 122.074 121.961 121.746 122.053 121.522C122.076 121.465 122.109 121.374 122.115 121.268C122.121 121.166 122.103 120.922 121.869 120.772C121.676 120.647 121.479 120.689 121.419 120.704C121.335 120.725 121.26 120.76 121.204 120.789C120.986 120.904 120.676 121.142 120.305 121.456C119.922 121.781 119.44 122.216 118.867 122.757C116.578 124.916 112.793 128.796 108.011 134.062C98.4452 144.598 84.8697 160.707 71.2686 179.759C57.6686 198.808 44.0342 220.812 34.3594 243.134C24.6877 265.449 18.9526 288.129 21.2073 308.514L22.2013 308.404ZM4.18706 272.894C4.16546 281.512 7.52664 296.311 21.3689 308.83L22.0397 308.088C8.44084 295.79 5.16605 281.279 5.18706 272.897L4.18706 272.894ZM4.48984 268.875C4.38959 270.16 4.289 271.489 4.18841 272.859L5.18572 272.932C5.28621 271.563 5.38669 270.236 5.48681 268.953L4.48984 268.875ZM5.18706 272.897C5.19089 271.371 5.3039 270.055 5.48144 268.997L4.49522 268.831C4.30728 269.951 4.191 271.323 4.18706 272.894L5.18706 272.897ZM9.87514 469.208C3.98094 445.285 1.91502 408.339 1.77223 371.284C1.62949 334.242 3.4081 297.14 5.18572 272.932L4.18841 272.859C2.40927 297.087 0.629383 334.215 0.772235 371.288C0.915036 408.346 2.97879 445.398 8.90418 469.447L9.87514 469.208ZM360.106 722.056C193.76 745.637 39.5035 633.166 9.88169 469.238L8.89763 469.416C38.6146 633.87 193.366 746.703 360.246 723.046L360.106 722.056ZM626.503 384.275C642.232 549.025 525.643 698.589 360.106 722.056L360.246 723.046C526.315 699.504 643.278 549.46 627.499 384.18L626.503 384.275ZM627.295 383.705C627.185 383.713 627.075 383.721 626.965 383.729L627.037 384.727C627.147 384.719 627.257 384.711 627.367 384.703L627.295 383.705ZM624.639 363.65C625.398 370.918 626.118 377.821 626.834 384.259L627.828 384.149C627.112 377.715 626.392 370.815 625.634 363.546L624.639 363.65Z" fill="black"/>
</g>
<defs>
<filter id="filter0_b_805_5541" x="-3.23438" y="-3.52368" width="636.156" height="733.703" filterUnits="userSpaceOnUse" color-interpolation-filters="sRGB">
<feFlood flood-opacity="0" result="BackgroundImageFix"/>
<feGaussianBlur in="BackgroundImageFix" stdDeviation="2"/>
<feComposite in2="SourceAlpha" operator="in" result="effect1_backgroundBlur_805_5541"/>
<feBlend mode="normal" in="SourceGraphic" in2="effect1_backgroundBlur_805_5541" result="shape"/>
</filter>
</defs>
</svg>
