<svg width="134" height="134" viewBox="0 0 134 134" fill="none" xmlns="http://www.w3.org/2000/svg">
<rect width="134" height="134" rx="26" fill="#EDD5FF"/>
<path fill-rule="evenodd" clip-rule="evenodd" d="M66.7884 52.8052C67.2931 52.3254 64.2738 51.6947 61.9308 53.2942C60.2027 54.4745 60.1473 57.0036 61.8016 58.4373C61.9676 58.5791 62.1038 58.6802 62.2311 58.7629C62.7136 58.5352 63.2644 58.3053 63.8978 58.0993C64.9685 57.7521 65.8579 57.5715 66.5891 57.4759C66.9393 57.0844 67.3466 56.3954 67.2451 55.1473C67.1068 53.454 65.8247 53.7223 66.7884 52.8052ZM82.6379 61.9984C82.3523 61.8401 81.015 61.9029 80.0753 62.0145C78.2849 62.226 76.3525 62.8475 75.929 63.1782C75.159 63.7738 75.5087 64.8123 76.078 65.239C77.6732 66.4317 79.0715 67.2315 80.5472 67.0366C81.4532 66.9171 82.2527 65.4814 82.8183 64.1783C83.2053 63.2811 83.2053 62.3124 82.638 61.9984M76.5242 51.399C76.4209 51.6341 76.2584 51.7883 76.5019 52.5553L76.5175 52.5991L76.5559 52.6984L76.6574 52.9284C77.0956 53.8251 77.5768 54.6711 78.3813 55.1028C78.5899 55.0682 78.8053 55.0442 79.0281 55.0331C79.7837 54.9998 80.2607 55.1195 80.5629 55.2829C80.5901 55.1324 80.5956 54.9117 80.5785 54.5861C80.5193 53.4502 80.8031 51.5182 78.622 50.5018C77.7986 50.1195 76.6434 50.2372 76.2582 50.7152C76.3287 50.7243 76.3912 50.7387 76.4409 50.7553C77.0231 50.9576 76.6288 51.158 76.5239 51.399M98.9882 66.9688L97.1093 67.3271L93.5004 30L32 37.1379L39.5766 98.6818L46.7755 97.6359C46.2007 96.8144 45.3058 95.8197 43.7765 94.548C41.6563 92.785 42.4059 89.7905 43.6569 87.8991C45.3112 84.7042 53.8363 80.6434 53.3538 75.5368C53.1804 73.68 52.8855 71.2627 51.1634 69.6064C51.099 70.2939 51.2152 70.9556 51.2152 70.9556C51.2152 70.9556 50.5075 70.0534 50.1556 68.8218C49.8059 68.349 49.5314 68.1985 49.1591 67.5681C48.8939 68.2977 48.9289 69.1432 48.9289 69.1432C48.9289 69.1432 48.3504 67.7759 48.2568 66.6211C47.914 67.1378 47.8273 68.1195 47.8273 68.1195C47.8273 68.1195 47.0758 65.9631 47.247 64.8013C46.9047 63.7905 45.8875 61.785 46.1749 57.226C48.052 58.5421 52.184 58.2299 53.794 55.8546C54.3282 55.0682 54.6949 52.921 53.5269 48.6894C52.7772 45.9761 50.9204 41.9357 50.1962 40.4026L50.1098 40.4649C50.4909 41.7001 51.2774 44.2883 51.5796 45.5439C52.4934 49.3511 52.7384 50.6764 52.3089 52.432C51.9445 53.9577 51.0693 54.956 48.8513 56.0716C46.6338 57.1909 43.6897 54.467 43.5038 54.316C41.3485 52.5973 39.6813 49.7939 39.4954 48.4317C39.3022 46.9412 40.3539 46.0458 40.8844 44.8272C40.1256 45.0442 39.2799 45.4303 39.2799 45.4303C39.2799 45.4303 40.2893 44.3844 41.5344 43.4798C42.0506 43.1376 42.3528 42.9211 42.8957 42.4685C42.1092 42.4556 41.4703 42.4777 41.4703 42.4777C41.4703 42.4777 42.7818 41.7684 44.1413 41.2517C43.1467 41.2074 42.1941 41.2443 42.1941 41.2443C42.1941 41.2443 45.1211 39.9338 47.4333 38.9724C49.023 38.3195 50.5758 38.513 51.449 39.7754C52.5945 41.4299 53.7976 42.329 56.3473 42.8859C57.913 42.1909 58.3881 41.8344 60.3557 41.2974C62.087 39.3913 63.4465 39.1451 63.4465 39.1451C63.4465 39.1451 62.7725 39.7644 62.5917 40.7368C63.5738 39.9629 64.6496 39.316 64.6496 39.316C64.6496 39.316 64.233 39.8309 63.8446 40.6486L63.9345 40.783C65.0804 40.0954 66.427 39.5533 66.427 39.5533C66.427 39.5533 66.0422 40.0405 65.5906 40.6708C66.4547 40.6634 68.2067 40.7077 68.8862 40.7848C72.9002 40.873 73.7329 36.4941 75.2727 35.9446C77.2015 35.2552 78.0637 34.8383 81.3501 38.0697C84.1701 40.8435 86.3734 45.8088 85.2791 46.9208C84.362 47.8434 82.5528 46.5606 80.547 44.0588C79.4873 42.7335 78.686 41.1672 78.3105 39.1765C77.9936 37.4962 76.7614 36.5219 76.7614 36.5219C76.7614 36.5219 77.476 38.1177 77.476 39.5238C77.476 40.2921 77.5719 43.1634 78.8022 44.7754C78.6804 45.0109 78.6238 45.9409 78.489 46.1191C77.058 44.3875 73.9833 43.1486 73.4823 42.7829C75.1791 44.1746 79.0786 47.371 80.5765 50.4357C81.9932 53.3328 81.1582 55.9889 81.8751 56.6764C82.079 56.8731 84.9216 60.419 85.4687 62.2001C86.4227 65.3049 85.5259 68.5678 84.2772 70.5917L80.7896 71.1356C80.2798 70.9943 79.9352 70.9228 79.4785 70.6577C79.7304 70.2112 80.2319 69.0974 80.2369 68.8674L80.0404 68.5221C78.9549 70.0606 77.1369 71.5549 75.6265 72.4133C73.6498 73.5349 71.3713 73.3618 69.8882 72.9023C65.6792 71.6029 61.6984 68.7552 60.7385 68.0072C60.7385 68.0072 60.709 68.6047 60.8897 68.7391C61.9508 69.9373 64.3823 72.1049 66.7327 73.6158L61.7219 74.1671L64.0913 92.6284C63.0413 92.7789 62.8771 92.8528 61.7275 93.0163C60.7144 89.4335 58.7764 87.0937 56.6581 85.7315C54.7902 84.5295 52.2133 84.259 49.7466 84.748L49.5884 84.9318C51.3032 84.7535 53.3279 85.0015 55.4075 86.3198C57.4488 87.6118 59.0934 90.9485 59.6996 92.9576C60.475 95.5255 61.0111 98.2721 58.9241 101.184C57.4396 103.254 53.1051 104.397 49.6032 101.923C50.5387 103.428 51.8023 104.66 53.5046 104.891C56.0321 105.235 58.4305 104.796 60.0811 103.099C61.4899 101.648 62.2382 98.6156 62.0408 95.4212L64.2717 95.0975L65.0767 100.831L102 96.3802L98.9882 66.9688ZM63.6325 75.4449L68.2784 74.8049C69.0299 75.1434 69.553 75.2722 70.4539 75.5017C71.8577 75.8674 73.4825 76.2188 75.8883 75.0053C76.4483 74.7278 77.6145 73.6597 78.086 73.0516L97.1185 69.5953L99.0602 93.1175L66.4529 98.9999L63.6325 75.4449ZM90.6342 83.2515L84.4005 79.1358L79.2005 87.8308L73.1526 86.0608L67.8272 94.1966L68.0998 96.7571L97.0539 91.4173L95.372 73.3088L90.6342 83.2515Z" fill="#612BA6"/>
</svg>
