<svg width="134" height="134" viewBox="0 0 134 134" fill="none" xmlns="http://www.w3.org/2000/svg">
<rect width="134" height="134" rx="26" fill="#F05138"/>
<path d="M93.7475 78.397C93.7455 78.3945 93.7437 78.3926 93.7416 78.3903C93.8339 78.0782 93.9291 77.768 94.0099 77.4481C97.4734 63.74 89.0204 47.5333 74.716 39C80.9844 47.4417 83.7561 57.6666 81.2935 66.6084C81.0739 67.406 80.8099 68.1714 80.5181 68.9154C80.2014 68.7087 79.8023 68.474 79.2664 68.1805C79.2664 68.1805 65.0373 59.4529 49.6153 44.016C49.2107 43.6108 57.839 56.267 67.6311 66.5442C63.0177 63.9721 50.1607 54.6793 42.0213 47.2788C43.0213 48.9355 44.2107 50.5308 45.5181 52.0666C52.3152 60.6297 61.1794 71.1953 71.7991 79.3084C64.3376 83.8445 53.7943 84.1973 43.2969 79.3132C40.7004 78.1044 38.2595 76.6459 36 74.9888C40.4436 82.0495 47.2873 88.1414 55.6167 91.6978C65.5499 95.9384 75.4278 95.6508 82.7848 91.7673L82.779 91.7757C82.8126 91.7546 82.8553 91.7315 82.8901 91.7102C83.1922 91.5488 83.4921 91.3845 83.7853 91.211C87.3201 89.3884 94.3019 87.5392 98.0494 94.7826C98.9672 96.5553 100.917 87.161 93.7475 78.397Z" fill="white"/>
</svg>
