<svg width="636" height="734" viewBox="0 0 636 734" fill="none" xmlns="http://www.w3.org/2000/svg">
<g filter="url(#filter0_d_805_5541)">
<path fill-rule="evenodd" clip-rule="evenodd" d="M628.137 363.598C619.813 283.843 606.869 159.807 544.635 119.108C543.054 143.572 540.482 163.632 522.184 148.551C518.496 145.511 512.569 137.822 504.578 127.458C472.93 86.408 408.921 3.38261 323.504 0.976151C353.07 16.4469 291.173 44.8836 244.838 66.1709C230.479 72.7674 217.615 78.6774 209.43 83.3024C181.751 98.9421 139.202 138.876 121.387 156.888C119.014 149.65 116.223 132.572 124.041 122.172C133.813 109.172 15.7405 227.415 24.7044 308.459C10.9838 296.05 7.66585 281.396 7.68716 272.895C7.78771 271.526 7.88824 270.198 7.98843 268.914C7.80569 270.003 7.69105 271.347 7.68716 272.895C4.13041 321.331 0.570171 421.356 12.3898 469.327C42.0592 633.518 196.563 746.17 363.176 722.551C528.979 699.046 645.755 549.242 630.001 384.228C630.111 384.22 630.221 384.212 630.331 384.204C629.615 377.768 628.895 370.867 628.137 363.598Z" fill="black"/>
</g>
<defs>
<filter id="filter0_d_805_5541" x="0.265625" y="0.976196" width="635.156" height="732.703" filterUnits="userSpaceOnUse" color-interpolation-filters="sRGB">
<feFlood flood-opacity="0" result="BackgroundImageFix"/>
<feColorMatrix in="SourceAlpha" type="matrix" values="0 0 0 0 0 0 0 0 0 0 0 0 0 0 0 0 0 0 127 0" result="hardAlpha"/>
<feOffset dy="4"/>
<feGaussianBlur stdDeviation="2"/>
<feComposite in2="hardAlpha" operator="out"/>
<feColorMatrix type="matrix" values="0 0 0 0 0 0 0 0 0 0 0 0 0 0 0 0 0 0 0.25 0"/>
<feBlend mode="normal" in2="BackgroundImageFix" result="effect1_dropShadow_805_5541"/>
<feBlend mode="normal" in="SourceGraphic" in2="effect1_dropShadow_805_5541" result="shape"/>
</filter>
</defs>
</svg>
